<svg width="150" height="150" version="1.2" viewBox="0 0 112.5 112.5" xmlns="http://www.w3.org/2000/svg">
 <g transform="matrix(.97046 0 0 .97046 7.86 3.8241)" stroke-width="1.0618">
  <path d="m-3.0059-1.4941c0.041046 11.201 0.078026 22.402 0.11914 33.604h25.256v78.936h54.961v-79.062h25.396v-34.982h-105.74c0.00195 0.50195 0.00391 1.0039 0.00586 1.5059z" fill="#fff" style="paint-order:stroke fill markers"/>
  <g transform="translate(-79.458 .89816)">
   <path d="m129.36 13.605v92.609h23.434v-92.609h-23.434" fill="#8c1e1c"/>
   <path d="m105.81 13.605v92.609h23.543v-92.609h-23.543" fill="#d1d1d1"/>
   <path d="m80.293 27.289h98.012v-27.289h-98.012v27.289" fill="#383335"/>
   <path d="m130.7 10.562 7.3242-2.4531-4.5586 6.3477 4.5586 6.2734-7.3633-2.5312-4.5195 6.2773v-7.6367l-7.1641-2.4609 7.1055-2.3945 0.0586-7.6562 4.5586 6.2344" fill="#211e1e"/>
   <path d="m126.14 4.3281-0.0586 7.6562-7.1055 2.3945 7.1641 2.4609v7.6367l4.5195-6.2773 7.3633 2.5312-4.5586-6.2734 4.5586-6.3477-7.3242 2.4531-4.5586-6.2344" fill="#d1d1d1"/>
  </g>
 </g>
</svg>
