<svg version="1.1" viewBox="0 0 413.96 144" xmlns="http://www.w3.org/2000/svg">
 <g transform="matrix(1.3333 0 0 -1.3333 0 144)">
  <g transform="scale(.1)">
   <g fill="#25468d">
    <path d="m976.82 128.95-50.097 155.94h-1.297l-51.914-155.94zm-92.929 198.44h89.238l114.9-316.25h-72.7l-26.818 77.484h-127.83l-28.067-77.484h-72.804l124.08 316.25"/>
    <path d="m1115 327.41h69.72v-126.74h128.36v126.74h69.66v-316.3h-69.66v147.05h-128.36v-147.05h-69.72v316.3"/>
    <path d="m1616 128.87-50.1 155.96h-1.3l-51.91-155.96zm-92.92 198.5h89.23l114.88-316.23h-72.68l-26.96 77.496h-127.75l-28.12-77.496h-72.68l124.08 316.23"/>
    <path d="m619.06 489.12c0-28.449-23.004-51.496-51.489-51.496h-497.53c-28.461 0-51.488 23.047-51.488 51.496v522.22c0 28.44 23.027 51.54 51.488 51.54h497.53c28.485 0 51.489-23.1 51.489-51.54v-522.22"/>
   </g>
   <path d="m522.69 972.36v-440.76h-114.44v169.96h-179.88v-169.96h-114.44v440.76h114.44v-159.45h179.88v159.45h114.44" fill="#fff"/>
   <path d="m31.996 494.12v510.02c0 24.15 22.309 43.85 49.75 43.85h472.41c27.465 0 49.727-19.7 49.727-43.85v-510.02c0-24.16-22.262-43.848-49.727-43.848h-472.41c-27.441 0-49.75 19.688-49.75 43.848m175.32-362.68c0.207 12.84 8.926 23.953 8.926 23.953 7.504 7.715 13.078 27.325 83.695 39.219 31.278 5.207 66.645 5.051 103.96 4.817 59.09-0.372 120.13-0.723 180.34 18.984 0.996 0.32 2.789 1.062 2.789 1.062h-0.047c61.254 18.782 126.69 61.75 189.96 103.61 37.813 24.941 73.496 48.496 105.8 65.371 15.566 7.668 30.418 13.761 45.242 18.683 51.75 17.051 109.16 16.61 164.68 16.219 39.06-0.234 76.04-0.488 110.05 5.274l1.72 0.253c36.53 6.114 112.65 18.918 120.76 88.02-0.16-0.93 0.25 0.449 0.25 0.449l0.24 0.879-0.04 544.9h-50.45c-0.37-10.74-5.07-19.35-11.48-26.54-9.67-10.87-18.27-24.37-82.45-35.94-31.14-5.553-66.55-4.947-103.93-4.764-59.09 0.305-120.17 0.742-180.37-19.035-17.707-5.808-35.508-13.266-54.278-22.469-36.046-18.707-73.086-43.199-112.24-69.058-31.414-20.703-63.484-41.781-94.527-59.485v178.29c0 41.83-36.692 75.85-81.77 75.85h-472.41c-45.125 0-81.746-34.02-81.746-75.85v-510.02c0-41.875 36.621-75.937 81.746-75.937h79.402v-286.74h46.172" fill="#fff"/>
   <g fill="#a11834">
    <path d="m1187 564.14c-83.54-13.946-186.66 7.804-279.5-22.59-17.195-5.742-33.836-12.828-49.98-20.746-59.981-31.145-129.64-83.703-196.98-123.14-16.382-8.457-32.207-16.57-46.847-24.168-15.571-7.734-31.559-14.473-48.215-20-0.559-0.187-1.117-0.449-1.746-0.637v-0.086h-0.024c-94.062-30.91-200.78-9.433-279.49-22.609-30.765-5.184-90.39-14.363-95.781-60.281v-106.73c6.785 46.477 75.82 60.403 106.56 65.578 83.559 14.063 186.64-7.804 279.5 22.704 0.625 0.136 1.183 0.46 1.832 0.656 92.183 27.39 202.86 121.04 291.91 167.27 16.211 8.02 32.761 15.11 50.027 20.735 94.104 30.945 200.88 9.382 279.44 22.675 30.79 5.157 90.41 14.364 95.83 60.203v106.75c-6.81-46.449-75.8-60.371-106.54-65.593"/>
    <path d="m1187 768.72c-83.54-14.035-186.66 7.781-279.5-22.656-17.195-5.668-33.836-12.688-49.98-20.731-67.039-34.781-146.33-96.359-220.73-136.42v-110.91c77.469 39.777 161.22 105.63 231.45 142.11 16.211 7.996 32.761 14.989 50.027 20.68 94.104 30.977 200.88 9.434 279.44 22.613 30.79 5.231 90.41 14.387 95.83 60.254v110.68c-6.81-46.543-75.8-60.484-106.54-65.621"/>
    <path d="m1187 969.46c-83.54-14.078-186.66 7.766-279.5-22.676-17.195-5.648-33.836-12.711-49.98-20.726-67.039-34.786-146.33-96.387-220.73-136.38v-107.1c77.469 39.688 161.22 105.63 231.45 142.07 16.211 8.016 32.761 15.059 50.027 20.703 94.104 30.954 200.88 9.458 279.44 22.657 30.79 5.136 90.41 14.316 95.83 60.226v106.77c-6.81-46.467-75.8-60.412-106.54-65.549"/>
   </g>
   <path d="m1414.7 1035.6c36.05 0 68.19-25.95 68.19-66.241 0-40.477-32.14-66.575-68.19-66.575-36.03 0-68.19 26.098-68.19 66.575 0 40.291 32.16 66.241 68.19 66.241m0-118.62c27.54 0 50.08 22.004 50.08 52.375 0 30.187-22.54 52.031-50.08 52.031-27.88 0-50.05-21.844-50.05-52.031 0-30.371 22.17-52.375 50.05-52.375m-26.46 89.676h28.06c18.65 0 29.14-5.86 29.14-22.036 0-13.636-8.52-19.008-19.56-19.886l19.9-32.489h-15.43l-18.16 31.789h-9.2v-31.789h-14.75zm14.75-31.098h13.13c8.35 0 14.57 1.254 14.57 10.293 0 8.015-8.53 9.254-15.27 9.254h-12.43v-19.547" fill="#25468d"/>
   <g fill="#5a79c5">
    <path d="m1803.8 327.31h213.51v-52.071h-145.12v-75.851h135.84v-52.051h-135.84v-86.027h149.97v-52.93h-218.36v318.93"/>
    <path d="m2100.7 231.12 50.26-151.29 51.17 151.29h63.09l-80.28-222.75h-72.34l-81.61 222.75h69.71"/>
    <path d="m2411.6 144.25c0 10.137-0.86 49.824-38.81 49.824-28.67 0-40.58-23.797-41.9-49.824zm-82.91-41.035c0-14.57 0-59.535 45.43-59.535 16.32 0 32.64 6.1914 38.82 30.859h59.53c-0.88-10.59-3.06-29.527-21.17-48.508-16.34-17.231-45.43-26.031-78.07-26.031-18.96 0-55.12 3.5312-78.52 27.801-20.26 21.16-28.67 51.16-28.67 86.898 0 36.153 8.83 79.375 46.33 105.42 17.19 11.453 38.37 18.524 62.62 18.524 31.77 0 69.69-12.344 89.97-53.817 15.01-30.441 14.14-63.086 13.26-81.613h-149.53"/>
    <path d="m2508.7 191.44c0 0.89 0 25.167-1.32 40.578h62.64l1.77-33.516c6.18 10.137 23.82 38.836 72.34 38.836 43.68 0 62.2-26.492 67.9-41.922 4.87-13.684 6.2-25.148 6.2-66.601v-120.43h-66.62v138.52c0 9.247 0 17.196-3.51 24.258-4.85 9.707-15.01 18.965-31.77 18.965-14.1 0-26.9-6.601-33.94-17.199-3.98-5.742-7.95-16.777-7.95-33.973v-130.57h-65.74v183.06"/>
    <path d="m2895.5 11.488c-21.16-5.7383-40.13-7.0586-50.72-7.0586-65.71 0-65.71 41.469-65.71 60v122.14h-42.79v43.223h42.79v43.691l64.83 23.809v-67.5h52.93v-43.223h-52.93v-100.57c0.44-20.258 0.44-33.086 29.55-33.086 9.72 0 14.11 0.457 22.05 1.3164v-42.75"/>
    <path d="m2971 72.781c0.89-14.102 9.72-30.422 37.07-30.422 23.35 0 34.42 13.219 34.42 26.441 0 10.16-5.31 18.106-30.89 25.168l-40.6 11.035c-18.09 5.273-56.43 16.316-56.43 61.738 0 43.223 39.68 69.688 97.48 69.688 45.84 0 82.9-21.145 84.69-65.735h-59.56c-1.76 24.7-21.61 26.496-31.76 26.496-17.66 0-30.86-8.39-30.86-22.062 0-14.981 10.99-18.094 30.4-23.367l40.15-11.047c40.59-11.004 59.57-31.758 59.57-62.196 0-38.371-33.08-76.73-102.35-76.73-28.67 0-56.03 6.1797-76.34 27.32-14.54 15.43-15.84 33.09-16.31 43.672h61.32"/>
   </g>
  </g>
 </g>
</svg>
