<svg class="feather feather-file-text" fill="none" stroke="currentColor" stroke-linecap="round" stroke-linejoin="round" stroke-width="2" version="1.1" viewBox="0 0 18 22" xmlns="http://www.w3.org/2000/svg">
 <path d="m11 1h-8a2 2 0 0 0-2 2v16a2 2 0 0 0 2 2h12a2 2 0 0 0 2-2v-12z"/>
 <polyline transform="translate(-3,-1)" points="14 2 14 8 20 8"/>
 <g fill="#000" stroke-linecap="round" stroke-linejoin="round" stroke-width=".55012" style="paint-order:stroke fill markers" aria-label="PDF">
  <path d="m4.1161 13.035v1.3898h-0.62422v-3.8413h1.1951q0.37613 0 0.65089 0.08803 0.27743 0.08803 0.45616 0.24809 0.1814 0.15739 0.26943 0.38147 0.088031 0.22141 0.088031 0.49084 0 0.27476-0.093366 0.50418-0.093366 0.22675-0.27743 0.39214-0.18406 0.16272-0.45883 0.25609-0.2721 0.0907-0.63489 0.0907zm0-0.49351h0.57087q0.20807 0 0.36546-0.05335 0.16006-0.05335 0.26409-0.14938 0.1067-0.0987 0.16006-0.23742 0.053352-0.13872 0.053352-0.30944 0-0.16806-0.053352-0.30144-0.050684-0.13338-0.15472-0.22675-0.10404-0.09337-0.26409-0.14138-0.15739-0.05068-0.3708-0.05068h-0.57087z"/>
  <path d="m10.774 12.504q0 0.42682-0.13872 0.78161-0.13872 0.35212-0.39214 0.60554-0.25075 0.25342-0.60555 0.3948-0.35212 0.13872-0.78427 0.13872h-1.4512v-3.8413h1.4512q0.43215 0 0.78427 0.14138 0.35479 0.13872 0.60555 0.39214 0.25342 0.25342 0.39214 0.60821 0.13872 0.35212 0.13872 0.77894zm-0.63756 0q0-0.33078-0.0907-0.59488-0.088031-0.26409-0.25609-0.44549-0.16539-0.1814-0.40281-0.27743-0.23742-0.0987-0.53352-0.0987h-0.82429v2.833h0.82429q0.2961 0 0.53352-0.09603 0.23742-0.09603 0.40281-0.27743 0.16806-0.18406 0.25609-0.44549 0.0907-0.26409 0.0907-0.59754z"/>
  <path d="m14.508 10.583v0.50418h-1.7686v1.2298h1.5019v0.50418h-1.5019v1.6032h-0.62689v-3.8413z"/>
 </g>
</svg>
