<svg version="1.1" viewBox="0 0 424.31 154.55" xmlns="http://www.w3.org/2000/svg">
 <g fill="#fff" stroke-width=".13333">
  <path d="m135.6 132.36-6.6794-20.791h-0.17293l-6.9217 20.791zm-12.39-26.458h11.898l15.32 42.166h-9.6931l-3.5756-10.331h-17.044l-3.7422 10.331h-9.707l16.544-42.166"/>
  <path d="m154.02 105.89h9.2958v16.898h17.114v-16.898h9.2878v42.172h-9.2878v-19.606h-17.114v19.606h-9.2958v-42.172"/>
  <path d="m220.82 132.37-6.6798-20.794h-0.17333l-6.9212 20.794zm-12.389-26.466h11.897l15.317 42.163h-9.6904l-3.5946-10.333h-17.033l-3.7492 10.333h-9.6904l16.544-42.163"/>
 </g>
 <path d="m87.9 84.334c0 3.7931-3.0671 6.866-6.865 6.866h-66.336c-3.7947 0-6.8649-3.0729-6.8649-6.866v-69.628c0-3.7919 3.0702-6.8718 6.8649-6.8718h66.336c3.7979 0 6.865 3.0799 6.865 6.8718v69.628" fill="none" stroke="#fff" stroke-width="5.6693"/>
 <g fill="#fff" stroke-width=".13333">
  <path d="m75.051 19.904v58.767h-15.258v-22.661h-23.983v22.661h-15.258v-58.767h15.258v21.259h23.983v-21.259h15.258"/>
  <path d="m163.62 74.332c-11.138 1.8594-24.887-1.0405-37.266 3.0119-2.2926 0.76558-4.5114 1.7104-6.6638 2.7661-7.9973 4.1526-17.285 11.16-26.263 16.418-2.1842 1.1276-4.2942 2.2093-6.2461 3.2223-2.0761 1.0312-4.2078 1.9297-6.4285 2.6666-0.07453 0.0249-0.14893 0.0599-0.23279 0.0849v0.0115h-0.0032c-12.541 4.1212-26.77 1.2577-37.264 3.0145-4.1019 0.69119-12.052 1.915-12.77 8.0373v14.23c0.90464-6.1968 10.109-8.0535 14.208-8.7435 11.141-1.875 24.885 1.0405 37.266-3.0271 0.08333-0.0181 0.15773-0.0613 0.24426-0.0875 12.291-3.6519 27.047-16.138 38.92-22.302 2.1614-1.0693 4.368-2.0146 6.6701-2.7646 12.547-4.1259 26.783-1.2509 37.258-3.0233 4.1052-0.68758 12.054-1.9152 12.777-8.0269v-14.233c-0.90797 6.193-10.106 8.0493-14.205 8.7455"/>
  <path d="m163.62 47.055c-11.138 1.8713-24.887-1.0374-37.266 3.0207-2.2926 0.75571-4.5114 1.6917-6.6638 2.7641-8.9383 4.6374-19.51 12.848-29.43 18.189v14.788c10.329-5.3035 21.495-14.084 30.859-18.948 2.1614-1.0661 4.368-1.9985 6.6701-2.7573 12.547-4.1302 26.783-1.2578 37.258-3.015 4.1052-0.69745 12.054-1.9182 12.777-8.0337v-14.757c-0.90798 6.2056-10.106 8.0643-14.205 8.7492"/>
  <path d="m163.62 20.29c-11.138 1.877-24.887-1.0354-37.266 3.0234-2.2926 0.75305-4.5114 1.6948-6.6638 2.7634-8.9383 4.638-19.51 12.851-29.43 18.184v14.28c10.329-5.2916 21.495-14.084 30.859-18.942 2.1614-1.0688 4.368-2.0078 6.6701-2.7603 12.547-4.1271 26.783-1.261 37.258-3.0209 4.1052-0.68478 12.054-1.9088 12.777-8.0299v-14.236c-0.90798 6.1954-10.106 8.0547-14.205 8.7396"/>
  <path d="m193.98 11.472c4.8066 0 9.0918 3.4599 9.0918 8.8319 0 5.3968-4.2852 8.8764-9.0918 8.8764-4.8039 0-9.0918-3.4796-9.0918-8.8764 0-5.372 4.2879-8.8319 9.0918-8.8319m0 15.816c3.6719 0 6.6772-2.9338 6.6772-6.9832 0-4.0248-3.0053-6.9373-6.6772-6.9373-3.7172 0-6.6732 2.9125-6.6732 6.9373 0 4.0494 2.9559 6.9832 6.6732 6.9832m-3.5279-11.957h3.7412c2.4866 0 3.8852 0.78131 3.8852 2.9381 0 1.8181-1.136 2.5343-2.6079 2.6514l2.6533 4.3318h-2.0573l-2.4213-4.2384h-1.2266v4.2384h-1.9666zm1.9666 4.1463h1.7506c1.1133 0 1.9426-0.1672 1.9426-1.3724 0-1.0686-1.1373-1.2338-2.036-1.2338h-1.6573v2.6062"/>
  <path d="m245.86 105.91h28.467v6.9426h-19.349v10.113h18.112v6.94h-18.112v11.47h19.996v7.0572h-29.114v-42.523"/>
  <path d="m285.45 118.73 6.7012 20.172 6.8225-20.172h8.4118l-10.704 29.699h-9.6451l-10.881-29.699h9.2944"/>
  <path d="m326.9 130.32c0-1.3516-0.11467-6.643-5.1745-6.643-3.8226 0-5.4105 3.1729-5.5865 6.643zm-11.054 5.4712c0 1.9426 0 7.9378 6.0572 7.9378 2.176 0 4.3519-0.8255 5.1759-4.1144h7.9371c-0.11734 1.412-0.40799 3.9368-2.8226 6.4676-2.1786 2.2974-6.0572 3.4707-10.409 3.4707-2.5279 0-7.3492-0.47081-10.469-3.7067-2.7013-2.8213-3.8226-6.8212-3.8226-11.586 0-4.8203 1.1773-10.583 6.1772-14.056 2.2919-1.527 5.1159-2.4698 8.3491-2.4698 4.2359 0 9.2918 1.6458 11.996 7.1754 2.0013 4.0587 1.8853 8.4113 1.768 10.881h-19.937"/>
  <path d="m339.85 124.02c0-0.11866 0-3.3555-0.17599-5.4103h8.3518l0.23599 4.4687c0.82398-1.3516 3.1759-5.178 9.6451-5.178 5.8239 0 8.2931 3.5322 9.0531 5.5895 0.64932 1.8245 0.82665 3.353 0.82665 8.8799v16.057h-8.8824v-18.469c0-1.2329 0-2.2928-0.46799-3.2343-0.64665-1.2942-2.0013-2.5286-4.2359-2.5286-1.88 0-3.5866 0.88012-4.5252 2.2932-0.53065 0.76558-1.06 2.2369-1.06 4.5296v17.409h-8.7651v-24.407"/>
  <path d="m391.42 148.02c-2.8213 0.76509-5.3505 0.94113-6.7625 0.94113-8.7611 0-8.7611-5.5291-8.7611-7.9998v-16.285h-5.7052v-5.7629h5.7052v-5.8253l8.6438-3.1745v8.9998h7.0572v5.7629h-7.0572v13.409c0.0587 2.701 0.0587 4.4114 3.9399 4.4114 1.296 0 1.8813-0.0609 2.9399-0.17552v5.6999"/>
  <path d="m401.48 139.84c0.11866 1.8802 1.296 4.0562 4.9425 4.0562 3.1133 0 4.5892-1.7625 4.5892-3.5254 0-1.3546-0.70798-2.4141-4.1186-3.3556l-5.4132-1.4713c-2.4119-0.70305-7.5238-2.1754-7.5238-8.2315 0-5.7629 5.2905-9.2915 12.997-9.2915 6.1118 0 11.053 2.8193 11.292 8.7644h-7.9411c-0.23466-3.2932-2.8813-3.5327-4.2346-3.5327-2.3546 0-4.1146 1.1186-4.1146 2.9415 0 1.9974 1.4653 2.4125 4.0532 3.1155l5.3532 1.4729c5.4119 1.4672 7.9425 4.2343 7.9425 8.2926 0 5.116-4.4106 10.23-13.646 10.23-3.8226 0-7.4705-0.82394-10.178-3.6426-1.9386-2.0573-2.112-4.4119-2.1746-5.8228h8.1758"/>
 </g>
</svg>
