<svg version="1.0" viewBox="0 0 124.17 85.5" xmlns="http://www.w3.org/2000/svg">
 <path d="m62.605 0c-25.461 0-48.45 1.2334-53.01 4.6543-1.4253 0.94936-3.0408 1.71-3.9902 3.0391-4.6556 6.1756-5.3205 14.916-5.6055 34.961 0.28494 20.046 0.94987 28.786 5.6055 34.961 0.94943 1.425 2.5649 2.091 3.9902 3.041 4.5601 3.5155 27.549 4.6539 53.01 4.8438 25.461-0.18987 47.405-1.3283 52.061-4.8438 1.3297-0.94999 2.946-1.616 3.8008-3.041 4.7493-6.175 5.5094-14.915 5.6992-34.961-0.18987-20.045-0.94988-28.785-5.6992-34.961-0.85474-1.3291-2.471-2.0897-3.8008-3.0391-4.6554-3.4209-26.6-4.6543-52.061-4.6543zm-27.908 12.537c14.922 0 23.264 9.2402 24.553 24.926h-15.193c-0.47481-6.3592-3.6623-10.004-8.6816-10.004-5.6296 0-9.0215 6.019-9.0215 17.805 0 8.5634 1.4935 16.619 9.6328 16.619 5.1549 0 7.5966-4.495 8.207-10.346h15.396c-1.4244 15.771-10.445 25.268-23.332 25.268-16.143 0-25.91-12.379-25.91-32.219 0-19.755 10.716-32.049 24.35-32.049zm53.178 0c14.922 0 23.266 9.2402 24.555 24.926h-15.193c-0.47437-6.3592-3.6623-10.004-8.6816-10.004-5.6293 0-9.0215 6.019-9.0215 17.805 0 8.5634 1.4916 16.619 9.6309 16.619 5.1549 0 7.597-4.495 8.207-10.346h15.396c-1.4237 15.771-10.445 25.268-23.332 25.268-16.143 0-25.91-12.379-25.91-32.219 0-19.755 10.716-32.049 24.35-32.049z" fill="#fff" fill-rule="evenodd"/>
 <path d="m124.17 42.655c-0.18987-20.045-0.95062-28.786-5.7-34.961-0.85474-1.3291-2.4702-2.0892-3.8-3.0386-4.6554-3.4209-26.6-4.6553-52.061-4.6553-25.461 0-48.45 1.2345-53.011 4.6553-1.4253 0.94936-3.0409 1.7095-3.9903 3.0386-4.6556 6.1756-5.3201 14.916-5.605 34.961 0.28494 20.046 0.94943 28.786 5.605 34.961 0.94943 1.425 2.565 2.0899 3.9903 3.0399 4.5601 3.5155 27.55 4.6553 53.011 4.8452 25.461-0.18987 47.406-1.3297 52.061-4.8452 1.3297-0.94999 2.9452-1.6149 3.8-3.0399 4.7493-6.175 5.5101-14.915 5.7-34.961z" fill="none" stroke="#000" stroke-width=".1506"/>
</svg>
