<svg enable-background="new 0 0 50 50" version="1.1" viewBox="0 0 26 26" xmlns="http://www.w3.org/2000/svg">
 <path d="m7.3959 26-6.4238-0.01934-0.21692-0.10653c-0.27926-0.13714-0.57182-0.45456-0.67628-0.73374l-0.078934-0.21098v-23.859l0.08244-0.22064c0.11384-0.30468 0.46255-0.65339 0.76723-0.76723l0.22064-0.08244h23.859l0.22064 0.08244c0.30468 0.11384 0.65339 0.46255 0.76723 0.76723l0.08244 0.22064v23.859l-0.08243 0.22064c-0.11384 0.30468-0.46255 0.65339-0.76723 0.76723-0.22022 0.08228-0.22722 0.08244-3.6884 0.08244h-3.4678v-10.026h1.6965c1.4734 0 1.6965-0.0075 1.6965-0.0565 0-0.03108 0.11151-0.90305 0.2478-1.9377 0.13629-1.0347 0.2478-1.9099 0.2478-1.945 0-0.05875-0.15266-0.06375-1.9466-0.06375h-1.9466l0.01323-1.5916c0.01275-1.5321 0.0164-1.6001 0.09757-1.8168 0.22644-0.60455 0.62028-0.85351 1.4829-0.93741 0.20578-0.02001 0.84181-0.036826 1.4134-0.037373l1.0392-9.647e-4 -0.0099-1.7818-0.0099-1.7818-0.17155-0.02451c-0.91645-0.13096-3.3776-0.17046-3.9458-0.063346-2.151 0.40555-3.4769 1.6913-3.9088 3.7907-0.11579 0.56273-0.156 1.3703-0.1435 2.8816l0.01128 1.3625-3.393 0.0198v3.9648l3.3739 0.0198v5.0319c0 2.7675-0.0041 5.0277-0.0095 5.0226-0.0053-0.0052-2.9002-0.01796-6.4333-0.02859z"/>
</svg>
