<svg width="264.32mm" height="32.165mm" version="1.1" viewBox="0 0 264.32 32.165" xmlns="http://www.w3.org/2000/svg">
 <g transform="matrix(1 0 0 .36785 45.984 -70.285)" fill="#fff" stroke-width="1.6488">
  <path d="m218.34 191.07c-1.7021-0.0102-2.8722 1.377-4.323 2.0672-0.5912 0.28127-1.2781 0.15638-1.9021 0.32393-1.6074 0.4316-3.1296 1.6935-4.8994 1.4197-0.78833-0.12196-1.553-0.48952-2.3805-0.36649-1.3834 0.20569-2.7029 0.67982-4.1141 0.72408-1.6111 0.0505-3.2508 0.39858-4.7978 0.68373-2.1814 0.40207-4.4499 0.36899-6.4382 1.307-1.2431 0.58641-2.3902-0.45436-3.4511-0.97067-0.7594-0.36958-1.6103-0.52216-2.44-0.53426-1.4919-0.0218-2.802 1.2778-4.3196 0.8816-0.68462-0.17875-1.3054-0.62165-2.0493-0.73216-2.1858-0.32471-4.4048 1.7139-5.9761 2.1577-1.5706 0.44357-3.3394-0.20657-4.8744 0.31153-0.60154 0.20304-1.257 0.80089-1.8506 0.4783-1.8303-0.99462-4.2386-0.70689-6.2817-0.62341-1.6079 0.0657-3.301-0.0386-4.9172 0.18452-0.68471 0.0945-1.3808-0.0925-2.0515-0.0984-2.1966-0.0192-4.2805 1.166-6.5149 0.88346-1.5765-0.19935-3.1669 0.72828-4.7521 0.28035-0.84867-0.23981-1.7546-0.49254-2.6468-0.25442-0.94946 0.25342-1.8383 1.1036-2.7955 0.84931-1.6339-0.43402-3.514-0.46954-5.1558 0.0792-0.80013 0.26741-1.5916 0.81367-2.416 0.72535-1.9229-0.20599-3.8267 0.83105-5.725 0.19538-0.67443-0.22584-1.2131-0.74548-1.9428-0.90151-1.8058-0.38613-3.7286-9e-3 -5.4883-0.56042-1.9945-0.62463-4.0525-0.39742-6.072-0.19667-1.3896 0.13813-3.0783 1.0278-4.3814 0.019-0.46925-0.36329-1.1112-0.54259-1.7223-0.62525-1.7227-0.23299-3.5088 0.86333-4.914 1.3202-1.844 0.59962-3.6724 0.98236-5.5206 0.4653-1.5676-0.43855-3.3637-0.48929-5.0296-0.36124-2.0802 0.15989-4.1724 0.20247-6.2427 0.22725-2.2177 0.0265-4.4534-0.30573-6.676-0.20162-1.832 0.0858-3.1131 1.7375-4.9925 1.9764-1.9589 0.249-3.9002-0.60025-5.8516-0.15439-1.9689 0.44986-4.0903 0.48758-5.9888-0.19474-1.7909-0.64362-3.5292-1.3803-5.4549-1.2253-1.8116 0.14581-3.0491 1.6241-4.7536 1.9141-1.8202 0.30972-3.3115-1.0327-5.0099-1.4243-0.64882-0.14962-1.3136 0.0634-1.9687-0.0798-1.5529-0.33953-2.9335-1.2879-4.5691-1.2328-1.9881 0.067-3.8654 2.1868-5.1898 2.5413-2.2292 0.59663-4.5561-1.2108-6.8677-1.1938-1.9458 0.0143-3.9276 1.1572-5.8939 0.52817-0.73074-0.23377-1.413-0.68341-2.2224-0.67409-1.4826 0.0171-3.0257 0.55853-4.4603 8e-3 -2.2163-0.85055-4.7726-0.50841-6.8728 0.43361-0.83061 0.37255-1.8727 0.17309-2.6689 0.72022-0.74652 0.51297-1.8385 0.78814-2.5571 0.125-1.6395-1.5129-3.9941-1.4621-6.0639-1.2308-1.6338 0.18264-3.2494-1.281-4.908-0.66597-1.0846 0.40221-2.5199 0.79744-3.6531 0.16036-0.86639-0.48709-1.7669-0.96335-2.8153-0.95404-1.1717 0.0104-2.4631-0.29818-3.4203-0.84119-1.8068-1.025-3.8199-0.12316-5.7244-0.37538-1.7118-0.2267-3.332-1.6963-5.1791-1.3342-0.61078 0.11974-1.288 0.27516-1.8731-0.0393-1.3294-0.71444-2.1078-2.3808-3.6944-2.5291-1.0872-0.10165-2.2118 0.0566-3.2625-0.2687-0.92192-0.28545-1.5159-1.1181-2.3879-1.336-0.40983-0.10242-0.67996-0.32026-0.95756-0.16462 0.05529 14.209 0.0191 71.583 0.0191 85.795h264.28c4e-3 -15.442 0.0312-74.241 0.0216-87.441z" fill="#fff" stroke-width="1.6488" style="paint-order:stroke fill markers"/>
 </g>
</svg>
