<svg enable-background="new 0 0 50 50" version="1.1" viewBox="0 0 26 26" xmlns="http://www.w3.org/2000/svg">
 <path d="m25.989 4.9432c-0.95573 0.42396-1.983 0.71037-3.061 0.83922 1.1003-0.65958 1.9455-1.704 2.3433-2.9486-1.0299 0.61087-2.1705 1.0543-3.3845 1.2933-0.9721-1.0359-2.3572-1.683-3.8902-1.683-2.9433 0-5.3298 2.3862-5.3298 5.3295 0 0.41773 0.04715 0.82454 0.13807 1.2146-4.4295-0.22224-8.3566-2.3441-10.985-5.5687-0.45877 0.78713-0.72167 1.7026-0.72167 2.6794 0 1.8491 0.94092 3.4804 2.371 4.4361-0.87364-0.02767-1.6955-0.26744-2.414-0.6666-6.059e-4 0.02221-6.059e-4 0.044551-6.059e-4 0.067023 0 2.5822 1.8372 4.7362 4.2753 5.2261-0.44721 0.12184-0.91806 0.18691-1.4041 0.18691-0.34343 0-0.67725-0.03351-1.0028-0.0956 0.67829 2.1173 2.6465 3.6582 4.9788 3.7011-1.824 1.4296-4.1221 2.2816-6.6192 2.2816-0.4302 0-0.85442-0.02533-1.2714-0.07456 2.3587 1.5123 5.1601 2.3947 8.17 2.3947 9.8032 0 15.164-8.1211 15.164-15.164 0-0.23107-0.0052-0.46085-0.01546-0.68959 1.0412-0.75129 1.9447-1.6899 2.6592-2.7587z"/>
</svg>
