<svg version="1.1" viewBox="0 0 859.24 191.96" xmlns="http://www.w3.org/2000/svg">
 <title>Blank map of the United States, territories not included</title>
 <defs>
  <style type="text/css">.state {fill:#D0D0D0}                        /* default color for all states not specified below */
.borders {stroke:#FFFFFF; stroke-width:1}    /* color and width of borders between states */
.dccircle {display:yes}                      /* set display to yes to show the circle for the District of Columbia, or none to hide it */
.separator1 {stroke:#B0B0B0; stroke-width:2} /* color and width of lines around Alaska and Hawaii */

/* Individual states can be colored as follows:
.ks,.mt,.pa {fill:#0000FF}
.ca,.de {fill:#FF0000}
In this example, Kansas, Montana and Pennsylvania are colored blue, and California and Delaware are colored red.
Place this code in the empty space below. */</style>
 </defs>
 <path d="m83.346-189.95v0.80079l1.1992 0.59961v-1.4004zm5.4004 1.3008-1.9004 0.59961 1.5 4.9004-1.3008 0.0996 1 3 1.2012-2.5 0.90039 0.80078v3.2988l-1.2012-0.29883v2.5996l-1.4004-3.1992h-0.89844l-0.60156 4.0996-2.6992 3 1.9004 2.5996-0.5 3 1.5 1.1992v1.2012h1.5l0.40039-1.9004-1.4004-2.3008-0.90039 1.3008 0.30078-1.8008-0.20117-2.3984-1.5-0.5 1.8008-1.3008 1 0.80078 0.69922-0.40039-0.90039-1.0996 0.20117-2 0.59961 1.5996 1.5996 1.6992-0.29883 1.5996-0.30078-0.69921-1.8008 0.0996-0.29883 2.3008 0.59961 0.5 0.59961 1.9004 0.59961-0.10156-0.69922-2.8984 0.80078-0.90039 0.0996 3.5 1.1992 1.4004-0.29883 1.3984-1-0.0996-2.3008 2.2012-0.19922 2.3984-1.4004 0.80079 0.69922 2.0996-0.90039-0.29882 0.10156 2.6992-0.20117 2.9004h-1.2988l-0.10156 1.1992-0.69922 0.30079-0.30078-0.90039-0.79883-0.59961-0.20117 1.1992-2 1.9004-0.59961 0.0996-0.69922 0.80078h-0.70117l-0.69922-1.8008-0.5 1-0.40039-1.4004-1 1.8008 0.20117-2.1992-2.2012 0.59961 1.3008-1.2012 2.0996 0.40039 0.59961-0.40039-0.0996-2.1992 1.1992-1.1992 0.20117 1.0996-0.80078 1.0996 0.0996 2 0.80078-0.9004 0.69922-2.1992 0.80078-0.70118 0.80078 0.5-0.90039 1.1016 0.19922 1.3984 1 0.20118 0.0996-1.8008 0.90039-1 1-1.9004-0.0996-2-0.69922 0.5h-1.3008l0.90039-1.0996-0.70117-0.5996 0.80078-0.80079 0.30078 1.6016 0.69922-0.70118v-1.6992l-0.30078-1.0996 1.1016 0.89843 0.59961-0.79882h1.5l-0.0996-4h-1.1016v1.4004l-3 2.2988-1 1.5996-1.8984 0.20118-1.8008 0.79882-2.5996 2.8008v0.5996l3.9004-0.5-0.5 0.9004-2.4004 0.19921h-2.2012l0.10156-1 2.0996-2.1992 0.40039-1 3.7988-2.8008 0.40039-2.0996 1.5996-0.40039-1.1992 3.4004 2.5-2.9004 0.79883-0.69921 0.10156-1.5-0.40039-1.4004 1.0996 0.80079 0.40039-2.5996h-1.0996l-0.70117 1.5-0.0996-1.6016 1.0996-0.59961-0.5-0.69921-1.4004 0.19921-0.5 2.5996-0.59961-2.6992h-0.69922l-1 1.5996-0.20117-3-3.1992 0.0996-5.0996-2.5-4.7012-1.8984-7.7988-7.6016-0.90039-0.0996-0.19922 0.59961 0.69922 1.4004-2 2.3008-0.40039 2.6992-0.0996 4 1.4004 2.0996 0.5 2-0.90039 6.1016 0.19922 3.5996 0.30078 4.5996-1.1992 3.0996 1.3984-1.5996 1.7012 1.9004 2.1992 1.1992h-3.1992l-0.59961 1.5996-0.90039-0.5-0.20117-1.5-0.19922 4.2012 1.5 0.40039 1-0.30078 1.0996 2-1.7988-0.4004-1.2012 4.2012 0.5 2.1992-1.0996-2.3008-0.80078 0.20118v2l-0.5-0.5 0.70117-6-2.5 7.5 1.5996 0.29882 0.69922 1.5 2 0.10157 1.2012-0.40039 2.0996 1.5-0.0488-0.49805 1.2559-0.125 1.0586 1.209-0.43554 1.3066 0.21679 0.59766 3.5762-0.0977 3.459 4 0.42187 4.332-1.0469 5.3359 6.1582 3.9199 5.1914-0.66016 1.2266-0.91992h1.5176l1.1777 0.78321 3.0723-0.30664 1.0469 1.1504 1.4062 0.1875 2.6133 1.3652 0.16015 1.4336 1.8438-0.67187 1.6152 1.1113 4.2832-1.2656 1.5644 0.26172 0.78907 1.5781 3.7266 0.35546 0.85547-0.66406 4.6973-0.52344 3.1484 0.38282 1.5859-1.2695 2.0195 1.0098 5.1973 0.86719 2.8184-1.0078 29.967 7.2207 0.95117-3.7188-0.69922-3.9922 12.723-56.199 0.4375 0.0996-23.551-5.4883-31.699-8zm-28.9 54.4-1.0996 1.2988-1.5-0.19921-0.5-1.0996-1-0.0996-0.70117 0.59961-2-1.9004v4.3008l-1.2988 1.2988-1.0996 3.5-0.10156 2.3008-4.5 12.299-13.199 31.301-3.1992 4.5996-1.6016-0.09961 0.10156 2.0996-5.2012 7.0996-0.29883 3.3008 1 1.3008 0.0996 2.3984-1.2012 1.1016-1.1992 3 0.0996 5.6992 1.2012 2.8984 0.13477-0.48047 66.1 18.602 46.49 11.076 8.4004-36.865 2.8965-5.793 0.41211-2.166 0.67773-0.76171-0.6875-1.5234-3.041-1.2598 0.22461-4.6934 4.1777-6.0566 2.5-0.80078 1.4043-2.0176-0.10351-1.6699 1.9219-1.709 3.1836-5.4727 4.0781-4.6602-0.4375-2.791-3.4453-3.0527-1.5449-3.4746-29.914-7.207-2.7832 0.99414-5.6016-0.93359-1.582-0.79102-1.4141 1.1309-3.4492-0.41797-4.3027 0.47852-0.94531 0.73437-4.6738-0.44531-0.81054-1.6191-0.83399-0.14063-4.5195 1.3359-1.584-1.0898-2.5547 0.92968-0.24219-2.168-1.9844-1.0352-1.5938-0.21289-0.95508-1.0488-2.9277 0.29297-1.2226-0.81445h-0.88086l-1.1738 0.8789-5.8086 0.73828-7.041-4.4785 1.1523-5.8633-0.3789-3.8691-2.9414-3.4004-3.8223 0.10351-0.58204-1.6035 0.36329-1.0938-0.3418-0.39063-0.74414 0.0762zm22.199-49.9 0.5 1.4004 0.60156-1.2012zm-1.7988 0.19921-0.90039 0.10157 1.8008 1.5 0.19922-0.60157zm2.9004 1.1016-1 1.3984 0.79883 0.40039-0.40039 1.0996 1.7012-0.5-0.20117-2.1992zm1.5 0.19922 0.19922 2.4004 0.80078-0.40039 0.89844-0.19922-0.69922-1.5zm-3.8008 0.69921-1.4004 0.10157 0.30078 2.6992 1.5996 1.3008 0.59961-1.9004zm3.1992 2.2012-1.0996 0.19921-0.69922 1.4004 0.40039 1.3008 0.5 0.59961 1.2988-0.30079 0.20117-1 1.1992-1.7988-1-0.40039-0.69922 1.5996zm85.414 12.102 0.47461 0.10937-12.678 56.002 0.70117 4.0059-1.084 4.2363 1.4863 3.3418 3.5527 3.1484 0.56445 3.6074-4.3223 4.9395-3.2168 5.5273-1.6777 1.4922 0.0957 1.5312-1.7969 2.582-2.498 0.79883-3.8223 5.543-0.17578 3.7051 2.7578 1.1406 1.1133 2.4766-0.92187 1.0391-0.38868 2.0332-2.9023 5.8086-8.377 36.75 23.906 5.291 23.279 4.6953 47.4 8.1152 8.3418-53.781-0.68164-0.0762-1.6894-4.332-0.95899-1.4375-1.3047 0.43555-2.8984 3.4141-9.1035-1.7188-2.1113 1.2051-6.7598-1.5664-1.748 2.5117-2.8691-2.8691v-4.2734l-0.36523-2.7305-2.1797-1.3262-2.7148-3.6582-2.5508-9.8945 0.50196-3.2129-0.45313-2.2656-1.502-1.502-3.2852 2.1894-3.2383 1.6191-1.748-2.8398-1.6113-0.57617 0.55859-4.5644 7.0879-16.973v-1h-2.9688l-1.4004-2.0996h-0.87891l-2.5527-3.33v-2.1582l-3.7656-8.0137-1.8457-0.67969-3.8457-5.127 1.6172-4.8535-3.6856-7.3711 4.8359-22.17zm14.188 2.998 0.48828 0.10742-4.7637 21.826 3.7148 7.4277-1.584 4.748 3.3555 4.4727 1.9531 0.71875 4.0352 8.5879v2.041l2.0469 2.6699h0.91992l1.4004 2.0996h3.4336v2.2012l-7.1133 17.029-0.44336 3.6348 1.1894 0.42383 1.4531 2.3594 2.3613-1.1816 3.916-2.6094 2.2969 2.2969 0.54687 2.7363-0.49804 3.1856 2.4492 9.5059 2.4844 3.3418 2.4199 1.4746 0.4375 3.2695v3.9258l1.7285 1.7305 1.4531-2.0879 7.0391 1.6328 2.0898-1.1934 8.8965 1.6797 2.7012-3.1856 2.2949-0.76367 1.4414 2.1621 1.5098 3.8691 0.13867 0.0156 2.002-10.713 57.764 7.9648 50.492 5.2461 1.9492-20.189 5.2012-66.699 0.46289 0.0352-53.465-5.5976-54.301-7.6992zm-100.7 4.5-0.19922 1.9004 0.90039 0.79882 0.39844-2.6992zm803 1.6992-6.6992 6.6016-2.7012-1-1-3.9004h-2.6992l-6.9004 19.5 0.70117 6.1992-1.7012 2.4004-0.40039 4.5996 1.3008 3.7012 0.80078 0.19922v1.5996l-1.6016 4.5-1.5 1.4004-1.2988 2.1992-0.40039 7.8008-2.4004-1-1.0156 0.27148 11.904 36.814 0.57227 3.8125 3.1504 1.9688 0.79883 2.1973 2.1504 1.3086-0.25977 0.42773 1.4004-0.30078 1-3-0.80078-2.9004 1.5996-0.90039 0.5-2.7988-0.59961-1.3008 3.3008-1.9004-2.2012-2.2988 0.90039-2.4004 1.4004-2.1992 0.5 3.1992 1.5996-2 1.3008 0.90039 1.1992-0.80078v-1.6992l3.1992-1.3008 0.30078-2.9004 2.5-0.19922 2.6992-3.6992v-0.70117l-0.89844-0.5-0.10156-3.2988 0.60156-1.1016 0.19922 1.6016 1-0.5-0.19922-3.2012-0.90039 0.30078-0.0996 1.1992-1.2012-1.4004 0.90039-1.3984 0.59961 0.0996 1.0996-0.40039 0.5 2.8008 2-0.30078 2.9004 0.69922v-1l-1.0996-1.1992 1.3008 0.0996 0.0996-2.2988 0.59962 0.79884 0.30078 1.9004 2.0996 1.5 0.19922-1 0.90039-0.19922-0.30078-0.80078 0.80078-0.59961-0.0996-1.5996-1.5996-0.20117-2 0.70117 1.3984-1.6016 0.70117-0.79883 1.2988-0.20117 0.40039 1.3008 1.7012 1.5996 0.39846-2.0996 2.3007-1.1992-0.9003-1.3008 0.1-1.6992 1.1015 0.5h0.6992l1.6993-1.4004 0.4004-2.3008 2.2011 0.30079 0.1-0.70118 0.1992-1.5996 0.5 1.4004 1.5-1 2.3008-4.0996-0.1-2.2012-1.4004-2-3-3.1992h-1.9004l-0.8007 2.1992-2.8985-3 0.2989-0.79882v-1.5l-1.5997-4.5-0.8007-0.20118-0.69925 0.40039h-4.8008l-0.29883-3.5996-8.0996-26-7.3008-3.6992zm-9.1992 101.6-0.25977 0.42578-2.4512-1.4902-0.80078-2.2031-3.248-2.0312-0.6289-4.1875-11.662-36.064-0.25 0.8496-1.2988 0.0996-1-1.0996-1.9004 1.4004-0.5 6.0996 0.44336-0.23047 1.2949 2.4824-1.084 3.4531 2.0859 2.7832-0.43554 1.8516 0.10351 1.3652-1.2656 2.418-1.3848 0.39453-0.58008 1.2559-2.1016 1.002-0.53125 1.1367 1.375 3.3379-0.5039 2.5176 0.52539 1.5762-1.0156 1.9297 0.40625 1.9336-1.3184 1.9277 0.19922 2.1894-0.68945 1.0859 0.66015 4.2441 0.73829 1.582-0.5 2.5918 0.88671 1.7734-0.21679 2.7109-0.49805 1.2969-0.082 1.1309 1.7852 2.207 17.9-3.6953 0.82812-1.2422 0.33399-1.8945 1.9766-0.625 0.46875-1.0293 2.002-1.2949 1.4746 0.33985zm-24-38.201-26.807 6.7754 0.8418 1.7891-0.54297 1.7227 1.3848 0.89062-0.46679 1.75 0.45898 2.9414 2.2676 2.3691-0.42383 2.334 0.61524 2.0508-0.43555 1.0918-0.28516 3.5938 3.1406 6.7871-0.80469 1.8125 0.42773 1.0449 0.67969-1.207 2.5 1.9746 3.0625 14.488-0.45703 1.8223 0.6875 0.625 11.357-2.4727-1.7148-2.123 0.11914-1.6699 0.50195-1.3027 0.1836-2.2891-0.91407-1.8262 0.50196-2.6074-0.66211-1.418-0.74024-4.7559 0.70899-1.1152-0.19922-2.209 1.2793-1.873-0.39258-1.8672 0.98437-1.8711-0.47461-1.4238 0.4961-2.4805-1.4258-3.4629 0.86914-1.8633 2.0996-0.99805 0.61914-1.3438 1.416-0.40429 0.9336-1.7832-0.0957-1.2344 0.36524-1.5488-2.1152-2.8184 1.1152-3.5469-1.1035-2.1152zm-769.7-60.199-1.1992 1.9004-0.0996 0.79882 0.40039 0.20118 0.5-0.60157 1.0996 0.10157zm-5 4.2988-0.19922 0.80079-0.5 0.40039 0.19922 0.90039 0.70117-0.40039-0.0996-0.59961 0.5-0.30078-0.10156-0.80079zm409.9 9.5 0.0996 8-30.371-0.39257 2.4024 7.3086-1.0781 2.7441 0.75586 1.3223-0.31445 5.3398-0.46094 1.0156 2.6328 8.875 1.3281 2.5547 0.70117 14.031 1.0117 2.7285-0.40039 5.7949 2.8887 7.3711 0.30664 5.9062-0.10156 2.123-0.10547 2.2969-1.002 2.2266-3.0566 1.875-0.19727 0.78321 1.6289 2.3945 0.35156 1.5859 2.4648 0.56836 1.7168 2.1758-0.19922 39.172h27.691l36.291-0.90039 17.984-0.67578-0.96484-3.9473-0.19336-2.8984-2.0059-2.7363-2.7148-0.67969-5.4453-3.7695-0.5918-3.2559-6.3066-3.1035-0.17382-1.1328h-3.1035l-2.3027-2.7207-2.2051-1.4336 0.7207-5.248-0.89258-1.5879 0.52344-5.6602 0.97266-1.7539-0.26368-2.377-0.97265-1.0547-2.0488-0.34179v-2.2363l2.9102-6.0274 5.7812-3.8223-0.41602-13.518 1.3438 0.59766 0.20117-0.16797 0.10352-1.1328 1.4141-0.94141 1.5156 1.2988 0.29102-0.041-0.94336-1.7324 4.2988-3.0996 3.0996-3.7012 1.6016-0.79883 4.6992-5.9004 6.3008-5.8008 3.8984-2.0996 6.3008-2.6992 7.5996-4.5-0.59961-0.40039-3.6992 0.69921-2.8008 0.10157-1-1.6016-1.4004-0.89843-9.7988 1.1992-1-2.8008-1.6016-0.0996-1.6992 0.80079-3.6992 3.0996h-4.1016l-2.0996-1-0.29883-1.6992-3.9004-0.80078-0.59961-1.5996-0.70117-1.3008-1 0.9004-2.5996 0.0996-9.9004-5.5h-2.9004l-0.79883-0.69922-3.0996 1.2988-0.80078 1.3008-3.3008 0.80078-1.2988-0.20118v-1.6992l-0.70117-0.90039h-5.8984l-0.40039-1.4004h-2.5996l-1.1016 0.4004-2.3984-1.6992 0.29883-1.4004-0.59961-2.4004-0.69922-1.0996-0.20117-3-1-3.0996-2.0996-1.6016zm-130.1 2.6387-5.1602 66.201 38.691 2.8613 45.986 2.0996 29.008 0.39453 0.0762-1.5938-0.29492-5.6934-2.9121-7.4297 0.40039-5.8047-0.98828-2.6719-0.69922-13.967-1.2715-2.4453-2.7656-9.3262 0.53711-1.1856 0.28711-4.8574-0.8457-1.4805 1.1211-2.8555-2.3438-7.127 0.47656-0.15625-55.301-1.6016zm230.1 18.562-2.2988 0.19921-2.7012 1.9004-7.0996 5.3008 0.80078 1 1.7988 0.29882 2.8008-2-1.0996-0.5 2.2988-1.5996h1l3-1.9004-0.0996-0.90039zm11.701 14.6-4.5 0.19921-2 0.5-2.6016 1.2012-1.1992 1.1992-1.6992 2.2012-1.8008 1-3.3008 3.3984-0.39844 1.6016-7.4004 4.5996-4 0.5-1.8008 0.40039-2.2988 3-1.8008 0.69922-3.8008 1.9863 1.6055 0.59375 2.9785 3.7715 16.926 3.7832 1.3945 0.99609 4 0.80078 0.64062 0.45703 2.6777-0.1914 5.127 0.83593 1.8457 1.9785-0.98828 0.98828 0.33789 0.33594 3.7988 0.70117 1.4531 1.4512 0.10547 4.7168-1.0352 2.2324 1.0684 0.0527 1.1816-0.94335 1.4668 1.3027-1.1309 3.1894 0.76563 1.2246 1.0039 0.25195-0.1211 0.48438 0.79883-1.8008 2.9004-4.5996 1.5996-6 2.3008-2-0.5-1.5996 0.5-0.90039 1 1.5996-0.30078 2.2012 2.9004-2.2012 0.19922-2.2988 2.1016 0.59961 0.79883-1.5996 0.70117 0.59961-0.70117 1.5-1 0.5-1 2 1.4004 1.8008 1.0996-0.5-0.5-0.70117 1-1.5 1.9004-1.6992h0.80078l0.19922-2.5996 2-1.8008 7.9004-0.5 1.9004-3.0996 3.7988-0.30078 3.8008 1.2012 4.1992 2.6992 0.70117-0.19922-0.20117-3.5 0.70117-0.20117 4.5 1.0996 1.5-0.19922 2.8984-0.69922 1.7012 0.39844 1.7988 0.10156v-1.1016l-0.69922-0.89841-1.5-0.20117-1.0996-0.79883 0.5-1.4004-0.80078-0.30078-2.5996 0.0996-0.0996-1 1.0996-0.79883 0.59961 0.79883 0.5-1.7988-0.69922-0.70117 0.69922-0.19922-1.4004-1.3008 0.30077-1.2988 0.0996-1.9004h-1.2988l-1.5 1-1.9004 0.0996-0.5 1.8008-1.9004 0.19922-0.30078-1.1992-2.1992 0.09962-1 1.1992-0.69922-0.0996-0.20117-0.79883-2.5996 0.39844-0.0996-4.7988 1-2-0.70117-0.09961-1.7988 1.0996h-2.2012l-3.7988 2.6992-6.2012 0.30078-4.0996 0.79883-1.9004 1.5-1.3984 1.3008-2.5 1.6992-0.30079 0.80077-0.59961-1.6992-1.3008-0.60156v0.60156l0.70117 0.69922v1.3008l-1.5-0.60156h-0.60156l-0.29883 1.2012-2-1.9004-1.3008-0.19922-1.2988 1.5-3.2012-0.10156-0.5-1.3984-2-1.9004-1.2988-1.5996v-0.70117l-1.1016-1.4004-2.5996-1.1992-3.2988-0.09961-1.1016-0.90039h-1.3984l-0.70117 0.40039-2.1992 2.1992-0.70117 1.0996-1-0.69922 0.20117-1 0.79883-2.0996 3.2012-5 0.79883-0.20117 1.7012-1.8984 0.69922-1.6016 3-0.59961 0.80078-0.5996-0.0996-1zm6.5 51.5-0.12109 0.48438-1.3965-0.34766-1.2344-1.9766 1.0664-3.0098-0.33203-0.29687-0.81836 0.65625-2.9316-0.14649 1.5645-3.3691-0.0937-4.082-0.94727-0.94922-3.8008-0.69922-1.2637-1.2637 1.0117-1.0117-0.95313-1.0215-4.6738-0.76368-2.9219 0.20899-0.75781-0.54297-4-0.80078-1.4062-1.002-17.074-3.8164-3.0215-3.8301-1.7676-0.65039 0.17188-0.46875-1.9004-0.70117-3.2988-1.9004v1.4004l-2.3008 1.0996-0.40039-0.89844 1.4004-1.6016-0.5-1.5 1.2012-1.3984 0.79883-1.6016-2.1992-1.5996-1 1-0.30078-0.5-1.7988 1.7012-1.8008 0.89844-0.40039-0.79883-0.69922 1.1992h-1.2012l-0.29883 1-6.8008 2.5996h-2.5997l0.0703 0.49609-0.92383 0.13086-1.2852-1.0996-0.38477 0.25586-0.0976 1.0684-0.99805 0.83203-0.45508-0.20312 0.38281 12.484-6.0176 3.9766-2.6914 5.5742v1.1621l1.5508 0.25782 1.4277 1.5469 0.33594 3.0215-1.0254 1.8477-0.47656 5.1406 0.90625 1.6094-0.67969 4.9531 1.7949 1.166 2.0977 2.4805h3.498l0.22461 1.4668 6.293 3.0957 0.60742 3.3438 4.9551 3.4297 2.8867 0.72265 2.3926 3.2617 0.20703 3.1035 1.0898 4.457-0.48438 0.11914 0.49805-0.0391 0.18164 2.377 2.0078 1.5293 0.77344 1.4199-1.666 3.4375-0.0918 2.2969 1.9023 5.2324 2.4707 1.373 3.4707 0.73633 1.2617 2.7148 45.553-2.7774-0.26172-3.502 0.39844-3-1.2988-1.5v-2.6992l-1.0996-0.90039 0.5-1.0996-0.80081-1.6992 0.30078-0.30078-1-1.5 1.5-5 1.0996-4.0996-0.40039-3.7012-0.30078-1.5996 0.90039-3.0996-0.29883-1.9004 2.3984-1.9004-0.0996-1.2988-0.59961-2 0.30078-4.2012 2.7988-7.1992 0.70117-0.5 1.1992-4.5 0.59961-0.0996 0.70117-2.2012-0.5-1.1992 1-0.0996v-2l-1.4004-0.0996-1 0.89844v1.5l-1.8008 1.1016-0.40039 2.0996-0.69922 0.90039-0.80078 3.2988-3.5 1.0996-1.5996 4.2012-2 1.0996-0.5 1.5996-0.79883 0.70117-0.60156-0.70117 0.20117-3.0996 2.4004-3.4004-0.20117-2.2988 2.9004-0.80081zm-46.701-40-0.29883 1.9004 1.1992-0.5 0.0996-1.4004zm341.2 2.3008-0.40039 1.1992-0.5 0.5 0.90039 1.3008 1 0.5 0.29883-1v-1.8008zm-341.8 0.19922-2.1992 0.5-0.20117 0.90039h1.7012l0.59961-0.40039zm345.6 0.5-1 0.80078v1.2988l0.70117-0.79883 0.89844 0.79883 0.40039-0.5 1.0996 0.20117-1-0.80078 0.40039-0.80078zm-346.5 1.5996-1 0.30078-0.19922 0.69922 0.90039-0.0996zm340.7 0.30078-1.6016 2.4004 1.7012 1.6992 0.90039 0.19922 1-1v-1.0996l-1-0.79883-0.20117-1.1016zm4.0996 0.69922-1 1.0996 0.5 0.40039-0.0996 1h1.0996v-1.7988zm-346.4 0.0996-0.5 0.10156-1.5 1.5996 0.19922 0.5 1.5-0.59961v-0.60156l0.90039-0.29883zm269.1 0.30079-20.6 5.1992-2.5-0.0996-2.0996 1.7012-5.9004 6.3984-3.6992 6.3008-0.70117 2.4004-6.1992 6.0996 0.0996 3.0996 2.3008 1.4004h1.5l0.0996 1.8008-2 1.2988 1.1992 0.70117 1.4004 2.6992-0.40039 3.1992-1.0996 0.5-1.9004 0.40039-2.4004 3.0996-2.5 2.6016-2.5996 1.2988h-3l-3.4004 0.70117-1.7988 1.5996-0.90039 0.0996-3.1992-1.5996h-4.4004l-8.2012 1.5996-7.5996 3.9004 0.20117 3.1992 1.7988 3 1.7012 0.5 1.6992 3.3008-0.80078 1.0996-2.2988 2-0.59961 2.4004-3.9004 2.5-0.59961 1.6992-4.3008 3.9004 0.49609-0.0664 0.72852 5.4727 70.178-13.836 2.0312 1.3145 0.34961 1.3144h1.9219l3.0859 5.9668 2.7363 2.0078 1.8926-0.29883 1.7051 1.1719 14.9 5.0019-0.42578 6.2852-0.5-0.0332 0.20117 0.69922 1.5-2.3008 1.5-1.6992 1.2969-3.2988-0.39258 0.30469-1.9746-2.5527 3.4219-3.3242-1.5137-1.2637-2.8144-16.373-0.73047-1.043 0.49805-14.936-1.1484-1.0449 0.54297-2.1777-2.9375-13.91-1.2988-1.0273-1.1211 1.9922-1.373-3.3535 0.79492-1.7871-3.0586-6.6133 0.31445-4.0078 0.36524-0.9082-0.58594-1.9473 0.37695-2.0664-2.1328-2.2305-0.54102-3.459 0.33399-1.25-1.4141-0.90821 0.65625-2.0781-0.71679-1.5234zm11.5 94.301-0.49805-0.0352 0.37305-5.5137-13.883-4.6601-1.4844 2.0586 0.0977 2.168-2.9024 5.2246 1.4629 1.7539-0.83203 2.377-0.90429 0.90429 0.42382 3.0449 2.6367 0.8789 1.0156 2.8457 1.9648 1.0293 4.7461 3.6172-3.748 2.9531-1.5488 2.2246-1.8809 3.1348-1.6387 0.61524-1.2695 1.543-0.94531 2.0762-0.29102 2.0293-0.49418-0.07027 0.80078 0.90039 0.39844 2.2988 1.2012 0.60156 2.4004 1.5 1.7988 0.79883 1.5996 0.80078 0.10156 1.0996 0.79883 0.0996 1.0996-1.1992 0.80078 0.40039 2.0996 0.19922-0.19922 2.9004 0.19922 2.5 1.8008-0.70117 1.5-3.8984 1.5996-4.8008 2.9004-2.8008 0.59961-3.5-0.59961-1.1992 1.6992-2.9004v-1.1992l-0.69922-1.0996 1.1992-2.7012-0.29883-3.5996-0.60156-8.1992-1.1992-1.4004v1.4004l0.5 0.59961h-1.0996l-0.59961-0.40039-1.3008-0.19922-0.90039 0.59961-1.1992-1.5996 0.69922-1.7012v-1l1.7012-0.69922zm-19.6 30.199-0.49414-0.0703 0.30859-2.1719 0.8086-1.7773-0.96875-0.36328-1.3496 0.2539-1.3242 0.96875-1.043 1.8262 7.418 26.447 10.404-2.1953-2.0606-7.1172-1.0996 0.5-3.2988-2.6016-0.5-1.6992-1.8008-1-0.19922-3.6992-2.1016-2.2012-1.0996-0.79883-1.1992-1.1016zm-151.8-118.9-1.8984 0.0996-0.10156 0.5 1.1016 0.40039-1.6016 0.80078-0.29883 1-0.59961-0.59961-0.40039 0.79883 1.2988 1.2012 3.8008 0.0996 0.59961-0.5-0.19922-2zm-15.799 6.5996v0.90039l0.79883-0.19922v-0.5zm1.5 1.4004-0.40039 0.30078 0.90039 0.40039 1.0996 1.0996 1.5996-0.0996-0.0996-1.1016-1.5996-0.19922-0.59961-0.40039zm-3.7012 1.0996 0.5 1-2.6992-0.0996 0.0996 0.59961 0.59961 0.60156-2.5 2.0996 0.10156 1.7988 1.5 2.3008 1.5 0.19922v0.60156l-1.5 0.5-2.1016-0.10156-2.7988 2.5 0.0996 2.5 0.40039 5.8008-2.2012 3.4004 0.80078-4.5-0.80078-0.59961-0.89844 5.2988-1-2.2988 0.5-2.3008-0.5-1 0.59961-1.3008-0.59961-1.0996 1-1v-1.1992l-1.3008 0.5996-1.3008 3.0996-0.69922 0.70117-1.3008 2.3984-1.6992-0.19922-0.0996 1.1992h-1.5996l0.19922 1.5 0.19922 2-3 1.2012 0.10156 1.2988 1 1.7012-0.10156 5.1992-1.2988 4.4004-1.7012 2.5 1.2012 1.4004 0.79883 3.5-1 2.5-0.19923 2.0996 1.6992 3.4004 2.5 4.9004 1.2012 1.8984 1.5996 6.9004-0.0996 8.8008-0.90039 3.9004-2 3.1992-0.90039 3.6992-2 3-0.51172 0.42578 32.174-3.377 0.0977 1.3711 20.859-3.4121 0.082 0.49219 0.5-1.1992 3.8984-5.9004v-4.2988l0.80076-2.1016 2.1992-0.79883 2-7.8008 1-0.5 1 0.59961-0.19922 0.60156-1.0996 0.79883 0.29883 0.90039 0.80078 0.40039 1.9004-1.4004 0.40039-9.8008-1.6016-2.2988-1.1992-3.7012v-2.5l-2.3008-4.3984v-1.8008l-1.1992-3.3008-2.3008-3-2.8984-1-4.8008 3-2.5 4.6016-0.19922 0.89844-3 3.5-1.5-0.19922-2.9004-2.8008-0.0996-3.3984 1.5-1.9004 2-0.20117 1.1992-1.6992 0.19922-4 0.80078-0.80078 1.0996-0.0996 0.90039-1.6992-0.19922-9.5996-0.30078-1.3008-1.1992-1.1992-1.7012-1-0.0996-1.8008 0.69922-0.59961 1.8008 0.79883-0.30078-1.6992-1.8984-2.6992-0.70117-1.6016-1.0996-1.0996h-2.1992l-8.1016-2.9004-1.3984-1.6992-3.1016-0.30078-1.1992 0.30078-4.4004-2.3008zm32.102 86 0.0801 0.49414-20.93 3.4238 6.5098 56.424 0.94336 0.36328 2.0059 0.0918 1.9883-0.83789 3.2363 1.3398 2.3652 3.6543v0.72657l3.6211 0.61718 2.4824-0.21484 1.9355 2.1387 1.4609 0.13281v-0.78515l2.3633-0.99414 3.2461 0.86523 1.0176 0.67774 1.1465-0.61719h0.67187l0.54883-1.5488 3.9824-2.1094 0.78516 1.2559 0.7539 2.7305 3.4316 1.373 1.0644 1.8613 2.8828-1.2617h1.1602l0.3789-3.3184 1.3496-0.71875-1.252-3.4648 1.1934-1.4102 0.28906-2.123 1.207-2.7754 2.2852 0.71289 0.50976 1.7812 0.37305-0.1875 0.7461-0.85351 0.76562-0.15235v-1.248l-1.8301-1.4375 1.4141-0.70703-0.0918-1.9238 1.5215-2.5742h1.1953l0.23242-0.93164 1.9102-2.293 1.3438 1.2402 1.6055-1.5156h0.57617l1.6191-1.7988 2.0566-3.3926 1.002-0.45508 0.32422-1.7891-0.50977-1.123 1.0312-3.7129 0.10156-5.4121 1.0742-3.3223-0.58008-1.9316 0.0957-2.1211-1.6113-2.418 2.3691-1.293-4.8144-29.375-8.8359 4.8457-3.7988 3.0996-4.9004 5.9004-5.2012 0.29883-3.5996 2.0996-2.5 1.7012-1.5 0.0996-2.1992-1.5-2.4004 0.40039-1.5996 1.5-1.9004-0.80078 2-1.0996 3.0996-0.5 0.0996-1h-1.5l-1.2988-0.80078-1 1.5h-1l-0.70117-0.89844-2.0996-0.60156-3-1.2988-1.9004 0.40039zm-43.201-84.199-0.0996 1.0996-0.30078 0.70117 0.20117 2.1992 0.40039 0.30078 0.69922 0.0996 0.49999-0.90038 0.0996-1.5996-0.29883-0.59961-0.10156-1.1016zm-283.85 0.0332-1.9531 20.211h2e-3l-3.8555 43.393 50.584 3.4648 38.18 1.6074 3.416 3.2129 1.7012 0.20117 2.0644 1.9648 1.377-0.0762 1.8965-2.1055 1.5723 0.62891 1.0684-0.74805 0.75586 0.53906 0.86914-0.38672 0.70118 0.40039 0.88281-0.39257 1.0039 0.50195 1.3535-0.58008 2.3711 0.71094 0.60743 1.1133 6.0371 2.1777 1.3535 1.4668 0.85938 2.4805 1.4629 0.56836 0.73047-0.0957-0.46875-1.1387-0.27539-1.1894-1.4004-1.293 1.0723-4.6055 1.6523-4.9609-0.56054-1.5996-1.3281-0.40821-0.56445-2.2637 1.1094-0.55469 0.0547-0.61132-1.293-1.4922 0.14258-2.2949 2.1699 0.0977 0.19727-38.805-1.2832-1.625-2.7344-0.63086-0.44922-2.0137-1.7715-2.6055 0.40429-1.6172 3.1426-1.9258 0.79688-1.7715 0.0723-1.5898-28.992-0.3926-46.014-2.1016zm-110.35 7.5274-1.9102 10.217-8.5 54.797-3.2246 21.406 31.604 4.7246 44.881 5.6973 36.988 3.3555 3.6602-43.699 0.33204 0.0273-0.33204-0.0293 3.8574-43.41-50.52-5.25zm375.5 1.8398-2 0.29883-0.40039 1.3008 1.3008 1.6992zm11.299 4.7988v1l2.1016 1.6016-0.20117-2.4004zm-0.69922 2.8008 0.0996 1h1v-0.90039zm247.6 2.6016-0.11133 0.48633-1.0938-0.25391-1.4004 0.90625-0.53125 1.1699-1.8223 0.57617-0.26562 1.5039-1.1719 1.7578-18.602 3.8418-12.016 2.6172-0.48047 14.443 0.41015 0.58789 10.498-2.4004 0.47852 0.67188 0.20703-0.0703v-0.73828l15.732-3.5898 0.0879 0.26562 6.5293-2.0078 0.73437 2.7305h0.79883l0.64063 2.3535 2.4551 1.2266 1.4297 1.209 1.2461 2.6738 0.14648-0.36328 1.0996 0.20117 1.2012-1.0996-0.40039-1.2012 0.29883-1.0996h1.2012l1-1.1992 0.0996-1.3008 0.90039 0.0996 0.29883 1.3008 0.5 0.59961-0.5 1.9004-3.2988 3.2988h1.1992l2-1.8984 2-2.1016 2.2012-1.1992 0.0996-1.1992 1.5996-1 0.90039 0.29883 3.5-2.2988 0.69922 1v1.7988l1-2.7988-1.1992-3.3008-1.3008-2.6992-2.2988-2.1016-1.8008-0.39844-1.3008 1.0996 1.2012 1 0.40039-0.90039h0.79883l1.5 3.5996 0.30078-0.90039 1.1992 2.1016-1.0996 0.29883-1.5996 1.2012-0.80078 0.89844-1.9004 0.10156h-1.8984l-1-0.70117-0.60156-2-0.79883-1.0996-1.8008-0.0996-0.19922-2.5996-2.5-2.6016h-1.8008l-1.0996-0.59961-0.30078 0.80078-0.89844 0.19922-0.60156-1 0.80078-0.69922-0.90039-1.2012 1.3008-0.29883-0.40039-0.80078 0.90039-1-0.20117-0.79883 3-2.4004v-1.0996l-0.79883-1.3008-1.0996 1.3008-1-0.40039zm-853.3 4.8145-0.89453 2.4844-0.0996 8.4004-4 9.1992 0.0996 1.4004-1.7012 2.4004-6.8984 7.5-0.30078 5.1992 5.5 11.1-0.19922 6.4004-2.3008 3.5996-0.80078 10.701 6.5 12.799 1.1016 3.9004-0.70117 5.5996 5.4004 6.0996 0.90039 0.10156 0.79883-1-0.5-1.3008 1.5-3.8008 1.4004-0.5 1.9004 3-2.8008 1.5 1 1.7012-0.5 1.0996 1.4004 3.4004v4.6992l-3.6992-3.1992v-2.5l0.79883-0.70117 0.10156-1.5996-2.5-0.19922-0.20117 2.0996-1.1992 4.1992v7.5l1.5 3.5 2.5 3.3008h2.5l1 0.90039 0.40039 3.1992-1.8008 3.0996-2.4004 0.80078-0.59961 7.0996 2.9004 2.7012 2 5-0.20117 2.5 1.6016 2.2988 0.39844 3 2.7012 3.7012 4 9.3984 1.4004 1.6016-1.8008 5.0996-0.80078 4.7988-0.19922 2.8008 2.5 2.5 2.8008 0.30078 4.6992 1.5 3.0996 2.2988 3.7012 0.5 2.6992 2.2012 4.5 6.5996 1.5 1.9004 2.8008 1.2988 3.8984 0.59961 2.2012 1.2012 0.69922 3.6992-1.0996 1.8008 2 1.9004 3.5996-0.10156 7 8.6016 0.59961 1.5 1.2012 1.3984 1.7988 4.8008 0.40039 7.9004-0.19922 3 1 3 43.998 5.0996h2e-3l0.0215-0.5 2.0254 0.0918 2.7285-2 0.67578-2.0274-0.74804-1.1934-1.7852-0.19921-1.3438-1.9531 1.1875-7.4453 1.7539-0.32813 2.2207-2.9609 1.5957-6.9844 2.543-3.8164 4.8516-1.7168 1.0274-1.0293-0.31446-1.5-2.3008-2.5-1.2051-5.8223-1.375-1.7676-1.3984-3.6582 0.87304-2.0352-70.289-104.84-1.1641-3.7051 16.312-62.766-65.629-18.467zm109.6 239.58-1.998 1.8008-0.5 2.8984 64.199 37.5 36.805 5.3281 17.332-123.61-39.518-5.9258-45.721-8.1152-3.332 17.143-2.6309 3.1777h-2.5606l-1.2461-2.8047-3.3789-1.2793-2.9805 0.51172-0.9668 13.166 0.50196 4.9238-0.52344 3.0332-1.4277 3.0606-0.81445 1.9004 1.2012 3.1406 1.4258 1.834 1.1953 5.7773 2.3008 2.5 0.48242 2.2988-1.5703 1.5723-4.75 1.6816-2.2578 3.3848-1.6016 7.0137-2.582 3.4414-1.4434 0.27148-1.0137 6.3535 0.85742 1.248 1.8125 0.20117 1.2539 2.0059-0.92578 2.7734-3.2695 2.3984-2.377-0.10742zm739.45-223.37-5.5469 1.707 3.1191 11.986-0.4043 1.1094 0.32813 1.4785 5.1523-3.3125 0.0996-3-0.79883-0.79883 0.39844-0.60156-0.0996-1.2988-0.90039-0.70117 1.2012-0.39844-0.90039-1.6016 1.8008 0.70117 0.29883 1.4004 0.70117 1.1992-1.4004-0.80078 1.0996 1.7012-0.30078 1.1992-0.59961-1.0996v2.5l0.59961-0.90039 0.40039 0.90039 1.3008-1.5-0.20117-2.5 1.4004 3.0996 0.99805-0.89844-0.45118 0.21094-1.3535-2.9004-1.1699-0.99219-2.7461-1.373-0.55859-2.0469h-0.80078zm-6.5918 1.6602-14.061 3.207v0.66211l-1.5918 0.53125-0.52148-0.73047-9.7129 2.2207 2.6894 15.652 2.084 1.7383-3.5781 3.4746 1.416 1.832 5.0156-4.1797 1.6992-1.2988h0.80078l2.4004-3.0996 1.4004 0.0996 2.8984-1.0996h2.1016l5.2988-2.7012 2.8008-0.90039 1-1 0.94727 0.3164-0.36719-1.6504 0.39648-1.0898zm-776 1.3086-16.242 62.488 1.0352 3.293 69.867 104.21 0.99609-2.1367 0.47851-2.7676-0.49804-4.875 1.0312-14.033 4.0195-0.68946 4.0234 1.5215 1.1523 2.5938h1.4394l2.1699-2.6191 3.375-17.375 20.906-108.51-22.818-4.6035-24.406-5.4023 0.0957-0.4375-0.10352 0.43555zm808.14 3.4004 0.40039 1-1.5 1.5h-2.3008l0.0996 0.80078 0.80078 0.39844h3.4004l0.89844-0.59961 0.10156-1.2988zm-9.0996 0.80078-0.80078 0.19922-1.1992 1-0.60156 2.0996-1 0.80078 1.2012 0.59961 1.0996-1.3008 2.8008-0.69922 1.2988-0.30078-0.5-1.8984-0.59961 0.59961-1.0996-0.20117zm-79.104 8.3281-70.822 13.965-0.83008-6.2246-3.7441 3.0312-0.90039 0.0996-2.7012 3-3.2988 1.6992 0.49219-0.0801 4.9004 29.9 3.1211 19.205 16.904-2.8184v2e-3l60.262-11.756 1.1387-1.9922 1.6777-1.2305 1.8477-0.34766 1.3965 0.52539 1.2578-1.5293 1.5625-0.58593 1.7188-2.8633 1.6523-2.375 2.8516-2.2461-3.6523-2.7852-2.2363-1.1699-0.98437-2.7558-2.7637-0.91993-0.57618-4.1543 1.0957-1.0957 0.56836-1.625-1.5391-1.8457 3.0977-5.5742-0.10156-2.2324 1.6035-2.2266-1.0137-0.69727-1.9102 0.30078-3.2617-2.3926-2.9141-5.6348h-2.0801l-0.44921-1.6836zm-257.96 1.2891-18.123 0.68164-36.309 0.90039h-28.207v-0.47852l-0.0215 0.47852-1.709-0.0781-0.0566 0.90429 1.3047 1.5078-0.14453 1.5879-0.89063 0.44531 0.23438 0.9375 1.2715 0.39258 0.83984 2.3984-1.7461 5.2402-0.92969 3.9941 1.2012 1.1074 0.32422 1.4102 0.67383 1.6348 0.54883 0.98828v2.3438l0.59961 1.6992v1.4004l1.2617 3.5879 2.2324 4.3652 0.19922 3.6894 2.7988 4.998 0.38867 5.9355 1.3398 0.72266-0.21679 3.1445 0.81445 3.3613-0.68555 2.1602 1.6035 3.9238 25.555 0.0977 27.184-1.1992 14.482-0.81055 1.9609 1.5 0.61328 1.6328 0.9707 0.9707 1.1055 0.5918 0.30274-0.30274 0.082-1.9219-0.8086-1.0391 1.2969-1.9414 1.9609-0.6543 0.76562-0.25586 0.79297-0.95117v-2.3789l1.8164-2.5644 0.39062-0.38867 0.0898-3.1465-0.71679-1.1152-0.99219-0.29687-1.3281-1.9316 1.127-4.5039 3.3476-0.89258h2.3633l3.9863-1.709 1.5234-1.9707 0.0996-2.4141 1.1602-1.3691 1.2285-3.0254-0.0879-2.3281-2.5469-3.1836h-1.1973l-1.1856-1.4492 0.19532-1.5703-1.4727-1.4727-2.9824-1.5508 0.69531-0.83398-1.0625-2.2871-3.1289-0.66406-2.9277-1.627-2.0977-5.7676 0.10743-2.7031 1.5332-3.1621-0.42578-0.7793-2.1934-1.6719zm322.86 0.082-0.69922 0.69922 0.0996 1.2012h0.90039l0.5-0.59961zm-6.1992 0.59961-1.3008 0.0996-0.5 1zm-3.9004 2.9004-0.69922 0.90039h-0.70117l-1.0996 0.79883-0.19922 1-2.2012 2.1016-0.40039 0.89844-1.3984 0.90039-7.7012 1.9004 0.20117 0.90039-0.90039 0.69922-2 0.30078-1-0.59961-0.20117 1.0996-1.0996-0.40039 0.0996 1-1.1992-0.0996-1.1992 0.5-0.20117 1.0996h-1l0.20117 1h-0.70117l0.20117 1-1.8008 0.40039-1.5 2.2988-0.19922 2.1016 0.69922 0.59961 1.3008-0.30078 1.0996 0.30078 0.90039-1.3008h1.8984l2.4004-0.90039 5.0996-2.0996-0.5-0.5-1.8984 0.80078-2 0.90039 0.19923-0.80079 2.5996-1.0996 0.80078-1 1.1992 0.0996 4.0996-2.3008v0.70117l-4.1992 3 4.5-2.8008 1.6992-2.1992 1.5-0.0996 4.5-3.1016 3.2012-3.0996 3-2.2988 1-1.2012-1.7012-0.0996-1 1.1992-0.19922 0.70117-0.90039 0.69922-0.79883-1.0996-1.7012 1-0.0996 0.90039-0.90039-0.20117 0.5-0.89844-1.1992-0.70117-0.59961 0.90039 0.89844 0.30078 0.20117 0.5-0.30078 0.5-1.4004 2.5996h-1.8984l0.89844-1.8008 0.90039-0.59961 0.30078-1.6992 1.4004-1.6016 0.89844-0.79883 1.5-0.70117zm-517.14 3.6328-3.6152 43.205 33.088 2.3984-1.4004 22.092 35.49 1.9727 43.688 1.1992h31.494l-3.4316-5.5449-2.1992-3.873 0.28321-1.3203-1.1074-1.1074 0.35352-0.35352-0.46289 0.18945-1.8691-4.5684 0.71289-2.2402-0.78516-3.2383 0.1836-2.6562-1.2598-0.67773-0.41015-6.2637-2.8027-5.002-0.19922-3.7109-2.168-4.2344-1.3398-3.8125v-1.4004l-0.59961-1.6992v-2.2559l-0.27148-0.49024-1.2891 0.17188-2.1367-0.83008-0.9414-2.7188-1.0449-1.1348-6.1641-2.2227-0.59375-1.0859-1.6289-0.48828-1.4453 0.61914-0.9961-0.49805-0.91601 0.40625-0.70118-0.39843-0.92968 0.41211-0.64453-0.46094-0.93165 0.65234-1.4277-0.57031-1.7031 1.8945-2.2227 0.12305-2.1367-2.0352-1.6973-0.19922-3.3848-3.1855-37.82-1.5918zm-162.86 0.24219-20.812 108.02 45.693 8.1094 39.49 5.9238 11.369-87.307-32.109-4.8027 3.3027-21.91zm424.11 11.326-45.559 2.7793 1.9473 1.0117 1.9258 1.9277-0.20312 1.6289 0.61523 0.75195h1.2031l3.0527 3.8164 0.10937 2.8711-1.3691 3.373-1.041 1.2305-0.0996 2.3887-1.877 2.4277-4.4141 1.8926h-2.4375l-2.6504 0.70703-0.875 3.4941 0.87305 1.2695 1.0078 0.30274 1.084 1.6856-0.10938 3.8535-0.61133 0.60938-1.584 2.2363v2.4219l-1.207 1.4492-1.0352 0.34375-1.6367 0.54687-0.70508 1.0566 0.5918 0.76172-0.11719 2.6777-0.75976 0.75976-1.3106 3.4609 1.1582 5.209 2.4258 5.7227 2.1133 1.4434 8.7266 8.5215 0.7793 2.6719-0.58008 1.8379 0.98633 1.7461 3.1426-1.1094 3.2051 0.74805 3.123 1.6719v1.8203l-1.1523 1.0547 0.37109 1.7617-2.8047 7.6113 0.35156 2.1055 7.1875 6.8965 4.8594 1.3164 2.8379 4.3086 0.88672 2.4629 1.7773 1.9883-0.13281 1.7383-0.78125 0.58594v1.5371l1.7188 3.627 1.1973 1.2852h1.9922l-0.24609-1.4844 4.4375-4.1035 7.0547 3.0664 1.0098-0.20118 0.30078-1.8144-1.6894-1.791 0.46094-3.7988 1.4629-0.73243 0.97656 0.48829 0.49024-0.98243 3.5781-0.58007 0.0391-0.33789-1.4707-2.1543-0.12891-1.4316 2.2168-2.7207v-0.60743l-1.1914-2.5137h1.2969l0.0957-6.6641 3.8438-5.3613 1.3086-4.2266 1.5684-1.7656 0.26367-2.1016-0.92383-1.9492 0.33789-1.0137v-0.46289l-2.4004-3.5v-2.2031l0.99609-5.1797-4.0938-50.133 0.49805-0.041-1.5996-3.1992-1.2012-4.0996-3.4004-4.5996zm228.39 4.1992-1.5996 0.40039v1l-0.70117 1.5996 0.60156 0.69922 2.3984-2.2988-0.0996-0.90039zm-178.66 6.4512-31.885 3.3457-0.0527-0.49805-1.7012 1.6016-5.0996 2.2988-4.1856-1.248 4.0898 50.076-1.0039 5.2207v1.7969l2.4004 3.5v0.93555l-0.26172 0.78711 0.875 1.8496-0.33594 2.6992-1.6328 1.834-1.291 4.1738-3.7559 5.2402-0.0918 6.375 5.4102-0.58789 0.21875 1.3184 0.36718 0.0684 0.14844-0.33398-0.5918-1.2852 0.58594-1.5644 1.6406 1.0117 1.6426-0.38672 1.8887 0.66601 3.0273 1.8711 1.5957-2.4805 3.9492-2.4824 2.877 3.166 1.1523-1.5137 0.3125-2.8066 4.6504-2.8144 0.27734 1.8125 1.5703 0.99218 2.7207-0.18164 0.85937-0.5 0.0957-3.2676 2.6113-3.8652 4.4707-4.2773-0.0918-1.5606 1.3984-4.4258 2.459 1.1172 6.1816-4.1524-0.29882-1.2656-1.6211-2.2715 1.0723-2.0371-6.584-57.045 0.4961-0.0586-0.49805 0.0371zm-397.11 12.906-11.371 87.309 52.094 6.4355 51.693 4.8008 15.99 0.96875 4.7637-66.504 1.3691-21.605-32.605-2.3633 0.0352-0.49414-0.0449 0.49414-37.508-3.4024zm470.69 2.6191-1.1016 0.59961 1.1894 1.7832-0.10351 2.2773 0.61914 2.0684-1.125 3.4785-0.0996 5.3887-0.96875 3.4863 0.49023 1.0762-0.47461 2.6113-1.1973 0.54493-1.9453 3.209-1.9805 2.1992h-0.62305l-1.9961 1.8848-1.2559-1.1602-1.0898 1.3086-0.36719 1.4668h-1.4062l-1.0781 1.8262 0.10937 2.2754-0.58789 0.29297 0.97266 0.76367v2.5527l-1.2363 0.24609-0.65234 0.74609-1.627 0.81446-0.69141-2.4199-0.91406-0.28516-0.79297 1.8242-0.31055 2.2754-1.0078 1.1914 1.3496 3.7344-1.6504 0.88086-0.42188 3.6816h-1.8398l-2.834 1.2383-0.0586 0.64453 0.61133 1.0176-0.58399 3.5 1.7285 1.457 0.77539 1.0664 1.1875 0.71289-0.11133 1.0156 4.123 5.248h1.3906l1.5449 1.8535 0.96484 0.24218 1.3203-0.0957 0.0352 0.49805h2e-3l0.32422-0.37891 1.0371 0.88867-0.72461 1.084 1.2422 0.58008 0.0996 1.5137 4.0332 2.1094 1.9785-0.0859 1.6973-1.6074 0.99414-2.1152 3.2539 1.9512 5.1074-2.2285 0.1875-0.3379-0.75976-0.4746 1.0058-2.3457 1.7109 1.1406 4.4492-3.207 0.67188 1.0566 1.6738-1.4551-0.0957-1.3438 1.3125-1.6621-1.377-1.1016 1.1152-3.6816 3.6328-6.1836-0.41406-1.9688 2.0879-2.1875-0.39453-1.4766 1.4531-1.7656 0.10937-5.1855 3.0996 0.94336 1.2812 1.8711 2.3027 0.41211 1.0488-1.2891 2.4258-8.9668 2.459 1.127 0.84961-2.123 0.95312-0.84766 1.4004-1.8008 0.81641-0.72461 0.50977-2.1387 1.1308-0.75391-0.0937-2.7148 0.75585-2.1758-0.88281-1.5703 0.38281-1.7207 9.998 5.1973 0.36133-1.668 0.41992-1.6738 0.16016-0.2793-0.73438-0.32617 0.20313-1.6172-0.88086-0.4414-0.1582-0.54883h-0.58985l-1.0625-1.5938 0.0996-0.50195-2.0957 0.32226-2.1875-1.5898-0.97852 0.20898-0.93359 1.4551h-1.2871l-1.6797 2.8652-3.7012 0.44922-1.6445-0.86523-2.5234 3.6875-2.2227-0.30273-2.8984 3.6465-0.92188 1.6367-2.5527 2.2695-1.7617-11.811-17.393 2.8984zm81.123 4.8008-59.578 11.621 1.4922 10.014 1.0488-0.92969 0.87695-1.5625 3.3027-4.1543 2.1758 0.29687 2.6777-3.9121 2.1562 1.1348 2.8984-0.35157 1.7207-2.9336h1.3125l0.86524-1.3457 1.8223-0.39063 2.2129 1.6113 3.1035-0.47851-0.30078 1.498 0.53711 0.80469h0.81054l0.24219 0.85156 1.1191 0.56055-0.19726 1.582 0.5039 0.22461 1.4727 0.27734 1.0488-0.11718 1.0586 0.95312 1.4746 0.24414v1.4902l-0.55078 0.73632 0.0644 0.22461 0.36719 0.14649 0.64258 0.64258 0.90625 0.0762 0.86523-0.32422 2.2793 0.80469-0.13281 0.66211 0.0976 0.0976 0.40235 0.0684h1.166l0.28907 0.28906 0.94531-1.6074 3.4434 2.3828-1.916 2.9297-0.41601 1.8691-1.2402 1.1172-0.31445 0.0312 0.41797 0.59766-0.51758 0.68945-0.39844-0.29883 0.29883 0.5-0.79883 2.0996 0.39844 2.2988 1.1016 0.80078 1.5996-1.3008 0.79883-0.69922 0.60156 0.19922 1 1.3008 1 1 1.6992 0.80078 0.40039-0.20117 1.1992 0.30078 1-0.5 1.4004 0.29883 1.6992 1.4004 1.2012 0.20117 0.40039-0.20117 1.5 1.2012h0.69932v-1l-0.40039-1.4004-1.5996-2-0.40039-2.8008-1.5996-1.4004-1.3008-1.3984-0.69922-3.4004-0.90039-1.0996 0.5-1.3008v-2.0996l0.5-1.3008-0.5-0.29883 1.0996-1-0.89844-1.2012 0.19922-0.69922-1.3008-1.3008-1.2988-0.59961 1.7988-0.5 0.60156-2.1992 0.69922-0.90039 0.90039 0.40039 2.5996-3.6016-1-1.2988 0.80078-1.0996 1.5-0.40039-0.20117 2.0996 0.30078 0.69922-0.5 0.60156 0.5 0.79883-1.4004 0.20117-1.0996 1.3984-1.0996 2.4004 0.19922 1.7012 0.90039 2.0996 1-1 0.40039 1.6992-1.2012 0.70117-0.90039-0.90039-0.89844 1-0.20117 2.4004 0.59961 1 1-1.4004 0.90039-1.0996 1 0.89844-0.0996 1.6016-0.80078-0.70117-1 1-0.0996 3.4004 0.59961-0.30078 0.40039-1.0996 1.3008 0.0996 0.0996 0.70117 1.4004 0.59961-1.7012 0.30078-0.59961 1v0.89844l1 0.60156-1.5 0.79883 1.4004 1.7012 1 1.0996 0.19922 1.1992 2 1 1.1016-0.5 0.69921-0.5996-0.5-0.80078 0.69922-1.5996 0.80078 0.59961-0.40039 1.3008 0.70117 0.80078 1.8984 0.39844-1.1992 0.30078v2l1.5996-1-0.19922 1.5 0.79883 0.5-0.39844 0.69922 0.29883 2.5 1.3008-0.59961 0.40039-0.90039 1.2988-0.19922-0.375-0.33008 0.78711-0.89844 4.7246-1.6445 0.16406 0.47266 0.29883-1.0996 0.80078-1.4004 0.19922-2.0996 0.70117-0.90039 0.59961 0.59961-0.0996 2.5-0.80859 1.4824 0.20898 0.41797 1-1.7988 0.0996-3.1016v-4.7891l-11.256 2.375zm10.557 37.322-0.40039 0.90039 0.70117 0.29883-0.20117 1.9004-0.5-0.5-1.2988 1 1 0.40039-1.8008 4.4004 0.0996 8.0996 1.9004 3.0996 0.5-1.5 0.40039-2.6992-0.30078-2.3008 0.70117-0.90039-0.20117-1.3984 1.2012-0.60156-0.59961-0.5 0.5-0.69922 0.79883 1.0996-0.19922 1.0996-0.40039 3.9004 1.0996-2.1992 0.40039-3.0996 0.0996-3-0.29883-2 0.59961-2.3008 1.0996-1.8008 0.0996-2.1992 0.0996-0.30078-4.1094 1.4297-0.61328 0.70117zm-39.898-22.703-2e-3 4e-3h2e-3zm-236.46 0.11328-14.119 0.78906-27.215 1.2012-24.699-0.0957 0.63476 0.63476-0.3164 1.4785 2 3.5273 3.8711 6.248 2.7676 2.8652 1.5723 0.47071 1.1055-1.2266 1.9688 2.7559-0.13281 1.5703-2.7246 2.625-0.41015 1.8848 2.3574 2.3574 2.5234 4.5645 3.3672 0.73633 0.50586 48.498 0.18945 10.295 38.592-0.68945 40.082-2.0137 1.8359 2.8672v2.5723l-1.8047 1.5918-2.3164 4.2188 10-0.7168 0.95703-1.9102 1.0644-0.44336v-0.14649l-1.0918-1-1.1602-1.9355 2.4902 0.29296 0.24414-0.21289-1.5684-1.6797 1.8203-0.64844 0.0508-0.52149-0.58594-0.97656v-1.2305l-0.74219-0.74414 0.33203-1.6641h1.7168l1.0586 1.0586-0.29296 0.97657 0.16406 0.14453 0.42187-0.5293 1.1895-3.207 1.668 1.0723 0.26172-0.14843 1.0606-3.623-1.0449-1.0449 1.1328-2.2676 0.10938-0.49219-0.875-0.53906h-2.877l-1.6016-1.7148-1.8809-3.9727v-2.2617l0.81836-0.61523 0.0664-0.86133-1.623-1.8125-0.91211-2.5371-2.5625-3.8906-4.7422-1.2852-7.6113-7.3027-0.44921-2.6953 2.7969-7.5879-0.42969-2.0391 1.248-1.1445v-0.7793l-2.4785-1.3281-2.793-0.65235-3.6582 1.291-1.6133-2.8535 0.62109-1.9629-0.62109-2.1289-8.4746-8.2773-2.2852-1.5566-2.5762-6.0781-1.2422-5.5898 1.2969-3.4297-1.1758-0.62695-1.2305-1.2305-0.58789-1.5664zm225.5 0.0352-0.0176 0.0762 0.91601 1.6289-0.84375 2.4258 0.10743 3.0859-1.2695 0.8457-0.49023 2.0606-0.98437 0.875-1.4004 1.8008-0.8457 0.75195-1.1504 2.877-2.3418-1.0723-2.1719 8.0312-1.5527 1.9121-3.2969-0.58789-1.3203-1.9297-1.5-0.45703-0.0899 4.2148-1.3476 1.6348 0.40625 1.5234-2.1113 2.2129 0.38672 1.8301-3.7695 6.416-0.88477 2.9199 1.625 1.2988-1.6875 2.1367 0.10352 1.457-2.9277 2.5449-0.72656-1.1426-4.1504 2.9922-1.2891-0.85937-0.19532 0.45312 0.83985 0.52539-0.8125 1.4629-5.8906 2.5703-2.748-1.6465-0.60352 1.2832-2.1055 1.9941-2.6191 0.11328-4.7676-2.4922-0.0996-1.4844-1.7598-0.82227 0.25195-0.37891-4.0039 5.3945-2.9375 1.0137-2.8086 2.8066-0.41016 2.2656-2.0684 1.2812-0.0977 1.6309-1.627 1.627-1.6504 0.45898-0.49024 1.8652-1.1953 0.47852-4.9219 2.9961 26.279-3.002 0.19922-1.002 5.8164-0.63086-0.29493 0.6914 28.523-3.3965 39.377-7.2969 28.967-6.0703-0.36914-0.73828 0.40039-0.0996 0.89844 0.89844-0.0996-1.3984-0.29883-1.9004 1.5996 1.1992 0.90039 2.0996v-1.2988l-3.4004-5.5v-1.2012l-0.70117-0.79883-1.2988 0.69922 0.5 1.4004h-0.80078l-0.40039-1-0.59961 0.90039-0.90039-1.0996-2.0996-0.10156-0.19922 0.70117 1.5 2.0996-1.4004-0.69922-0.5-1-0.40039 0.79883-0.79883 0.0996-1.5 1.7012 0.29883-1.5996v-1.4004l-1.5-0.70117-1.7988-0.5-0.20108-1.6993-0.59961-1.3008-0.59961 1.1016-1.7012-1-2 0.29883 0.20117-0.90039 1.5-0.19922 0.90039 0.5 1.6992-0.80078 0.90039 0.40039 0.5 1v0.70117l1.9004 0.39844 0.29883 0.90039 0.90039 0.40039 0.90039 1.1992 1.4004-1.5996h0.59961l-0.0996-2.0996-1.3008 1-0.59961-0.90039 1.5-0.19922-1.2012-0.90039-1.1992 0.59961-0.0996-1.6992-1.7012 0.19922-2.1992-1.0996-1.8008-2.1992 3.6016 2.1992 0.89844 0.30078 1.7012-0.80078-1.7012-0.90039 0.60156-0.59961-1-0.5 0.79883-0.19922-0.29883-0.90039 1.0996 0.90039 0.40039-0.80078 0.39844 1.3008 1.2012 0.79883 0.59961-0.5-0.5-0.59961-0.0996-2.5-1.0996-0.0996-1.6016-0.80078 0.90039-1.0996-2-0.0996-0.40039-0.5-1.3984 0.59961-1.4004-0.80078-0.5-1.1992-2.0996-1.1992-2.1016-1.8008-2.1992-1.9004 3 1.3008 0.90039 1.1992 2.0996 0.70117 2.3008 2.5 0.19922-1.7012 0.59961 1.3008 2.3008 0.5v-4l-0.80078-1.0996 1.0996 0.39844 0.10156-1.5996-3.1016-1.4004-1.5996-0.19922-1.2988-0.19922 0.29883-1.2012-1.5-0.29883-0.0996-0.60158h-1.8008l-0.19922 0.80078-0.69922-1h-2.7012l-1-0.40039-0.19922-1-1.2012-0.59961-0.39844-1.5-0.60156-0.40039-0.69922 1.0996-0.90039 0.20117-0.90039 0.69922h-1.5l-0.89844-1.2988 0.39844-3.1016 0.5-2.3984 0.2168 0.17969 0.0664-0.0899-0.98242-1.4023 1.6875-0.16992 0.75977-0.68359 0.33203-1.4922-0.19922-0.49414 0.0996-0.49414-0.19141-0.44727-0.41992-0.34961-0.39453-0.0996-0.58594-0.46679 0.3125-0.39063-0.35351 0.35352-0.45313-0.45313h-0.83594l-0.79883-0.13476-0.70117-0.70118 0.0664-0.33789-1.1191-0.39453-0.73438 0.27539-1.4941-0.125-0.75781-0.75586-0.63281-0.2539-0.33399-1.1738 0.64844-0.86524v-0.31054l-0.92578-0.1543-0.94141-0.84766-0.75195 0.084-1.3242-0.24805-0.18945 0.33008-0.38086 1.5254-0.63672 2.9316zm54.553 54.254 2.1992 4.3008 0.30078 1.3008 3.3984 5.5 1.8008 2.0996 1.3008 1-1.4004-2.8008-2.2012-3.4004-2.3984-3-2.2012-4.2988zm-30.744-48.781-0.50586 0.86133 0.0762 0.0625 0.40625 0.10156 0.7793 0.64844 0.27734 0.64843 0.72461-1.1055zm-421.19 5.9082-4.7266 65.996 67.174 2.877 61.484 0.10156-0.49023-47.197-3.0332-0.66407-2.6758-4.8359-2.6426-2.6426 0.58985-2.7148 2.6738-2.5762 0.0703-0.82812-1.0332-1.4434-0.69336 0.77148-2.4297-0.72851-2.8437-2.9414h-32.193l-43.715-1.2012zm441.44 6.7734-1.3008 0.90039 0.80078 1.8008 1.6992 0.79883-0.40039-1.5996zm13.398 1.8008-1.0996 2.7988 0.5 1.1016 0.40039-1.1016 0.63477-2.457-0.21094 0.10547zm-12.6 2.1992v1.2969l0.73828-0.0918 0.0625 0.49609v-1.7012zm-146.7 1.1426-1.8125 0.76172-2.3945-0.10743-0.95898-0.36914-0.65039 1.2324 1.3789 1.9297 0.50196 2.1328-7.2188 4.8476-1.9414-0.88281-1.002 3.1758 0.10742 1.8379-4.7285 4.5234-2.3887 3.5352-0.10351 3.5332-1.541 0.89844-3.2793 0.21875-2.2305-1.4082-0.12109-0.78711-2.9492 1.7852-0.28906 2.5938-2.0469 2.6875-3.123-3.4356-3.0508 1.918-2.0059 3.1211-3.7715-2.3301-1.5117-0.53321-1.7578 0.41211-0.95898-0.58984-0.0137 0.0371 0.60742 1.3164-0.65039 1.4648-1.834-0.33203-0.17968-1.082-3.4688 0.37695 0.54297 1.3164-1.0117 1.6855-0.7461-0.54297v0.0937l-2.1836 2.6797 0.0684 0.76758 1.5312 2.2461-0.16211 1.4629-3.8223 0.61914-0.70898 1.418-1.4238-0.71093-0.53516 0.26757-0.33984 2.8008 1.709 1.8086-0.49804 2.9863-1.9902 0.39843-6.7461-2.9336-3.5625 3.2969 0.21875 1.3086 1.4102 0.86719-0.29101 1.3086-0.86719 1.7324 0.95508 0.95508-1.3398 4.5781-1.1387 0.65039-1.1309-0.72852-0.51757 1.3965 22.285-1.4355 0.32032-0.48242-1.3633-3.6348h4.6074l0.67968 0.58203 22.338-1.9766 2.6074-0.80078 17.438-1.002 5.1973-0.80078 20.477-1.3984 5.4844-1.3711 6.8691-4.1816 0.80469-0.32226 0.50976-1.9336 1.9492-0.54101 1.1738-1.1738 0.10352-1.7695 2.1309-1.3184 0.38867-2.1348 3.1934-3.1934 2.8613-0.98633 4.1602-5.6016-0.39453 0.0274-1.4356-0.35938-1.4551-1.7441h-1.4082l-4.6758-5.9531 0.0859-0.78321-0.8125-0.48828-0.82422-1.1328-2.0703-1.7441 0.61718-3.6992-0.58984-0.98242 0.10156-1.1035-1.0371-1.8144-3.5684-1.4277-0.8457-3.0684-0.21484-0.34374-2.8164 1.4902-0.65234 1.8496h-1.1289l-1.4531 0.7832-1.3809-0.91992-2.7559-0.73438-1.4356 0.60352v1.2168l-2.9394-0.26758-1.8652-2.0606-2.1152 0.1836-4.58-0.78124v-1.2754l-2.0352-3.1445zm146.7 0.6582-0.0996 0.59961 0.90039-0.0996v-0.0957l-0.73828 0.0918zm7.4004 14.799-1 2.7012 1.1992-1.3008zm-0.5 15.9 0.10352 0.49023-29.107 6.1016-39.422 7.3027-28.975 3.4492v5.291l-1.8301-0.1211-1.1621 0.9961-2.5566 5.5391-2.7871-1.1797-3.1406 2.2441-0.69532 2.0859-1.9648 1.5703-1.25-1.248-0.0879-1.3242-0.20117-0.0508-3.6641 3.0215-0.61133 3.4648-4.7578 2.4297-0.47851 1.1465-3.4043 2.7676-3.6289 0.50391-4.3281 2.8223-0.79883 4.0938-1.6113 1.1152-1.459-0.0977-1.0859 1.0078-0.084 4.1016 20.748-2.9082 4.418-1.9062 1.2676-0.0976 7.2969-4.2988 23.58-2.2363 0.70312 0.88086-0.17578 1.2305 1.293-1.6152 3.8496 3.5 0.0859 2.2558 19.346-2.75 24.662 17.213-0.28516 0.41016 4-2.2012 3-0.69922h1.6993l1.0996 1.0996 0.80078-2 0.59961-5 1.6992-3.9004 5.4004-6.0996 4.0996-3.5 5.4004-2.3008 2.5-0.39844 1.3008 0.39844 0.69922 1.1016 3.3008-6.6016 3.2988-5.2988-0.69922-0.30078-4.4004 6.8008-0.5-0.80078 2-2.1992-0.40039-1.5-2-0.5 1 1.2988-1.1992 0.10156-1.1992-1.8008-1.2012 2-1.5996 0.19922 1-2.6992 0.69922-1.6992-0.19922-2.9004-2.1992-0.0996 0.89844-0.90039 1.1016 0.29883 2.6992 0.10156 0.80078-0.5h2.2988l2-1.9004 0.20117-3.2012 1.2988-1.3984 1.2012-0.20117 1.2988-1-0.5-3.6992-2.1992-3.8008-2.7012-0.19922-0.89844 1.5996-0.5-1-2.7012 0.19922-1.1992 0.40039-1.9004 1.2012-0.30078-0.40039h-0.89844l-1.8008 1.1992-2.5996 0.5v-1.2988l0.79883-1 1 0.69922h1l1.7012-2.0996 3.6992-1.7012 2-2.1992h2.4004l0.80078 1.3008 1.6992 0.79883-0.5-1.5-0.30078-1.5996-2.7988-3.0996-0.30078-1.4004-0.40039 1-0.89844-1.3008zm-210.11 1.0312-2e-3 0.16992h-0.70313l0.50782 1.0684 0.55468 0.4043 0.18946-0.31446zm-364.67 10.426-17.332 123.61v2e-3l15.205 2.1309 1.4004-10.201 30.029 3.9961-1.748-1.9238 0.37109-3.7207 34.895 3.6504 31.293 2.5586 7.8984-99.26h0.78906l0.54688-9.6465-51.229-4.7559zm582.77 0.043v1l2.5 2.2012-0.19922-1.4004-1.4004-1.5996zm4.1992 2.7012 1.7012 4.1992 0.40039 3.0996v3.7012l-4.6016 3.2988-2.6992 2.5 0.0996 1.4004 3.2012-3.1992 3.0996-2.4004 1.6992-0.40039-0.40039-7.5996-1-3.2012zm-110.4 2.5684-3.5762 0.38867-0.19922 0.99805-29.23 3.3379-5.6113 1.4023-20.523 1.4004-5.2012 0.80079-17.363 0.99804-2.5938 0.79883-22.861 2.0234-0.72071-0.61719h-2.791l1.0352 2.7637-0.8789 1.3184-23.326 1.502-0.98828 1.2363-1.0508-0.91992h-0.31445v0.66016l0.61523 1.0234-0.14843 1.4805-0.98243 0.34961 1.2344 1.3223-1.3555 1.1856-0.91016-0.10743 0.0391 0.0664 1.3086 1.1992v1.252l-1.3359 0.55664-0.84375 1.6875 0.0391 0.23633 1.5976 1.1426-0.76758 1.3438h-1.082l0.66797 0.66797 0.18164 1.459-1.6562 0.23633-0.5039 0.80469-1.6641 0.20703-0.49023 0.49023 0.20898 0.31055 1.127-0.10156 0.86132 1.5508-1.6738 1.3594 0.54687 2.0527-2.3008-0.68945 0.40625 1.1172-0.47852 2.2324-0.82617-0.50781 0.0957 1.4336-0.45899 0.76367 0.99805 0.81836-0.30274 1.5098 0.91993 0.80469-1.1875 1.6973-1.1055-0.46094-0.65625 1.5996 36.139-2.4531 45.682-3.998 22.471-2.8457 0.0957-4.6797 1.7148-1.5918 1.541 0.10351 0.98828-0.68554 0.80273-4.1074 4.8691-3.1758 3.5742-0.49804 2.9941-2.4316 0.52149-1.2539 4.6406-2.3691 0.58984-3.3359 4.3359-3.5781 1.3984 0.34961 0.11133 1.6758 0.35156 0.34961 1.0352-0.82813 0.70507-2.1133 3.8594-2.7578 2.4121 1.0215 2.2422-4.8594 1.6387-1.4043 1.1699 0.0781v-4.666h0.5zm-372.22 5.9609-0.54297 9.5996 52.588 3.2012-1.4043 42.859 2.5039 1.207 2.457 2.9473 1.0781 0.21485 1.1309-1.0254 1.5488 0.51563 1.0586 0.75586 1.1055-1.5059 2.8652 2.1172 0.49414 2.8691 0.8711 0.50781 2.293-0.0996 3.498 1.9004 1.8027-0.0918 1.6211-0.46289 2.127 2.0352 1.8711-2.1504 3.9883 1.2539 1.8418 2.9102 2.7363-0.11914-0.78907 2.3691 1.6055 0.76953 3.0371-2.6328 2.7031 1.7656 1.6934-0.6504 0.1289 1.9375 1.1465 0.81055 2.2754-2.4726 1.8398 1.0723-0.32422 2.168 0.6543 1.1777 0.6543-0.4375 2.7891-4.6855 2.1523 2.3906 1.7109 0.42774 2.2363-0.7461 2.0566 1.8496 1.2031-0.0996 1.2637 1.166 3.0781-0.76953 0.61719-1.752 4.1484-0.33593 1.502 0.65625 5.2754-2.6387 0.66797 1.6699 4.3965-0.25782 0.5586-1.791 2.7754 1.1348 4.5801 3.7852 5.6719 1.6836 0.6875-38.297-4.0918-24.354 0.49219-0.084-0.5 0.01-0.18945-10.309-61.521-0.10156-67.711-2.9004 0.0176-0.39649-0.0254 0.39649zm235.44 9.7695-0.0664 0.33594 0.36328 0.36523h0.42188l0.10742-0.35937-0.34375-0.3418zm-236.85 0.80078-7.9043 99.338-32.305-2.6406-33.906-3.5469-0.22657 2.2773 1.8496 2.0352-0.36914 0.33594 2.3984 1 1.7012 3.7012 1.2988 1.4004-0.19922 1.1992 2.0996 1.8008 3 1.2988 3.2012 4.4004 2.5996 2.3008 0.59961 2.0996 2.9004 1.7988v1.1016l1.9004 1.5996 0.89844 0.0996 2.4004 1.6992 0.70117 1.1016 1.1992 0.19923v1l1.5996 1.5996 0.59961 4.2012 2.6016 4.0996 0.0996 2.4004-0.80078 1.5 0.70117 1.2988-0.20117 1.5996 2.3008 4 0.0996 2 3.4004 3.1016 1 0.0996 1.5996 1.1992-0.19922 0.80078 3.3984 3.4004 2.1016 0.79883 1.2988 0.20117 1.7012 2.2988 3.5996 0.5 2 2.9004h1l1.7988 1.5 2.9004-0.0996 0.0996-1.8008 1.3008-0.59961 0.90039-1.5996 1.0996-0.0996 1.4004-1.2012 1.0996-4.4004 2-3.1992 1.6992-2.8008 3.3008-1.1992 2.1992 0.59961 1.3008-1.9004 4.1992 2.1016h4.6016l2.5996 1.0996h2.1992l1.3008-1.0996 0.69922 0.59961h0.80078l2.0996 2.7988 0.80078 0.20117v0.69922l1.1992 0.40039 0.0996 1.8008 3.3008 1.6992v1.0996l5.0996 4.8008 1.8008 3.0996 0.0996 1.6992 2.6992 4.9004-0.0996 2.0996 2 2.2012-0.0996 0.69922 1.4004 1.5-0.5 0.70117-0.20117 1.5996 1 0.69922 0.20117 2.0996 2.8984 2.5 2 1.6016 0.90039 2.3984 0.80078 0.20117 0.79883 1.6992-0.0996 1.9004 4 3.5h1.0996l1.7012 1.4004 0.79883 3.1992-0.69922 3 1.3008 1.4004 0.29883 2.1992-0.59961 2.6016 1.4004 0.59961v1.5996l1.6992 1.4004 1.0996 1.6992 0.90039 4.7012 1.4004 1.7988v1.3008l5.4004 1.5996 3.1992 2.5996 2.0996-0.0996 1.7012 1 3.5996 3 2.8008 0.80078h7.0996l2.2988 0.59961 3.4004 3.6992 1.4004 0.20117 0.90039 0.29883-0.20117-1.4004 1.6016-1.3984 2.1992 0.19922 0.0996-0.69922-2.1992-2.6016-1.0996-2.0996v-2.5996l-0.80078-1.6992-1.0996-0.40039-0.40039-1.5 1-0.40039 0.40039-2.1992-0.59961-3.1016-1.6016-1.3984v-3.1016l1.3008-0.89844-0.30078-1.4004-0.19922-1.2012 1.0996 0.10156 0.40039-3.2012-1.9004 0.59961-1.7988-0.59961 2.8984-0.40039 1.4004-1 1-1.6992 0.30078-2.8008 1.7988-3.5-1-0.79883-1.2988-0.80078-0.30078-1.4004 1.8008-1.0996 1.5996 0.59961 1.5996-0.69922 1.8008-3.3008 0.40039-1.6992 0.79883-0.69922 1.5-0.20117 2.7012-2-0.5-1.0996 0.5-2.0996 1.1992 1.1992 1.6992-0.0996 3.9004-1.6992 0.70117-0.80079-1.8008-1.5996-1.1992-0.90039-1.4004-0.69922-0.80078-2.2012h1.5l0.30078 1.7012 1.7988 1.1992 2.6016-1.3008 1.0996-1.5 1.5 0.10156 0.19922 1.7988-0.59961 0.80078v1.0996l-3.1992 3 4.0996-2.5 4.5-1.9004 3.6992-2 5-3 3.2012-1.4004 4-3.8984 4.8984-4 2.3008-1.6016v-0.79883l-1.3008-0.30078-3.2988-3.4004-0.30078-1.6992 1.9004-2.5996 2.4004-1.3008h0.59961l0.90039 1.8008-0.80078 2 0.70117 0.79883 2.8984 0.10156-0.5 0.89844-1.7988 0.70117-2.0996 2.2988 0.69922 0.5 1.8008-1.7988 3.5-1.4004 8.3984-3.9004 2.8242-0.24023-0.92188-0.84571-1.2559-2.2637 1.8848-1.332 0.0879-0.68945 2.1856-3.4785 0.0957-4.0977-0.74414-3.1875 1.2363-1.4258-1.2598-2.2285 3.3691-6.5352 0.0918-6.6758h-0.9082l-0.85352-4.5801-3.8086-4.6113-0.69727-5.3848-2.5879-2.7852-0.73633-3.582-0.50195-19.943 0.50195-0.0137-0.50195 0.01-0.19336-11.518-2.6562-0.66407-2.9356 1.3633-2.7656-2.4453-6.3887-1.8945-4.6192-3.8164-1.625-0.66407-0.4414 1.4082-5.8047 0.34179-0.5332-1.3301-4.7227 2.3613-1.6992-0.74218-3.25 0.26367-0.58203 1.6465-4.123 1.0312-1.3379-1.2344-1.1953 0.0996-1.9434-1.75-1.9629 0.65429-2.2891-0.57226-1.4492-1.6094-2.2109 3.7148-1.7441 1.1641-1.3457-2.4238 0.27344-1.832-0.5586-0.32617-2.3242 2.5254-2.2539-1.5898-0.0723-1.0605-0.90429 0.34765-2.498-1.6328-2.9629 2.5664-2.9941-1.4316 0.60937-1.8301-1.8633 0.082-1.957-3.0898-3.0117-0.94727-2.1309 2.4492-2.4707-2.3652-1.1797 0.3379-2.1973 0.10937-3.502-1.9004-2.3086 0.0996-1.5273-0.89063-0.50586-2.9316-1.7344-1.2832-1.0957 1.4941-1.7402-1.2441-0.85156-0.2832-1.0703 0.97265-1.9199-0.38281-2.543-3.0527-2.8965-1.3945 1.3945-42.539-52.084-3.1701zm225.97 1.5137-39.518 1.9863-38.529 0.68945 4.0137 23.873-0.69726 38.816 2.1816 1.9297 2.6641-1.2363 3.7441 0.93554 0.19727 11.779 51.562-1.2812 0.97461-1.2168 0.44531-2.6797-1.4414-2.2109-0.58984-2.5977 0.95703-0.74609v-0.2832l-1.6621-1.0762-0.18164-1.2637 1.2969-0.73047-0.9082-0.83203 1.8242-7.6191 3.332-1.5684v-0.30859l-1.1953-1.5215 3.1953-5.9512h2.0234l1.1621-0.92969-0.29492-5.1133 3.291-4.7793 1.5566-0.51758-0.43359-2.6816 0.49414-0.0801-0.19922-0.45703 1.4141-0.61914 1.0137-2.4785 1.293 0.53906 0.21289-0.30273-0.68164-0.5957 0.29883-1.4883-1.2031-0.98438 0.74218-1.2363-0.0605-0.91601-1.7383-0.15821 1.834-1.834 1.0332 0.63476 0.12305-0.5664-0.39453-1.084 0.19922-1.3984 1.6992 0.50976-0.25196-0.94726 1.5254-1.2402-0.13867-0.24805-1.0723 0.0977-0.99219-1.4902 1.3125-1.3106 1.5332-0.19141 0.49805-0.79492 1.1426-0.16406-0.0176-0.14258-0.92383-0.92578v-1.207h1.709l0.0312-0.0547-1.1992-0.85742-0.0606-0.35547-11.662 0.83203 3.2852-5.9805 1.5957-1.4082v-1.8281zm-531.73 1.8867v2.3984l2 1.2012 4.4004-0.20117 1-1-3.1016-0.19922zm-5.9004 0.0996 0.90039 2.6992h3.7988l-1.3984-2.1992zm701.38 10.322-22.82 2.1641-7.3047 4.3027-1.332 0.10352-4.0391 1.7422-0.0976 1.875-1.998 1.0508-1.2715 2.9062 0.14454 0.92969 5.7559 3.5859 2.707-0.3125 3.3379 4.3086 0.39844 1.6934 4.0781 4.9512 2.4434 1.5976 1.4121 0.20118 2.4004 1.7441 1.1055 2.2109 1.834 1.4688 1.8281 0.50782 2.9238 2.9238 0.10156 1.4102 2.4121 2.5996 5.0625 2.3281 3.7246 6.9336 0.2832 2.5352 3.8027 2.0488 2.5977 4.9863 0.72656 2.8164 3.8516 0.36718-0.0469 0.4961 0.79883-1.5h0.60156l1.7988-1.5 0.5-2 3.2012-2.0996 0.29883-2.4004-1.1992-0.89844 0.79883-0.70117 0.80075 0.4004 1.3008-0.40039 1.7988-2.0996 3.8008-1.8008 1.5996-2.3984 0.0996-0.70117 4.8008-4.4004-0.0996-0.5-0.90039-0.79883 1.0996-1.5h0.80078l0.39844 0.5 0.70117-0.80078h1.2988l0.60156-1.5 2.2988-2.0996-0.29883-5.4004 0.79883-2.2988 3.5996-6.2012 2.4004-2.1992 1.6914-0.8457-24.115-16.832-20.055 2.8496-0.11328-2.9434-2.75-2.5-1.1055 1.3809-1.4023-0.60157 0.22461-1.5644zm14.021 66.477-0.0469 0.49805-4.5508-0.4336-0.87304-3.3828-2.4024-4.6133-3.9961-2.1524-0.31836-2.8633-3.4746-6.4668-4.9375-2.2715-2.7871-3.002-0.0996-1.3906-2.4746-2.4746-1.7715-0.49218-2.166-1.7324-1.0938-2.1895-2.002-1.4551-1.3867-0.19726-2.7578-1.8027-4.3223-5.25-0.40039-1.707-2.8613-3.6914-2.4941 0.28711-6.4434-4.0137-0.25585-1.6699 1.5273-3.4941 1.8047-0.94922 0.0527-1.0098-20.799 2.916-0.0684-0.48828 0.0606 0.48828-22.324 2.8281 12.732 45.199 2.8477 5.9902 1.8809 1.9883v3.1133l1.6523 0.97071 0.27344 1.5059-2.2363 3.8613-0.29297 3.6152-0.47656 2.4785 2.3906 5.6758-0.60157 6.3144 0.42578 1.1894 1.5059 1.5059 0.71875 2.2637 3.127 5.6856 50.225-3.3086 0.65429 3.4961 0.69727 0.76562 1.4805-0.42382 0.43945-3.7852-1.3809-2.0742v-2.9258l2.6758-1.7031 1.8867 1 3.8594 0.67382 3.5098-0.29297-0.63281-4.6035-0.5-2 2.3008-6.1992 0.59961-6 0.90039-1.0996v-2l-1.5-0.5 1.1992-0.20117 4.2012-6.1992v-1.4004zm-688.4-58.299-1.1992 0.40039 1.7988 4.0996 2.5996 1 0.70117-0.59961-1.3008-2.5zm593.73 6.2344-44.459 3.8906 0.93164 1.4316-1.3027 67.115 4.3691 32.969 0.42969-0.24024 1.3008 0.0996 0.59961 0.40039 0.80078-0.10156 2-3.7988v-2.3008l1.0996-1.0996 1.4004 0.5 3.4004 6.4004v0.90039l-3.3008 2.1992 3.5-0.40039 4.9004-1.5996-0.24023-0.43945 0.85546-0.4668 0.375-6.8398-0.70898-0.94336-1.6777-0.69141-2.7383-3.0664 0.60547-3.5098 48.566-5.0762-0.47656-1.5-1.4941-1.4922-0.57422-1.6113 0.59765-6.2852-2.4102-5.7246 0.52344-2.7207 0.30664-3.7852 2.1641-3.7383-0.125-0.69532-1.75-1.0273v-3.2871l-1.7168-1.8125-2.9531-6.2109zm-45.334 3.416 2e-3 0.0488h2e-3zm-551.5 0.54883 0.19922 3.4004 1.8008 1.9004 1.4004-0.0996zm551.24 0.0195-37.459 2.543 0.48047 2.9785-2.0449 0.68165-2.9082 4.2207 0.30469 5.2852-1.8379 1.4727h-1.7773l-2.6035 4.8477 1.0059 1.2793v1.2891l-3.4707 1.6328-1.5762 6.5801 1.4922 1.3672-1.9023 1.0703 0.0195 0.13672 1.7363 1.125v1.3164l-0.8418 0.6543 0.41016 1.8027 1.5566 2.3887-0.55273 3.3203-1.2402 1.5508-0.50781 1.1856 1.5273 6.7773 1.3203 1.1016-0.50976 1.7363 2.3379 2.4356v4.002h-1.5234l1.4394 1.998-6.1855 8.6602-2.3457 4.6934-1.6035 11.215 35.959-1.998-0.15039 2.1074-1.0195 1.4258-0.83789 4.2852 4.8047 6.8066-0.30078 1.3086 1.0625 1.5957 0.58203 0.67578-0.38086 0.32617 0.70117 0.0996 2.5996-2.6992 0.59961-0.0996 0.0996-1.6016 0.5-0.19922 0.90039 0.69922 7.9004-2.5 2.4004 1.5 5-0.0996 1.5-1.2988-0.49609 0.0645-4.4062-33.236 1.2988-66.885zm-52.406 47.801-51.023 1.2676 0.48828 19.355 0.66211 3.2188 2.6133 2.8144 0.70312 5.416 3.791 4.5898 0.74609 4.0176h1.0918l-0.10742 7.9258-3.2305 6.2637 1.3398 2.3711-1.3633 1.5742 0.65625 2.8144-0.10547 4.5-2.2129 3.5234-0.11523 0.9082-1.5137 1.0684 0.74414 1.3379 1.1387 1.0449-0.33789 0.36914 1.6016-1.3008 5.2988-0.90039 6.0996-0.0996 9.6016 3.8008 8 1 1.5-1.4004 1.7988-0.20117 4.8008 2.2012 1.5996-0.40037 1.0996-1.5-4.1992-1.8008-2.2012 1-1.0996-0.19922-1.4004-2 3.3008-2.1992 1.5996-0.10156v1.7012l1.5-0.0996 3.4004-0.30079 0.40039 2.3008 1.0996 0.39844 0.59961 1.9004 4.8008 1 1.6992 1.5996v0.70117h-1.1992l-1.5 1.6992 1.6992 1.2012 5.4004 1 2.6992 2.7988 4.4004-1-3.6992 0.20117-0.0996-0.60156 2.7988-0.69922 0.20117-1.8008 1.1992-0.29883v-1.4004l1.0996 0.0996v1.5996l2.5 0.10156 0.80078-1.9004 0.90039 0.29883 0.19922 2.5 1.1992 0.20117-1.7988 2 2.5996-0.90038 2-1.0996 2.9004-3.3008h-0.70117l-1.2988 1.2012-0.40039-0.10156-0.5-0.79883 0.90039-1.2012v-2.2988l1.0996-0.80078 0.69922 0.70117 1-0.80078 1-0.0996 0.60156 1.2988-0.60156 1.9004h2.4004l5.0996 1.7012 0.5 1.2988 1.6016 1.4004 2.7988 0.0996 1.3008 0.70117 1.7988-1 0.90039-1.7012v-1.6992h-1.4004l-1.1992-1.4004-1.0996-1.0996-3.2012-0.90039-2.5996 0.19922-4.1992-2.3984v-2.3008l1.2988-1 2.4004 0.59961-3.0996-1.5996 0.19922-0.80078h3.6016l2.5996-3.5-2.5996-1.7988 0.79883-1.5-1.1992-0.80078h-0.80078l-2 2.0996v2.1016l-0.59961 0.69922-1.0996-0.0996-1.5996-1.4004h-1.3008v-1.5l0.59961-0.69922 0.80078 0.69922 1.6992-1.5996 0.70117-1.5996 0.30078-0.11328-0.5-0.58594-1.3379-2.0039 0.29883-1.293-4.7949-6.791 0.96289-4.916 0.98047-1.373 0.0488-0.69336-36.041 2.002 1.7969-12.584 2.4551-4.9082 5.8145-8.1406-2.1621-3h2.4766v-2.5996l-2.4609-2.5644 0.48828-1.6621-1.0781-0.89844-1.6719-7.4238zm-453.63 18.98-4.5 3.0996h-3.9004l0.40039-0.90039-1.7988-0.0996-5.2012 3.4004h-1.7988l-0.60156-0.80078-2.6992 1.5-3.5996 3.7012-2.8008 2.6992-1.5 1.1992-2.5996 0.10158-2.1992-0.40039-2.3008-1.3008-2.8008 3.9004-0.0996 2.4004 2.5996 2.4004 2.1016 4.5 0.19922 5.2988 2.9004 2 3.4004 0.40039 0.69922 0.80078-1.5 2.2988 0.69922 2.7012-1.6992-2.6016v-2.3984l-1.5-0.30078 0.0996 1.1992 0.70117 2.1016 2.8984 3.6992h-1.3984l-2.2012 1.0996-6.1992-2.5-0.0996-2 1.3984-1.2988v-1.4004l-2.0996-0.5-2.2988 0.19922-4.8008 0.20117 1.5 2.2988-1.9004-1.7988-8.4004 1.1992-0.79883 1.5 4.9004 4.6992-0.80078 1.4004-0.30078 2-0.69922 0.80078-0.0996 1.9004 4.4004 3.5996 4.0996 0.19922 4.5996 1.9004h2l0.80078-0.59961 3.7988 0.0996 0.0996-0.80078 1.2012 1.1016 0.0996 2-2.5-0.10156 0.0996 3.3008 0.5 3.1992-2.9004 2.7012-1.8984-0.0996-2-0.80078-1 0.0996-3.1016 2.0996-1.6992 0.20118-1.4004-2.8008h-3.0996l-2.1992 2-0.5 1.8008-3.3008 1.7988-5.3008 4.3008-0.29883 3.0996 0.69922 2.2012 1 1.1992 1-0.40039 0.90039 1-0.80078 0.59961-1.5 0.90039 1.1016 1.5-2.6016 1.0996 0.80078 2.2012 1.6992 2.2988 0.80078 4.1016 4 1.5 2.5996-0.80078 1.7012-1.0996 0.5 2.0996 0.29883 4.4004-1.9004 1.4004v4.3984l-0.59961 0.90039h-1.6992l1.6992 1.2012 2.0996-0.10156 0.40039-1 4.5996-0.59961 2 2.5996 1.3008-0.69922 1.3008 5.0996 1 0.5 1-0.69922 0.0996-2.4004 0.90039-1 0.69922 1.0996 0.19922 1.5996 1.6016 0.40039 4.6992-1.1992 0.19922 1.1992-2 1.0996-1.5996 1.7012-2.7988 7-4.3008 2-1.4004 1.5-0.29883 1.4004-1-0.60156-9.3008 3.3008-1.8008 4.0996-1.2988-0.40039 0.5-1.0996-1.5-1.4004-3.5-0.19922-5.3008 3.1992-2.1992 1.3008h-2.3008l-0.5 2.4004 1.7012-0.0996-0.40039-1.4004 1.1992 0.19922 0.0996 1.4004h1.8008l0.40039-2.5 0.29883 2.4004 2.5-0.0996 3.2012-3.3008 0.79883 0.0996-0.69922 1.3008 1.4004 0.90039 4.1992-0.20117 2.5996-1.1992 1.4004-0.0996 0.30078 1.5 0.59961-0.5 0.40039-1.4004 5.9004 0.19922 1.8984-1.5996-1.2988-1.0996 0.59961-1.2012 2.5996 0.20117-0.19922-1.2012 2.5 0.20117 0.69922-1.0996 1.0996 0.19922 4.6016-1.9004 0.19922-1.6992 5.5996-2.4004 2-1.9004 1.2012-0.59961 1.2988 0.80078 2.3008-0.90039 1.0996-1.9004 0.5-1.3008 1.6992-0.89844 1.5-0.70117 0.40039-1.4004-1.0996-1.6992-2.1992-0.19922-0.20117-1.3008 0.80078-1.5996 1.4004-0.20117 1.2988-1.5 1.9004-0.0996 3.4004-3.1992 0.40039-1.4004 1.5-2.3008 3.7988-4.0996 2.5-0.90039 1.9004-0.89844 2.0996 0.79883 1.4004 2.5996h-1.5l-1.4004-1.5-3 2-1.6992 0.10156-0.20117 3.0996-3.0996 4.9004 0.59961 2h2.3008l-0.59961 1-1.4004 0.0996-2.4004 1.7988v0.90039l1.9004 1 3.4004-0.59961 1.4004-1.6992 1.3984 0.0996 3-1.7012 0.5-2.2988 1.6016-0.0996 6.2988 0.79883 1-1.0996 1-4.5-1.5996 1.0996 0.59961-2.1992-1.5996-1.4004 0.80078-1.5 0.0996 1.5h3.4004l0.69922-1 1.5996-0.0996-0.29883 1.6992 1.8984 0.0996-1.8984 1.3008 4.0996 1.0996-3.5 0.40039-1.3008 1.1992 0.90039 1.4004 4.5996-1.6992 2.3008 1.6992 0.69922-0.90039 0.59961 1.4004 4 2.3008h2.9004l3.9004-0.5 4.3008 1.0996 2 1.9004 4.5 0.40039 1.7988-1.5 0.80078 2.3984-1.8008 0.70117 1.2012 1.1992 7.3984 3.8008 1.4004 2.5 5.4004 4.0996 3.3008-2-0.60156-2.1992-3.5-2 3.1016 1.1992 0.5-0.69922 0.89844 1.2988v2.7012l2.1016-0.60156 2.0996 1.8008-2.5-9.8008 1.1992 1.3008 1.4004 6 2.1992 2.5 2.4004-0.40039 1.8008 3.5h0.90039l0.59961 5.5996 3.4004 0.5 1.5996 2.2012 1.7988 1.0996 0.40039 2.8008-1.7988 2.5996 2.8984 1.5996 1.2012-2.4004-0.20117 3.0996-0.79883 0.90039 1.4004 1.7012 0.69922-2.4004-0.19922-1.2012 0.79883 0.20117 0.59961 2.2988-1 1.4004 0.60156 2.5996 0.5 0.40039 0.29883-1.5996 0.70117 0.59961-0.30078 2 1.1992 0.20117-0.39844 0.89844 1.6992-0.0996v-1h-1l0.0996-1.6992-0.79883-0.59961 1.6992-0.30079 0.5-0.80078v-1.5996l0.5 1.3008-0.59961 1.7988 1.1992 3.9004 1.8008 0.0996 2.1992-4.1992 0.0996-1.9004-1.2988-4-0.0996-1.1992 0.5-1.2012-0.70117-0.69922-1.6992 0.0996-2.5-2h-1.7012l-2-1.4004h-1.5l-0.5-1.5996-1.3984-0.29883-0.20117-1.5-1-0.5 0.0996-1.7012-5.0996-7.4004-1.7988-1.5v-1.1992l-4.3008-3.5-0.69922-1.0996-1.6016-2-1.8984-0.59961v-2.2012l-1.2012-1.2988-1.6992-0.70117-2.0996 1.3008-1.6016 2.0996-0.39844 2.4004-1.5 0.0996-2.5 2.6992-0.80078-0.29882v-2.5l-2.4004-2.2012-2.2988-2-0.5-2-2.5-1.2988 0.19922-2.2012-2.8008-0.0996-0.69922 1.0996h-1.1992l-0.70117-0.69922-1.1992 0.80078-1.8008-1.2012v-85.799l-6.9004-4.1016-1.7988-0.5-2.2012 1.1016-2.1992 0.0996-2.3008-1.5996-4.2988-0.60156-5.8008-3.5996-5.6992-0.40039-2 0.5-0.20117-1.7988-1.7988-0.70117 1.0996-1-0.19922-0.89844-3.2012-1.1016h-2.4004l-0.39844 0.40039-0.90039-0.5996 0.0996-2.5996-0.80078-0.90039-2.5 2.9004-0.79883-0.0996v-0.80079l1.6992-0.80078v-0.79883l-1.9004-2.4004zm631.42 11.678-1.7227 1.0957v2.0742l1.418 2.127-0.56055 4.8144-2.7188 0.77735-1.3047-1.4356-0.54493-2.9023-49.975 3.291-3.293-5.9883-48.094 5.0254-0.39454 2.2891 2.2617 2.5352 1.7227 0.70898 1.0918 1.4551-0.42578 7.7598-1.1602 0.63281 0.0762 0.0625 1-0.30078 0.69922-0.79883 10.5-2.7012 9.2012-0.5 8.0996 1.9004 8.5 5 2.4004 0.80078 2.1992 2-0.0996 2.6992h2.4004l1.8984-1 2.5 0.0996 2-0.79883 2.9004-2 3.0996-2.9004 1.1016-0.40039 0.59961 0.5h1.4004l0.5-0.80078-0.5-1.1992-0.60156-0.59961 0.20117-0.80078 2-1.0996 5-0.40039 0.79883 1 1 0.0996 2.3008 1 3 1.8008 1.1992 1.6992 1.1016 1.2012 2.7988 1.4004v2.3984l2.8008 1.9004 1 0.0996 1.5996 1.4004 0.69922 1.5996 1 0.20117 0.80074 2.0997 0.69922 0.59961 1-1.0996 2.9004 0.0996 0.5 1.4004 1.0996 0.90039v1.2988l2.9004 2.2012 0.20117 9.5996-1.8008 5.8008 1 1.1992-0.19922 3.4004-0.80078 1.4004 0.69922 1.1992 2.3008 2.3008 0.30078 1.5 0.79883 1-0.40039-1.9004 1.3008-0.59961 0.80078-3.6016-3-1.1992 0.0996-0.59961 2.5996-0.40039 0.90039 2.5996 1.0996 0.59961 0.0996-2 1.0996 0.30078 0.60156 0.80078-0.10156 0.69922-2.8984 4.1992-0.20117 1.1016-1.6992 1.8984v1.1016l3.6992 3.7988 5.3008 7.9004 1.7988 2.0996v1.8008l2.8008 4.5996 2.3008 0.59961 0.69922-1.1992-2.0996 0.29883-3-4.5 0.19922-1.3984 1.5-0.80078v-1.5l-0.59961-1.3008 0.90039-0.89844 0.40039 0.89844 0.69922 0.5v4l-1.1992-0.59961-0.80078 0.90039 1.4004 1.5996 1 2.5996 1.1992-0.59961 2.3008 1.2012 2.0996 2.1992 1.5996 5.0996 3.0996 4.8008 0.80078-1.3008 2.8008-0.5 3.1992 1.3008 0.30078 1.6992 3.2988 3.8008 0.0996 1.0996 2.2012 2.6992-0.70117 0.5v2.7012l2.7012 1.4004h1.5l2.6992-1.8008 1.5 0.30078 1.0996 0.39844 2.3008-1.6992 0.19922-0.69922 1.2012 0.29883 2.4004-1.6992 1.2988-2.3008-0.69922-3.1992-0.20117-1.3008 1.1016-4 0.59961-0.19922 0.59961 1.5996 0.80078-1.8008-0.80078-7.1992-0.40039-10.5-1-6.8008-0.69922-1.6992-6.5996-11.1-5.2012-9.0996-2.1992-3.3008-1.3008-3.5996-0.19922-3.4004 0.90039-0.30078v-0.89844l-1.1016-2.2012-4-4-7.5996-9.6992-5.6992-10.4-4.3008-10.699-0.59961-3.7012-1.1992-1-0.5-3.7988 0.041 0.49805-3.6641 0.30469-4.1426-0.72461zm-155.42 25.922 1.5996 0.0996 1.9004 1 0.80078 1.0996 2.5 0.10156 1.5 0.79883 0.19922 1.4004-0.40039 0.59961-0.89844-1.5-1.4004 1.2012-0.90039 1.3984-2.8008 0.80078-1.5996 0.0996-3.6992-1 0.0996-1.6992 2-2zm-4.5 0.69922 1.4004 0.60156v1.0996l-1.8008 2h-1.1992v-2.2012zm-527.3 3.9004 0.0996 1.0996h1l-0.0996-1.0996zm-16.801 4.5-1.4004 1.5-1 2.0996 1 0.70117 2.5996 0.0996 1.5 2.1992 0.90039 2.1016 0.80078 0.79883 2.0996-0.0996 1.4004 1.1992 0.69922-1.0996 0.0996-0.69922-1.7988-1.2012-2.0996-1.8984v-1.6016l-0.60156-1.0996h-2.2988l-1.9004-1.7988zm33 15.201-0.80078 0.79883 1.7012 0.5v-1.1992zm-51.301 8.0996-1 0.69922 0.30078 1.5996 0.30078 1.1016 1.6992 0.79883 0.80078 0.20117v-0.5l-2-2zm217.6 7.4004-4.2012 2.8984 0.20117 2.3008 2.3984 1.1992 1.9004 1.3008 2.7012 0.40039 2.5996-2.2012-0.20117-1.8984 0.80078-1.7012v-1.4004l-1-0.89844zm-10.801 4.7988-0.30078 1.2012-1.8984 0.89844-0.60156 1.8008 1 0.80078 1.1016-1.5 1.8984-0.60156 0.40039-2.5996zm-180.9 1.9004-1.2988 0.0996-1.1016 0.5-0.89844-0.40039-1.5 0.10156-0.70117 0.89844 1.0996 2 1 0.40039 2.1016 1.8008 2.3984 0.19922 1.2012-2 0.0996-0.90038-0.80078-1.8984zm421.5 1.1992-2.5996 1-3.5996 2.3008-0.70117 1.5-8.1992 11.6-2.8008 7.9004v8.8008l3.6016 12 0.39844 4.5 0.80078 0.0996-0.59961-4.8008-3.5-12.299-0.20117-8.1016 4.9004-10.5 6.0996-8.1992 7.2012-5.0996v-0.70117zm-196.8 3.8008-1.2012 0.69922-1.9004 2.1016-2.8984 0.59961 0.79883 2.1992 2.2012 2.8008 0.0996 1 2.0996-0.30078 2.3008 0.0996 1.6992 1.2012 3.5-0.80078v-0.69922l-1-0.80078-0.5-2.0996-0.80078-0.30078-0.5 1-1.1992-1.2988 0.19922-1.4004-1.7988-3.3008zm14.799 11.301-1.0996 2.3984h5l4.8008 1.6016 2.5-1.6016 0.19922-1.5-4.8008 0.20117zm-268.6 3.2988 0.40039 1.2012 0.79883-1.2012zm281.2 0.59961-1.0996 1.5-0.0996 1.7012 2.6992 2.4004 1.9004 0.5 0.59961 1 0.40039 3 3.5996 0.19922 5.3008-2.5996-0.0996-2.5-1.4004-0.5-3.5-2.5996-1.8008-0.30078-2.8984 1.3008-1.5-2.7012zm-168.4 0.40039-4 4.0996v1.6016l2.0996-0.80078 0.79883-1.9004 2.2012-2.4004zm163.6 2.3008-3.7012 0.0996 1.7012 4 3.0996-0.59961 0.30078-2zm-275.7 3 0.40039 1.1992 0.80078-0.59961zm282.4 4.0996-2.5 0.30078-0.90039 1.3984 4 0.10156zm-197.9 3.4004-3.2988 3.5996-0.70117 0.19922v0.60156l1.8008 1.1992 0.19922-1.4004 0.60156 0.90039 3.5 0.0996 0.69922-0.5996 0.19922-1.8008-0.5-0.69922h-1.3984v-0.80078l0.39844-0.59961v-0.40039zm691.8 2.4004-1.6992 5.5996-0.80078 1-1 2.5996-1.1992 1.5996-0.70117 1.7012-1.9004 2.1992v0.90039l2.7012-2.8008 2.4004-3.5 0.59961-2 2.0996-4.9004zm-478.4 1.1992-2.0996 0.19922-0.19922 3.2012 1.6992 1.9004 0.0996 1.1992-4.7988 4.5-0.10156 1.1992 1.9004 3.2012 1.7012 4.1992v2.5996l-0.5 1.2012 0.0996 3.4004 4.0996 2.0996 1.0996 1.0996 1.2012-1.0996 2.0996-3.5996 4.5-2.9004 3.2988-0.5 2.5-1 1.7012-1.2012 3.1992-3.5-2.7988-1.0996-1.4004-1.4004 0.0996-1.6992-0.5-0.59961h-2l0.19922-2.5-0.69922-1.2012-2.5996-2.2988-4.5-1.9004-2.8008-0.19922-3.2988-2.7012zm-218.3 1.9004-2.4004 0.29883-0.20117 3.4004-0.79883-2-1.5-0.0996-1 0.59961-1.3008 2.3008 1.5 5.7988h2.0996l2.4004-2.5 0.30078 1.2012 6.2988-4 0.70117-1-1-1.0996v-0.70117l0.5-1.2988-0.90039-0.10156-2 1v-1.1992zm89.199 0-0.19922 0.69922 0.89844 1.5 0.5 3.7012 1.5 1.8984v1.1016l-0.59961 0.69922 0.0996 1.3008 0.5 1.3984 2-1.8984v-0.70117l1.2012-0.79883v-1.3008l-2-3.1992 0.59961-0.60156-1-2.0996-2.4004 0.0996zm-4 1.4004-0.69922 0.5h-1.6016l-0.89844 0.39844-0.20117 2.5 1.2012 1.2012 1.2988 2.2988 1.5996 1.6016-0.0996 3.2988 1.4004-1v-0.5l-0.30079-1.0996h0.70117l0.59961 1.6992 0.19922 2.7012 1.6016 1.5996 0.5 1.5 1.1992 2 0.80078-0.30078-0.40039-2.0996v-3.4004l-1.9004-4.2988 0.19922-0.80078-1.2988 0.0996-1.7012-1.1992-0.79883 0.59961-0.0996-0.90039-0.60156-1.2988 1.1016 0.19922 2.1992 1.5h0.90039l-0.5-2h-1.8008l-1.0996-1.2988 1.4004 0.69922h0.79883l0.5-0.5-0.0996-1.5zm-106.1 6.6992v0.80078l1.7988-0.10156-0.39844-0.59961zm13.699 2.5996-2.0996 1.3008-0.0996 0.69922 1.7988-0.5 1-0.59961 0.40039 0.59961 2.2012 0.20117-1.3008-1.2012-1.3008-0.19922zm101.9 0.5-0.19922 0.90039 2.5996 2.8008 0.0996 1.6992 1.3008-0.19922 0.79883 0.0996 0.20117-1.2012-1-1.2988 0.29883-0.70117 1.2012 1.6016 0.0996 0.69922 1.0996 0.19922 1.0996-0.59961 0.20117-0.5-3.4004-3.1992-2.5-0.0996zm-151.6 0.5-4.0996 0.59961-2.8008 1.4004-0.0996 1.9004 1.9004 0.69922 1.5-0.89844 1.6992-0.10156 4.6992 1.4004 0.10156-1.2988-1.6016-1.1016v-2.1992zm745.3 0.90039-1.0996 0.30078-1.4004 2 1.1016-0.20117 1.5-1.5996zm-595.2 0.0996-0.19922 1.2012-0.10156 1.1992 2.1016 2.1992-1.1016 1.4004 0.40039 2.2012 0.80078 0.39844 0.40039-1.1992 0.79883-0.30078v-1.5l-0.5-0.5 0.0996-1.7988 0.80078 0.0996 0.19922-0.80078-2.3984-2.5zm-139.7 1.2012-0.70117 0.79883 1.4004 1.0996 0.30078-1.1992zm8 0-0.70117 0.59961-0.90039-0.5h-1.5l-0.19922 1.7988 1.4004 0.80078 1.1992-0.59961v-1l1.7012-0.30078-0.10156-0.59961zm-32.801 0.89844-0.5 0.80078 0.90039 1.0996 1.2988-0.0996v-1l-0.69922-0.69922zm-5.4004 0.10156-2.0996 3.3984-4.6992 0.5 1.0996 1.4004h2l1.0996-0.69922 1 0.5 2.4004 0.0996 4.1992-1.9004v-0.5l-1.0996-1.5-0.90039-0.19922-0.29883 0.59961-0.5-1.1992h-0.90039zm9.2012 0.0996-1.3008 0.0996 0.0996 1.5 1.0996-0.59961zm16.799 0.19923 0.70117 0.90039 0.69922-0.80078zm735.3 0.30078-3 1.4004-1 1.2988 1.0996 0.0996zm-721.8 0.5-0.29883 1-1.3008 0.0996-0.40039 0.19922v1.3008l-0.5 0.90039h0.59961l0.70117-0.90039 0.79883-0.0996 0.90039-1 0.20117-1.3008zm22.6 0-1.0996 0.79883 1.5 1.4004 0.80078-0.69922-0.0996-1.3008zm-70.398 0.59961-1 1-2.5 0.30078-0.30078 1.0996-2.1992 0.90039 3.6992 0.0996 2.5-1.3008 1.9004-0.19922 1-1.2012-0.70117-0.69922zm187 0-1.2012 0.40039-0.0996 1.0996h1.1992zm-137.2 0.19922-1 1v0.5l0.70117 1.1016 1-1-0.70117-0.10156zm-29.9 0.40039-3.3984 0.0996-0.10156 0.40039 0.90039 0.20117 0.40039 0.59961 0.80078-0.59961 0.29883 0.5 1.3008-0.10156zm741.7 0.20117-2.4004 0.89844-1.5 0.60156-3.6992 3.2988-1.6016 0.20117v0.69922l2.3008 0.0996 3.9004-2.5h2.4004l2.5996-1.1992-1.7012-0.80078zm-577 0.29883-2.4004 0.5 0.19922 2.3008-0.59961 1.2988 1.0996 0.20117 0.60156-0.5 0.59961 0.90039-0.5 0.39844-1.4004-0.0996 1.6992 1.3008 1.6016 0.59961 0.5 0.80078v1l-1.9004 1 0.0996 0.89844 4.0996 4.4004 0.9004-0.0996-0.19922-2.0996-1.7012-0.20117-1.0996-2.7988h0.59961l3.0996 2.4004 1.3008 2.2988h1.4004l-0.30078-5.0996-1.9004-1.5996-1.2988-3.4004zm-153.8 0.5 0.0996 1.2012 1.7012-0.10156zm19.4 1.8008v0.5l0.69922 0.0996-0.0996-0.59961zm695.9 3.0996-1 1.0996 1.6992-0.0996zm-563.2 1.5996-0.0996 0.20117 0.0215 2e-3zm-0.0781 0.20312-0.42187 1.0977 0.40039 0.79883 1.0996 0.10156 1-1.9004z" fill="#8d8d8d" fill-opacity=".31228">
  <title>Alabama</title>
 </path>
</svg>
