<svg version="1.1" viewBox="0 0 1706.7 960" xmlns="http://www.w3.org/2000/svg">
 <rect x="-3.1974e-14" y="-4.4409e-14" width="1706.7" height="960" fill="#fff" stroke-linejoin="round" stroke-width="2.9062" style="paint-order:stroke fill markers"/>
 <g stroke-width="1.624">
  <path class="st0" d="m445.21 538.46h843.67v-4.5472h-843.67z"/>
  <path class="st0" d="m693.19 351.86h13.966l18.026 49.694h-11.368l-4.2224-12.18h-20.138l-4.3848 12.18h-11.368zm14.616 31.181-7.7952-24.522h-0.1624l-8.12 24.522zm20.462-18.838h9.744v4.3848h0.3248c2.5984-3.248 7.4704-5.3592 12.342-5.3592 7.4704 0 10.556 2.5984 12.018 5.684 2.9232-3.5728 6.8208-5.684 13.154-5.684 7.308 0 12.505 2.7608 12.505 9.9064v28.42h-10.394v-25.659c0-4.872-1.9488-6.8208-6.1712-6.8208s-8.2824 2.436-8.2824 7.308v25.172h-10.394v-25.659c0-4.872-2.1112-6.8208-6.3336-6.8208-4.06 0-8.12 2.436-8.12 7.308v25.172h-10.394v-37.352m76.003 19.65v2.1112c0 5.0344 0.812 11.368 8.6072 11.368 7.4704 0 8.2824-6.1712 8.2824-8.2824h9.744c0 8.2824-6.9832 13.479-18.189 13.479-8.4448 0-19.001-1.7864-19.001-19.163 0-9.744 2.9232-20.3 19.163-20.3 14.454 0 18.189 6.3336 18.189 16.727v3.8976h-26.796zm16.727-5.1968v-1.9488c0-4.7096-2.1112-8.2824-7.9576-8.2824-6.6584 0-8.6072 4.7096-8.6072 9.5816v0.812c-0.1624-0.1624 16.565-0.1624 16.565-0.1624zm17.377-14.454h10.394v5.8464h0.1624c2.2736-4.2224 6.1712-6.8208 12.018-6.8208 1.1368 0 1.7864 0.1624 2.436 0.3248v7.6328c-1.4616-0.3248-2.9232-0.3248-4.3848-0.4872-4.7096 0-10.394 1.4616-10.394 8.4448v22.411h-10.394v-37.352m29.394-5.3592h10.394v-7.4704h-10.394zm0 42.711h10.394v-37.514h-10.394zm54.079-13.642c-0.6496 8.932-4.872 14.616-17.702 14.616-14.941 0-19.163-8.12-19.163-19.65s4.2224-19.65 19.163-19.65c15.428-0.1624 17.702 8.7696 17.702 13.479h-10.394c0-3.4104-1.2992-7.9576-7.308-7.7952-7.4704 0-8.7696 5.8464-8.7696 14.129s1.2992 14.129 8.7696 14.129c5.684 0 7.7952-3.4104 7.7952-9.0944h9.9064m40.113 5.684c0 1.4616 1.1368 2.5984 2.7608 2.5984 0.6496 0 1.2992 0 1.7864-0.1624v4.872c-1.624 0.6496-3.4104 0.812-5.0344 0.9744-4.5472 0-8.4448-1.2992-8.7696-4.872h-0.1624c-2.7608 3.7352-6.8208 5.5216-12.83 5.5216-8.2824 0-13.479-3.4104-13.479-10.556 0-8.2824 5.0344-10.069 12.018-11.693l8.12-1.624c3.7352-0.812 6.0088-1.4616 6.0088-4.872s-1.624-5.5216-7.1456-5.5216c-6.9832 0-7.7952 3.5728-7.7952 7.1456h-9.744c0-7.9576 4.5472-12.342 18.189-12.342 9.0944 0 16.402 2.5984 16.402 9.2568v21.274zm-9.744-11.855c-2.7608 1.4616-8.4448 2.436-11.53 3.4104-2.9232 0.9744-4.2224 3.248-4.2224 6.0088 0 3.0856 2.1112 5.684 6.496 5.684 6.1712 0 9.2568-3.4104 9.2568-8.932zm18.838-17.702h9.744v4.3848h0.3248c2.5984-3.248 7.4704-5.3592 13.317-5.3592 7.7952 0 12.83 2.5984 12.83 10.231v28.258h-10.394v-25.659c0-4.872-1.9488-6.8208-7.1456-6.8208-4.2224 0-8.2824 2.436-8.2824 7.308v25.172h-10.394v-37.514m72.593-12.342h10.881v19.975h20.138v-19.975h10.881v49.694h-10.881v-23.061h-20.138v23.061h-10.881v-49.694m66.422 11.368c15.103 0 19.326 8.12 19.326 19.65s-4.872 19.65-19.326 19.65c-14.291 0-19.163-8.12-19.163-19.65s4.2224-19.65 19.163-19.65m0 33.779c7.6328 0 8.932-4.5472 8.932-14.129 0-8.2824-1.2992-14.129-8.932-14.129-7.4704 0-8.7696 5.8464-8.7696 14.129 0 9.5816 1.2992 14.129 8.7696 14.129m48.07-21.924v-0.9744c0-2.9232-1.4616-5.8464-6.8208-5.8464-4.06 0-7.308 1.4616-7.308 4.872 0 2.9232 1.7864 4.06 7.308 5.5216l6.6584 1.624c7.6328 1.9488 11.206 4.872 11.206 10.718 0 7.9576-8.12 11.368-18.514 11.368-12.992 0-17.052-4.3848-17.052-11.693v-1.4616h9.2568v1.1368c0 4.3848 2.1112 6.6584 8.12 6.6584 5.684 0 8.4448-2.1112 8.4448-5.5216 0-2.7608-1.9488-4.5472-5.684-5.5216l-8.4448-2.1112c-7.7952-1.9488-11.043-4.872-11.043-10.718 0-6.9832 6.9832-10.231 17.702-10.231 13.154 0 16.078 5.5216 16.078 10.231v1.624h-9.9064m17.052-10.556h9.744v4.5472h0.1624c2.1112-3.4104 6.0088-5.5216 11.693-5.5216 11.855 0 16.565 7.308 16.565 20.138 0 15.753-8.7696 19.163-15.915 19.163-5.5216 0-9.744-1.9488-11.693-5.3592h-0.1624v16.565h-10.394zm18.676 32.48c6.0088 0 8.6072-3.248 8.6072-13.642 0-8.4448-1.624-13.804-8.7696-13.804s-8.7696 5.1968-8.7696 13.317c0 8.932 1.624 14.129 8.932 14.129zm24.522-37.839h10.394v-7.4704h-10.394zm0 42.711h10.394v-37.514h-10.394zm14.616-37.352h7.1456v-10.718h10.394v10.718h8.4448v5.5216h-8.4448v22.249c0 2.9232 1.1368 4.06 4.7096 4.06 1.4616 0 2.7608-0.1624 3.7352-0.1624v5.5216c-2.2736 0.4872-5.0344 0.6496-8.2824 0.6496-6.9832 0-10.394-1.4616-10.394-9.0944v-23.223h-7.1456l-0.1624-5.5216m65.61 29.557c0 1.4616 1.1368 2.5984 2.5984 2.5984 0.6496 0 1.2992 0 1.7864-0.1624v4.872c-1.624 0.6496-3.4104 0.812-5.0344 0.9744-4.5472 0-8.4448-1.2992-8.7696-4.872h-0.1624c-2.7608 3.7352-6.8208 5.5216-12.83 5.5216-8.2824 0-13.479-3.4104-13.479-10.556 0-8.2824 5.0344-10.069 12.018-11.693l8.12-1.624c3.7352-0.812 6.0088-1.4616 6.0088-4.872s-1.624-5.5216-7.1456-5.5216c-6.9832 0-7.9576 3.5728-7.9576 7.1456h-9.744c0-7.9576 4.5472-12.342 18.189-12.342 9.0944 0 16.402 2.5984 16.402 9.2568zm-9.744-11.855c-2.7608 1.4616-8.4448 2.436-11.53 3.4104-2.9232 0.9744-4.2224 3.248-4.2224 6.0088 0 3.0856 2.1112 5.684 6.496 5.684 6.3336 0 9.2568-3.4104 9.2568-8.932zm19.326 19.65h10.394v-49.694h-10.394zm-614.85 31.181h13.966l18.026 49.694h-11.368l-4.2224-12.18h-20.138l-4.3848 12.18h-11.368zm14.616 31.181-7.7952-24.522h-0.1624l-8.12 24.522zm44.173-7.9576v-0.9744c0-2.9232-1.4616-5.8464-6.8208-5.8464-4.06 0-7.4704 1.2992-7.4704 4.872 0 2.9232 1.7864 4.06 7.308 5.5216l6.6584 1.624c7.6328 1.9488 11.206 4.872 11.206 10.718 0 7.9576-8.12 11.368-18.514 11.368-12.992 0-17.052-4.3848-17.052-11.693v-1.4616h9.2568v1.1368c0 4.3848 2.1112 6.6584 8.12 6.6584 5.684 0 8.4448-2.1112 8.4448-5.5216 0-2.7608-1.9488-4.5472-5.684-5.5216l-8.4448-2.1112c-7.7952-1.9488-11.043-4.872-11.043-10.718 0-6.9832 6.9832-10.231 17.702-10.231 13.154 0 16.078 5.5216 16.078 10.231v1.624h-9.744m39.463 0.3248v-0.9744c0-2.9232-1.4616-5.8464-6.8208-5.8464-4.06 0-7.4704 1.2992-7.4704 4.872 0 2.9232 1.7864 4.06 7.308 5.5216l6.6584 1.624c7.6328 1.9488 11.206 4.872 11.206 10.718 0 7.9576-8.12 11.368-18.514 11.368-12.992 0-17.052-4.3848-17.052-11.693v-1.4616h9.2568v1.1368c0 4.3848 2.1112 6.6584 8.12 6.6584 5.684 0 8.4448-2.1112 8.4448-5.5216 0-2.7608-1.9488-4.5472-5.684-5.5216l-8.4448-2.1112c-7.7952-1.9488-11.043-4.872-11.043-10.718 0-6.9832 6.9832-10.231 17.702-10.231 13.154 0 16.078 5.5216 16.078 10.231v1.624h-9.744m34.266-11.693c15.103 0 19.326 8.12 19.326 19.65 0 11.693-4.872 19.65-19.326 19.65-14.291 0-19.163-8.12-19.163-19.65s4.2224-19.65 19.163-19.65m0 33.942c7.6328 0 8.932-4.5472 8.932-14.129 0-8.2824-1.2992-14.129-8.932-14.129-7.4704 0-8.7696 5.8464-8.7696 14.129-0.1624 9.4192 1.2992 14.129 8.7696 14.129m60.575-9.0944c-0.6496 8.932-4.872 14.616-17.702 14.616-14.941 0-19.163-8.12-19.163-19.65 0-11.693 4.2224-19.65 19.163-19.65 15.428-0.1624 17.702 8.7696 17.702 13.479h-10.394c0-3.4104-1.2992-7.9576-7.4704-7.7952-7.4704 0-8.932 5.8464-8.932 14.129s1.2992 14.129 8.932 14.129c5.684 0 7.7952-3.4104 7.7952-9.0944h10.069m4.7096-29.232h10.394v-7.4704h-10.394zm0 42.711h10.394v-37.352h-10.394zm53.267-7.7952c0 1.4616 1.1368 2.5984 2.5984 2.5984 0.6496 0 1.2992-0.1624 1.7864-0.1624v4.872c-1.624 0.6496-3.4104 0.812-5.0344 0.9744-4.5472 0-8.4448-1.2992-8.7696-4.872h-0.1624c-2.7608 3.7352-6.8208 5.5216-12.83 5.5216-8.2824 0-13.479-3.4104-13.479-10.556 0-8.2824 5.0344-10.069 12.018-11.693l8.12-1.624c3.7352-0.812 6.0088-1.4616 6.0088-4.872s-1.624-5.5216-7.1456-5.5216c-6.9832 0-7.7952 3.5728-7.7952 7.1456h-9.744c0-7.9576 4.5472-12.342 18.189-12.342 9.0944 0 16.402 2.5984 16.402 9.0944zm-9.744-12.018c-2.7608 1.4616-8.4448 2.436-11.53 3.4104-2.9232 0.9744-4.2224 3.248-4.2224 6.0088 0 3.0856 2.1112 5.684 6.496 5.684 6.1712 0 9.2568-3.4104 9.2568-8.932zm14.129-17.702h7.1456v-10.718h10.394v10.718h8.4448v5.5216h-8.4448v22.411c0 2.9232 1.1368 3.8976 4.7096 3.8976 1.624 0 2.7608 0 3.7352-0.1624v5.5216c-2.2736 0.4872-5.0344 0.6496-8.2824 0.6496-6.9832 0-10.394-1.4616-10.394-9.0944v-23.223h-7.1456l-0.1624-5.5216m32.155-5.1968h10.394v-7.4704h-10.394zm0 42.711h10.394v-37.352h-10.394zm36.54-38.489c15.103 0 19.326 8.12 19.326 19.65 0 11.693-4.872 19.65-19.326 19.65-14.291 0-19.163-8.12-19.163-19.65s4.2224-19.65 19.163-19.65m0 33.942c7.6328 0 8.932-4.5472 8.932-14.129 0-8.2824-1.2992-14.129-8.932-14.129-7.4704 0-8.7696 5.8464-8.7696 14.129 0 9.4192 1.2992 14.129 8.7696 14.129m25.822-32.967h9.744v4.3848h0.3248c2.5984-3.4104 7.4704-5.3592 13.317-5.3592 7.9576 0 12.83 2.5984 12.83 10.231v28.258h-10.394v-25.659c0-4.872-1.9488-6.8208-7.1456-6.8208-4.2224 0-8.2824 2.436-8.2824 7.308v25.172h-10.394v-37.514m56.028 7.1456v-14.129h4.3848l2.5984 9.744 2.5984-9.744h4.3848v14.129h-2.7608v-11.206l-3.0856 11.206h-2.5984l-3.0856-11.206v11.206zm-8.7696 0v-11.693h-4.3848v-2.436h11.368v2.436h-4.2224v11.693z"/>
  <path class="st0" d="m488.57 414.55c0 6.8208-5.5216 12.342-12.342 12.342h-119.85c-6.8208 0-12.342-5.5216-12.342-12.342v-125.86c0-6.8208 5.5216-12.342 12.342-12.505h119.85c6.8208 0 12.342 5.5216 12.342 12.342v126.02"/>
  <path class="st1" d="m465.35 297.95v106.21h-27.608v-40.925h-43.198v40.925h-27.608v-106.21h27.608v38.489h43.361v-38.489h27.446"/>
  <path class="st2" d="m625.31 396.36c-20.138 3.4104-44.985-1.9488-67.234 5.5216-4.06 1.4616-8.12 3.0856-12.018 5.0344-14.454 7.4704-31.181 20.138-47.421 29.719-3.8976 2.1112-7.7952 4.06-11.206 5.8464-3.7352 1.7864-7.6328 3.4104-11.693 4.872-0.1624 0-0.3248 0.1624-0.4872 0.1624-22.574 7.4704-48.395 2.2736-67.234 5.5216-7.4704 1.2992-21.762 3.4104-23.061 14.454v25.659c1.624-11.206 18.189-14.616 25.659-15.753 20.138-3.4104 44.985 1.9488 67.234-5.5216 0.1624 0 0.3248-0.1624 0.4872-0.1624 22.249-6.6584 48.882-29.232 70.319-40.275 3.8976-1.9488 7.9576-3.5728 12.018-5.0344 22.736-7.4704 48.395-2.2736 67.234-5.5216 7.4704-1.2992 21.762-3.4104 23.061-14.454v-25.659c-1.624 11.043-18.189 14.454-25.659 15.59m0-49.207c-20.138 3.4104-44.985-1.9488-67.234 5.5216-4.2224 1.2992-8.12 3.0856-12.018 5.0344-16.078 8.4448-35.241 23.223-53.105 32.967v26.796c18.676-9.5816 38.814-25.497 55.703-34.266 3.8976-1.9488 7.9576-3.5728 12.018-5.0344 22.736-7.4704 48.395-2.2736 67.234-5.5216 7.4704-1.2992 21.762-3.4104 23.061-14.454v-26.634c-1.624 10.881-18.189 14.291-25.659 15.59m0-48.395c-20.138 3.4104-44.985-1.9488-67.234 5.5216-4.06 1.2992-8.12 3.0856-12.018 5.0344-16.078 8.4448-35.241 23.223-53.105 32.805v25.822c18.676-9.5816 38.814-25.497 55.703-34.266 3.8976-1.9488 7.9576-3.5728 12.018-5.0344 22.736-7.4704 48.395-2.2736 67.234-5.5216 7.4704-1.2992 21.762-3.4104 23.061-14.454v-25.822c-1.624 11.206-18.189 14.616-25.659 15.915"/>
  <path class="st0" d="m674.52 282.84c7.1456 0 13.642 5.1968 13.642 13.317s-6.496 13.317-13.642 13.317-13.642-5.1968-13.642-13.317 6.496-13.317 13.642-13.317zm0 23.71c5.5216 0 10.069-4.3848 10.069-10.556 0-6.0088-4.5472-10.394-10.069-10.394s-10.069 4.3848-10.069 10.394c0.1624 6.1712 4.5472 10.556 10.069 10.556zm-5.1968-18.026h5.684c3.7352 0 5.8464 1.1368 5.8464 4.3848 0 2.7608-1.7864 3.7352-3.8976 4.06l4.06 6.496h-3.0856l-3.5728-6.3336h-1.7864v6.3336h-2.9232v-14.941zm2.9232 6.3336h2.5984c1.624 0 2.9232-0.3248 2.9232-2.1112 0-1.624-1.7864-1.7864-3.0856-1.7864h-2.436z"/>
 </g>
 <style type="text/css">.st0{fill:#28346A;}
	.st1{fill:#FFFFFE;}
	.st2{fill:#8B2434;}</style>
 <text x="498.99319" y="631.03442" fill="#28346a" font-family="Arial" font-size="60.104px" font-style="italic" stroke-linecap="round" stroke-linejoin="round" stroke-width="7.5591" style="font-variant-caps:normal;font-variant-east-asian:normal;font-variant-ligatures:normal;font-variant-numeric:normal;line-height:75.1305px;paint-order:stroke fill markers" xml:space="preserve"><tspan x="498.99319" y="631.03442" stroke-width="7.5591">The event will begin shortly</tspan></text>
</svg>
