<?xml version="1.0" encoding="UTF-8"?>
<svg version="1.1" viewBox="0 0 1706.7 960" xmlns="http://www.w3.org/2000/svg" xmlns:cc="http://creativecommons.org/ns#" xmlns:dc="http://purl.org/dc/elements/1.1/" xmlns:rdf="http://www.w3.org/1999/02/22-rdf-syntax-ns#">
 <metadata>
  <rdf:RDF>
   <cc:Work rdf:about="">
    <dc:format>image/svg+xml</dc:format>
    <dc:type rdf:resource="http://purl.org/dc/dcmitype/StillImage"/>
    <dc:title/>
   </cc:Work>
  </rdf:RDF>
 </metadata>
 <defs>
  <clipPath id="b">
   <path d="m341 0h2v69.988h-2z"/>
  </clipPath>
  <clipPath id="a">
   <path d="m663 40h14.809v8h-14.809z"/>
  </clipPath>
 </defs>
 <style type="text/css">.st0{fill:#28346A;}
	.st1{fill:#FFFFFE;}
	.st2{fill:#8B2434;}</style>
 <g transform="matrix(2.3039 0 0 2.3039 72.538 348.01)">
  <g fill="#283982" stroke-width=".57872">
   <path d="m361.3 20.242h7.668l-3.7344-9.9492zm-6.1289 7.8086 8.6641-20.578h3.0508l8.3203 20.578h-3.1055l-2.2227-5.3555h-9.5469l-2.2227 5.3555h-2.9375"/>
   <path d="m380.65 15.797h0.0547c0.85547-1.7969 2.625-2.4805 4.0781-2.4805 2.707 0 4.3047 0.91016 5.043 2.6797 1.0273-1.7695 2.6523-2.6797 4.7617-2.6797 3.3047 0 5.3281 2.082 5.3281 4.6445v10.09h-2.707v-8.4648c0-1.9648-0.28516-4.1875-3.4492-4.1875-0.82422 0-2.6484 0.45312-3.1641 2.2227-0.37109 1.3086-0.28516 2.7344-0.28516 3.0781v7.3516h-2.707v-8.4648c0-2.4805-0.57031-4.1875-3.1641-4.1875-1.1094 0-2.707 0.42578-3.5352 2.3359-0.3125 0.74219-0.19922 2.6211-0.19922 2.9648v7.3516h-2.707v-14.309h2.6523v2.0547"/>
   <path d="m413.93 19.531c0.0586-2.3945-1.0234-4.25-3.6484-4.25-2.25 0-3.5898 1.9102-3.5898 4.25zm-7.2383 1.8789c-0.19922 2.5078 0.82813 5.1016 3.5898 5.1016 2.1094 0 3.1641-0.82422 3.4805-2.9062h2.8477c-0.42578 3.25-2.9336 4.875-6.3555 4.875-4.5898 0-6.4141-3.25-6.4141-7.4688 0-4.1914 2.1094-7.6953 6.6445-7.6953 4.2734 0.08594 6.2969 2.793 6.2969 6.7539v1.3398h-10.09"/>
   <path d="m423.6 28.051h-2.7109v-14.309h2.7109v2.7656h0.0547c0.39844-1.9648 2.2227-2.9648 4.1914-2.9648 0.33984 0 0.625 0.03125 0.94141 0.03125v2.5625c-0.37109-0.14062-0.80078-0.14062-1.1719-0.14062-3.418 0.11328-4.0156 1.9375-4.0156 4.9609v7.0938"/>
   <path d="m431.95 28.051v-14.309h2.707v14.309zm-0.25391-20.578h3.2188v2.9375h-3.2188v-2.9375"/>
   <path d="m447.73 18.332c-0.14062-1.793-0.99609-3.0508-2.9336-3.0508-2.5938 0-3.5938 2.2539-3.5938 5.6172s1 5.6133 3.5938 5.6133c1.7969 0 2.9062-1.168 3.0508-3.2188h2.707c-0.23047 3.2188-2.6211 5.1875-5.7852 5.1875-4.5898 0-6.4141-3.25-6.4141-7.4688 0-4.1914 2.1094-7.6953 6.6406-7.6953 3.0195 0 5.3008 1.9102 5.4453 5.0156h-2.7109"/>
   <path d="m460.42 21.098c-1.6523 0.08594-3.8477 0.68359-3.8477 2.7656 0 1.7656 1.2266 2.6484 2.8203 2.6484 3.1953 0 3.793-2.7617 3.7344-5.4141zm2.707-1.8828c0-2.4766-0.14062-3.9336-3.0195-3.9336-1.3672 0-2.6523 0.80078-2.6797 2.2812h-2.8516c0.14453-3.1328 2.5938-4.2461 5.418-4.2461 2.9336 0 5.8398 0.88281 5.8398 4.875v6.8398c0 0.62891 0.0312 1.8242 0.11719 3.0195h-1.8281c-0.25391 0-0.73828 0.14453-0.76562-0.19922-0.0586-0.65234-0.11719-1.2812-0.14453-1.9375h-0.0547c-0.88672 1.7969-2.4805 2.5664-4.4492 2.5664-2.4805 0-4.9883-1.2812-4.9883-4.0781 0-4.0156 3.5625-5.1875 6.957-5.1875h2.4492"/>
   <path d="m473.27 15.852h0.0547c0.91406-1.793 2.9062-2.5352 4.332-2.5352 1 0 5.418 0.25781 5.418 4.8438v9.8906h-2.7109v-9.0039c0-2.3672-0.99609-3.6484-3.2773-3.6484 0 0-1.4805-0.08594-2.6211 1.0547-0.39844 0.39844-1.1406 1.0234-1.1406 3.8164v7.7812h-2.707v-14.309h2.6523v2.1094"/>
   <path d="m503.05 26.027c5.2148 0 6.4141-3.9883 6.4141-8.2656 0-4.3867-1.1992-8.2656-6.4141-8.2656-5.2148 0-6.4141 3.8789-6.4141 8.2656 0 4.2773 1.1992 8.2656 6.4141 8.2656zm0-18.98c6.4141 0 9.4062 4.7031 9.4062 10.715 0 6.0156-2.9922 10.719-9.4062 10.719-6.4141 0-9.4062-4.7031-9.4062-10.719 0-6.0117 2.9922-10.715 9.4062-10.715"/>
   <path d="m518.79 28.051h-2.707v-14.309h2.707v2.7656h0.0586c0.39844-1.9648 2.2227-2.9648 4.1875-2.9648 0.34375 0 0.62891 0.03125 0.94141 0.03125v2.5625c-0.37109-0.14062-0.79688-0.14062-1.168-0.14062-3.4219 0.11328-4.0195 1.9375-4.0195 4.9609v7.0938"/>
   <path d="m532.84 25.828c2.9375 0 4.0195-2.5078 4.0195-5.2734 0-2.7617-1.082-5.2734-4.0195-5.2734-3.1641 0-4.0195 3.0234-4.0195 5.2734 0 2.2539 0.85547 5.2734 4.0195 5.2734zm4.1055-12.086h2.793c-0.0859 0.85547-0.17188 1.7109-0.17188 2.5664v10.062c0 5.2461-2.2812 7.3828-7.5234 7.3828-3.0781 0-5.2734-1.3125-5.3008-4.6172h2.8477c0.11328 1.9102 1.4258 2.6484 3.3359 2.6484 3.8477 0 3.8477-3.1914 3.9336-6.4102h-0.0859c-0.85547 1.707-2.9336 2.4219-4.7031 2.4219-4.3633 0-6.0977-3.0781-6.0977-7.0977 0-4.1328 2.3086-7.3828 6.6406-7.3828 1.3945 0 2.9336 0.57031 3.8203 1.8828 0.0547 0.05469 0.42578 0.88281 0.42578 0.68359l0.0859-2.1406"/>
   <path d="m550.14 21.098c-1.6562 0.08594-3.8516 0.68359-3.8516 2.7656 0 1.7656 1.2266 2.6484 2.8242 2.6484 3.1914 0 3.7891-2.7617 3.7344-5.4141zm2.707-1.8828c0-2.4766-0.14453-3.9336-3.0234-3.9336-1.3672 0-2.6484 0.80078-2.6758 2.2812h-2.8516c0.14062-3.1328 2.5938-4.2461 5.4141-4.2461 2.9375 0 5.8438 0.88281 5.8438 4.875v6.8398c0 0.62891 0.0273 1.8242 0.11328 3.0195h-1.8242c-0.25391 0-0.73828 0.14453-0.76953-0.19922-0.0547-0.65234-0.11328-1.2812-0.14062-1.9375h-0.0586c-0.88281 1.7969-2.4805 2.5664-4.4453 2.5664-2.4805 0-4.9883-1.2812-4.9883-4.0781 0-4.0156 3.5625-5.1875 6.9531-5.1875h2.4531"/>
   <path d="m562.99 15.852h0.0586c0.91016-1.793 2.9062-2.5352 4.332-2.5352 0.99609 0 5.4141 0.25781 5.4141 4.8438v9.8906h-2.707v-9.0039c0-2.3672-0.99609-3.6484-3.2773-3.6484 0 0-1.4844-0.08594-2.6211 1.0547-0.40234 0.39844-1.1406 1.0234-1.1406 3.8164v7.7812h-2.707v-14.309h2.6484v2.1094"/>
   <path d="m577.81 28.051v-14.309h2.707v14.309zm-0.25781-20.578h3.2227v2.9375h-3.2227v-2.9375"/>
   <path d="m594.65 28.051h-10.406v-1.8789l7.2148-10.547h-7.0977v-1.8828h10.004v1.8828l-7.1836 10.547h7.4688v1.8789"/>
   <path d="m603.83 21.098c-1.6523 0.08594-3.8477 0.68359-3.8477 2.7656 0 1.7656 1.2266 2.6484 2.8242 2.6484 3.1914 0 3.7891-2.7617 3.7305-5.4141zm2.707-1.8828c0-2.4766-0.14062-3.9336-3.0195-3.9336-1.3672 0-2.6523 0.80078-2.6797 2.2812h-2.8516c0.14453-3.1328 2.5938-4.2461 5.418-4.2461 2.9336 0 5.8438 0.88281 5.8438 4.875v6.8398c0 0.62891 0.0273 1.8242 0.11328 3.0195h-1.8242c-0.25781 0-0.74219 0.14453-0.76953-0.19922-0.0586-0.65234-0.11328-1.2812-0.14453-1.9375h-0.0547c-0.88672 1.7969-2.4805 2.5664-4.4492 2.5664-2.4766 0-4.9883-1.2812-4.9883-4.0781 0-4.0156 3.5664-5.1875 6.957-5.1875h2.4492"/>
   <path d="m614.18 13.742v-3.0469l2.707-0.85547v3.9023l3.3047-0.08203v2.0234l-3.3047-0.03125v9.2344c0 1.0273 0.79688 1.5117 1.7656 1.5117 0.42969 0 1-0.05469 1.4258-0.17188v2.082c-0.62891 0.02734-1.2266 0.17188-1.8516 0.17188-0.65625 0-1.168-0.02734-1.8242-0.14453-0.42969-0.08203-1.1406-0.3125-1.5977-0.9375-0.48438-0.6875-0.625-0.74219-0.625-2.6523v-9.0938l-2.4531 0.03125v-2.0234l2.4531 0.08203"/>
   <path d="m623.58 28.051v-14.309h2.707v14.309zm-0.25781-20.578h3.2227v2.9375h-3.2227v-2.9375"/>
   <path d="m637.6 26.512c3.2188 0 4.2734-2.5625 4.2734-5.6133s-1.0547-5.6172-4.2734-5.6172c-3.2227 0-4.2773 2.5664-4.2773 5.6172s1.0547 5.6133 4.2773 5.6133zm7.125-5.6133c0 4.4453-2.4219 7.582-7.125 7.582s-7.125-3.1367-7.125-7.582 2.4219-7.582 7.125-7.582 7.125 3.1367 7.125 7.582"/>
   <path d="m650.8 15.852h0.0547c0.91406-1.793 2.9102-2.5352 4.332-2.5352 1 0 5.418 0.25781 5.418 4.8438v9.8906h-2.707v-9.0039c0-2.3672-1-3.6484-3.2773-3.6484 0 0-1.4844-0.08594-2.625 1.0547-0.39844 0.39844-1.1406 1.0234-1.1406 3.8164v7.7812h-2.707v-14.309h2.6523v2.1094"/>
   <path d="m358.16 62.551v-12.426h-2.793v-1.8828h2.793v-2.7344c0.0859-3.1367 2.4531-3.9609 4.4766-3.9609 0.65234 0 1.2812 0.16797 1.9375 0.28516v2.25c-0.45703-0.02734-0.91406-0.08594-1.3711-0.08594-1.5391 0-2.4219 0.39844-2.3359 1.9688v2.2773h3.3086v1.8828h-3.3086v12.426h-2.707"/>
   <path d="m372.84 61.012c3.2188 0 4.2734-2.5625 4.2734-5.6133s-1.0547-5.6172-4.2734-5.6172c-3.2227 0-4.2773 2.5664-4.2773 5.6172s1.0547 5.6133 4.2773 5.6133zm7.125-5.6133c0 4.4453-2.4258 7.582-7.125 7.582-4.7031 0-7.1289-3.1367-7.1289-7.582s2.4258-7.582 7.1289-7.582c4.6992 0 7.125 3.1367 7.125 7.582"/>
   <path d="m386.18 62.551h-2.707v-14.309h2.707v2.7656h0.0586c0.39844-1.9648 2.2227-2.9648 4.1875-2.9648 0.34375 0 0.62891 0.03125 0.94141 0.03125v2.5625c-0.37109-0.14062-0.79688-0.14062-1.168-0.14062-3.4219 0.11328-4.0195 1.9375-4.0195 4.957v7.0977"/>
   <path d="m418.04 41.973v20.578h-3.5312l-10.406-17.473h-0.0547v17.473h-2.5391v-20.578h3.9062l10.031 17.016h0.0586v-17.016h2.5352"/>
   <path d="m433.03 48.242h2.707v14.309h-2.6523v-2.1094h-0.0547c-1.082 1.7969-2.9102 2.5391-4.9023 2.5391-2.9922 0-4.7031-2.2812-4.7031-5.1602v-9.5781h2.707v8.4688c0 2.4766 0.57031 4.3008 3.1641 4.3008 1.1133 0 2.6211-0.57031 3.1914-2.0508 0.51562-1.3398 0.54297-3.0234 0.54297-3.3633v-7.3555"/>
   <path d="m443.63 62.551h-2.707v-14.309h2.707v2.7656h0.0547c0.40234-1.9648 2.2227-2.9648 4.1914-2.9648 0.34375 0 0.62891 0.03125 0.94141 0.03125v2.5625c-0.37109-0.14062-0.80078-0.14062-1.168-0.14062-3.4219 0.11328-4.0195 1.9375-4.0195 4.957v7.0977"/>
   <path d="m456.77 47.816c2.707 0 5.7578 1.1406 5.5586 4.3906h-2.8516c0.11719-1.8242-1.2812-2.4258-2.8477-2.4258-1.4531 0-2.625 0.68359-2.625 2.2812s2.4531 1.7109 3.4805 2.0234c2.4219 0.80078 5.2148 1.082 5.2148 4.3047 0 3.5078-3.4219 4.5898-6.3555 4.5898-2.9922 0-5.5039-1.3672-5.4727-4.6758h2.8477c0.0586 1.7695 1.2539 2.707 2.9102 2.707 1.5938 0 3.2188-0.625 3.2188-2.4766 0-3.1953-8.6914-0.80078-8.6914-6.3867 0-2.9922 3.0195-4.332 5.6133-4.332"/>
   <path d="m466.52 62.551v-14.309h2.707v14.309zm-0.25391-20.578h3.2188v2.9375h-3.2188v-2.9375"/>
   <path d="m477.04 50.352h0.0547c0.91406-1.793 2.9062-2.5352 4.332-2.5352 1 0 5.418 0.25781 5.418 4.8438v9.8906h-2.7109v-9.0039c0-2.3672-0.99609-3.6484-3.2773-3.6484 0 0-1.4805-0.08594-2.6211 1.0547-0.39844 0.39844-1.1406 1.0234-1.1406 3.8164v7.7812h-2.707v-14.309h2.6523v2.1094"/>
   <path d="m497.27 60.328c2.9336 0 4.0156-2.5078 4.0156-5.2734s-1.082-5.2734-4.0156-5.2734c-3.1641 0-4.0195 3.0234-4.0195 5.2734 0 2.2539 0.85547 5.2734 4.0195 5.2734zm4.1016-12.086h2.793c-0.0859 0.85547-0.16797 1.7109-0.16797 2.5664v10.062c0 5.2422-2.2812 7.3828-7.5273 7.3828-3.0781 0-5.2695-1.3125-5.3008-4.6172h2.8516c0.11328 1.9102 1.4258 2.6484 3.3359 2.6484 3.8477 0 3.8477-3.1914 3.9297-6.4141h-0.082c-0.85547 1.7109-2.9375 2.4258-4.707 2.4258-4.3594 0-6.0977-3.0781-6.0977-7.0977 0-4.1328 2.3086-7.3828 6.6406-7.3828 1.3984 0 2.9375 0.57031 3.8203 1.8789 0.0586 0.05859 0.42578 0.88672 0.42578 0.6875l0.0859-2.1406"/>
   <path d="m516.22 62.551v-20.578h2.8516v18.129h9.5781v2.4492h-12.43"/>
   <path d="m540.96 54.031c0.0547-2.3945-1.0273-4.25-3.6484-4.25-2.2539 0-3.5938 1.9102-3.5938 4.25zm-7.2422 1.8789c-0.19922 2.5078 0.82812 5.1016 3.5938 5.1016 2.1094 0 3.1641-0.82422 3.4766-2.9062h2.8477c-0.42578 3.25-2.9336 4.875-6.3555 4.875-4.5898 0-6.4141-3.25-6.4141-7.4688 0-4.1914 2.1094-7.6953 6.6445-7.6953 4.2734 0.08594 6.2969 2.793 6.2969 6.7539v1.3398h-10.09"/>
   <path d="m553.47 55.598c-1.6523 0.08594-3.8477 0.68359-3.8477 2.7656 0 1.7656 1.2266 2.6484 2.8242 2.6484 3.1914 0 3.7891-2.7617 3.7344-5.4141zm2.7109-1.8828c0-2.4766-0.14453-3.9336-3.0234-3.9336-1.3672 0-2.6484 0.80078-2.6797 2.2812h-2.8477c0.14062-3.1367 2.5938-4.2461 5.4141-4.2461 2.9375 0 5.8438 0.88281 5.8438 4.875v6.8398c0 0.625 0.0273 1.8242 0.11328 3.0195h-1.8242c-0.25781 0-0.74219 0.14453-0.76953-0.19922-0.0586-0.65625-0.11328-1.2812-0.14062-1.9375h-0.0586c-0.88281 1.7969-2.4805 2.5664-4.4453 2.5664-2.4805 0-4.9883-1.2852-4.9883-4.0781 0-4.0156 3.5625-5.1875 6.9531-5.1875h2.4531"/>
   <path d="m569.54 61.098c3.2773 0 4.0469-3.0508 4.0469-5.7266 0-2.5938-0.96875-5.6758-4.0469-5.6758-3.25 0-4.0469 2.9961-4.0469 5.6758 0 2.6758 1 5.7266 4.0469 5.7266zm4.0195-19.125h2.707v18.043c0 0.85547 0.0859 1.7109 0.14453 2.5352h-2.7656l-0.0859-2.1367v-0.14062h-0.0547c-0.97266 1.9922-2.8516 2.707-4.9336 2.707-4.2461 0-5.9297-3.9062-5.9297-7.582 0-3.8789 1.9688-7.582 6.4141-7.582 1.8242 0 3.6211 0.65625 4.4492 2.3672h0.0547v-8.2109"/>
   <path d="m590.07 54.031c0.0547-2.3945-1.0273-4.25-3.6523-4.25-2.25 0-3.5898 1.9102-3.5898 4.25zm-7.2422 1.8789c-0.19922 2.5078 0.82812 5.1016 3.5898 5.1016 2.1133 0 3.1641-0.82422 3.4805-2.9062h2.8477c-0.42578 3.25-2.9336 4.875-6.3555 4.875-4.5898 0-6.4141-3.25-6.4141-7.4688 0-4.1914 2.1094-7.6953 6.6445-7.6953 4.2734 0.08594 6.2969 2.793 6.2969 6.7539v1.3398h-10.09"/>
   <path d="m599.73 62.551h-2.7109v-14.309h2.7109v2.7656h0.0547c0.39844-1.9648 2.2227-2.9648 4.1914-2.9648 0.33984 0 0.625 0.03125 0.9375 0.03125v2.5625c-0.36719-0.14062-0.79688-0.14062-1.168-0.14062-3.418 0.11328-4.0156 1.9375-4.0156 4.957v7.0977"/>
   <path d="m612.58 47.816c2.707 0 5.7578 1.1406 5.5586 4.3906h-2.8516c0.11719-1.8242-1.2812-2.4258-2.8477-2.4258-1.4531 0-2.625 0.68359-2.625 2.2812s2.4531 1.7109 3.4766 2.0234c2.4258 0.80078 5.2188 1.082 5.2188 4.3047 0 3.5078-3.4219 4.5898-6.3555 4.5898-2.9922 0-5.5039-1.3672-5.4727-4.6758h2.8477c0.0586 1.7695 1.2539 2.707 2.9102 2.707 1.5938 0 3.2188-0.625 3.2188-2.4766 0-3.1953-8.6914-0.80078-8.6914-6.3867 0-2.9922 3.0195-4.332 5.6133-4.332"/>
   <path d="m622.27 62.551v-20.578h2.707v8.1797h0.0547c1.0273-1.5938 2.5664-2.3359 4.6484-2.3359 3.7305 0 4.9023 2.4805 4.9023 5.043v9.6914h-2.7109v-8.4648c0-2.5078-0.65234-4.1328-3.1914-4.1875-1.082-0.03125-2.7344 0.79687-3.2461 1.9922-0.62891 1.4844-0.45703 2.5078-0.45703 3.3086v7.3516h-2.707"/>
   <path d="m639.74 62.551v-14.309h2.707v14.309zm-0.25781-20.578h3.2227v2.9375h-3.2227v-2.9375"/>
   <path d="m654.25 49.781c-3.0781 0-4.0469 3.0234-4.0469 5.6172 0 2.6797 0.76953 5.6133 3.7891 5.6133 3.3086 0 4.3047-2.9336 4.3047-5.6133s-0.79688-5.6172-4.0469-5.6172zm-6.7539 1.0273c-0.0312-0.85547-0.0859-1.7109-0.14453-2.5664h2.7656l0.0859 2.2812h0.0547c0.82812-2.0508 2.625-2.707 4.875-2.707 4.0195 0 6.0156 3.7031 6.0156 7.582 0 3.6758-1.7109 7.582-6.8711 7.582-1.168 0-3.0508-0.57031-3.9883-2.0547h-0.0859v7.0977h-2.707v-17.215"/>
   <path d="m129.78 41.738h20.852l-10.156-27.051zm-16.668 21.242 23.566-55.969h8.293l22.633 55.969h-8.4492l-6.043-14.574h-25.969l-6.0469 14.574h-7.9844"/>
   <path d="m196.62 57.477c14.184 0 17.441-10.852 17.441-22.48 0-11.938-3.2578-22.48-17.441-22.48s-17.441 10.543-17.441 22.48c0 11.629 3.2578 22.48 17.441 22.48zm0-51.625c17.441 0 25.582 12.789 25.582 29.145 0 16.355-8.1406 29.145-25.582 29.145s-25.578-12.789-25.578-29.145c0-16.355 8.1367-29.145 25.578-29.145"/>
   <path d="m278.01 7.0117v55.969h-9.6133l-28.293-47.52h-0.15234v47.52h-6.8984v-55.969h10.617l27.285 46.277h0.15625v-46.277h6.8984"/>
   <path d="m293.39 62.98v-55.969h7.75v49.301h26.047v6.668h-33.797"/>
  </g>
  <g clip-path="url(#b)" stroke-width=".57872">
   <path d="m342.71 69.988h-1.5v-69.984h1.5v69.984" fill="#283982" stroke-width=".33492"/>
  </g>
  <g stroke-width=".33492">
   <path d="m90.797 41.754-38.711-38.691h20.555l38.711 38.691h-20.555" fill="#60192d"/>
   <path d="m111.35 41.754h-20.555l-21.387 21.34h20.555l21.387-21.34" fill="#d71a34"/>
   <path d="m55.34 63.094 38.652-38.688h-20.555l-38.652 38.688h20.555" fill="#d71a34"/>
   <path d="m56.105 41.754-38.613-38.691h20.555l38.613 38.691h-20.555" fill="#283982"/>
   <path d="m20.555 63.094 38.711-38.688h-20.555l-38.711 38.688h20.555" fill="#77b5e6"/>
  </g>
  <g clip-path="url(#a)" stroke-width=".57872">
   <path d="m677.82 47.676h-1.0586v-5.7773h-0.0312l-2.3047 5.7773h-0.625l-2.2422-5.7773h-0.0312v5.7773h-1.0547v-6.7383h1.7109l1.9375 4.7539 2-4.7539h1.6992zm-8.5508-5.7773h-2.1602v5.7773h-1.1211v-5.7773h-2.1758v-0.96094h5.457v0.96094" fill="#283982" stroke-width=".33492"/>
  </g>
 </g>
 <g fill="#283982" stroke-width="1.6488" aria-label="The video stream will begin at today's scheduled start time.   ">
  <path d="m192.19 609.48h27.116v3.6498h-11.379v28.404h-4.3583v-28.404h-11.379z"/>
  <path d="m243.31 627.02v14.513h-3.9504v-14.385q0-3.4136-1.3311-5.1097-1.3311-1.6961-3.9933-1.6961-3.199 0-5.0453 2.0396-1.8464 2.0396-1.8464 5.5606v13.59h-3.9718v-33.406h3.9718v13.096q1.417-2.1684 3.3278-3.2419 1.9322-1.0735 4.4442-1.0735 4.1436 0 6.2691 2.5763 2.1255 2.5549 2.1255 7.5358z"/>
  <path d="m271.75 628.52v1.9322h-18.163q0.25763 4.0792 2.4475 6.2261 2.2114 2.1255 6.1402 2.1255 2.2758 0 4.4012-0.5582 2.1469-0.55821 4.251-1.6746v3.7357q-2.1255 0.90172-4.3583 1.374-2.2328 0.47233-4.53 0.47233-5.7538 0-9.1245-3.3492-3.3492-3.3492-3.3492-9.0601 0-5.9041 3.1775-9.3607 3.1989-3.478 8.6092-3.478 4.8521 0 7.6646 3.1345 2.834 3.1131 2.834 8.4804zm-3.9504-1.1594q-0.0429-3.2419-1.8249-5.1741-1.7605-1.9322-4.6803-1.9322-3.3063 0-5.303 1.8678-1.9752 1.8678-2.2758 5.26z"/>
  <path d="m289.38 617.49h4.1865l7.5143 20.181 7.5143-20.181h4.1865l-9.0172 24.046h-5.3674z"/>
  <path d="m318.24 617.49h3.9504v24.046h-3.9504zm0-9.3607h3.9504v5.0024h-3.9504z"/>
  <path d="m346.27 621.14v-13.01h3.9504v33.406h-3.9504v-3.6069q-1.2452 2.147-3.156 3.199-1.8893 1.0305-4.5515 1.0305-4.3583 0-7.1064-3.478-2.7266-3.478-2.7266-9.146t2.7266-9.146q2.7481-3.478 7.1064-3.478 2.6622 0 4.5515 1.052 1.9108 1.0305 3.156 3.1775zm-13.461 8.3946q0 4.3583 1.782 6.8487 1.8034 2.469 4.938 2.469t4.938-2.469q1.8034-2.4904 1.8034-6.8487 0-4.3583-1.8034-6.8273-1.8034-2.4905-4.938-2.4905t-4.938 2.4905q-1.782 2.469-1.782 6.8273z"/>
  <path d="m378.93 628.52v1.9322h-18.163q0.25763 4.0792 2.4475 6.2261 2.2114 2.1255 6.1402 2.1255 2.2758 0 4.4012-0.5582 2.1469-0.55821 4.251-1.6746v3.7357q-2.1255 0.90172-4.3583 1.374-2.2328 0.47233-4.53 0.47233-5.7538 0-9.1245-3.3492-3.3492-3.3492-3.3492-9.0601 0-5.9041 3.1775-9.3607 3.1989-3.478 8.6092-3.478 4.8521 0 7.6646 3.1345 2.834 3.1131 2.834 8.4804zm-3.9504-1.1594q-0.0429-3.2419-1.8249-5.1741-1.7605-1.9322-4.6803-1.9322-3.3063 0-5.303 1.8678-1.9752 1.8678-2.2758 5.26z"/>
  <path d="m394.73 620.26q-3.1775 0-5.0238 2.4904-1.8464 2.469-1.8464 6.7844 0 4.3154 1.8249 6.8058 1.8464 2.469 5.0453 2.469 3.156 0 5.0024-2.4904 1.8464-2.4905 1.8464-6.7843 0-4.2724-1.8464-6.7629-1.8464-2.5119-5.0024-2.5119zm0-3.3492q5.1527 0 8.094 3.3492 2.9413 3.3492 2.9413 9.2748 0 5.9041-2.9413 9.2748-2.9413 3.3492-8.094 3.3492-5.1741 0-8.1154-3.3492-2.9198-3.3707-2.9198-9.2748 0-5.9256 2.9198-9.2748 2.9413-3.3492 8.1154-3.3492z"/>
  <path d="m441.62 618.2v3.7357q-1.6746-0.85878-3.478-1.2882-1.8034-0.42939-3.7357-0.42939-2.9413 0-4.4227 0.90172-1.4599 0.90171-1.4599 2.7052 0 1.374 1.052 2.1684 1.052 0.7729 4.2295 1.4814l1.3526 0.30057q4.208 0.90172 5.9685 2.5549 1.782 1.6317 1.782 4.573 0 3.3492-2.6622 5.303-2.6407 1.9537-7.2781 1.9537-1.9322 0-4.0362-0.38645-2.0825-0.36498-4.4012-1.1164v-4.0792q2.1899 1.1379 4.3154 1.7176 2.1255 0.55821 4.208 0.55821 2.791 0 4.2939-0.94466 1.5029-0.96612 1.5029-2.7051 0-1.6102-1.0949-2.469-1.0735-0.85878-4.7447-1.6532l-1.374-0.32204q-3.6713-0.7729-5.303-2.3616-1.6317-1.6102-1.6317-4.4012 0-3.3922 2.4046-5.2385 2.4046-1.8464 6.8273-1.8464 2.1899 0 4.1221 0.32204 1.9322 0.32204 3.5639 0.96613z"/>
  <path d="m453.11 610.66v6.8273h8.1369v3.0701h-8.1369v13.053q0 2.9413 0.79436 3.7786 0.81584 0.83731 3.2848 0.83731h4.0577v3.3063h-4.0577q-4.573 0-6.312-1.6961-1.739-1.7176-1.739-6.2261v-13.053h-2.8984v-3.0701h2.8984v-6.8273z"/>
  <path d="m480.37 621.18q-0.66555-0.38645-1.4599-0.55821-0.7729-0.19322-1.7176-0.19322-3.3492 0-5.1527 2.1899-1.782 2.1684-1.782 6.2476v12.667h-3.9718v-24.046h3.9718v3.7357q1.2452-2.1899 3.2419-3.2419 1.9967-1.0735 4.8521-1.0735 0.40792 0 0.90172 0.0644 0.4938 0.0429 1.0949 0.15028z"/>
  <path d="m504.12 628.52v1.9322h-18.163q0.25763 4.0792 2.4475 6.2261 2.2114 2.1255 6.1402 2.1255 2.2758 0 4.4012-0.5582 2.1469-0.55821 4.2509-1.6746v3.7357q-2.1255 0.90172-4.3583 1.374-2.2328 0.47233-4.53 0.47233-5.7538 0-9.1245-3.3492-3.3492-3.3492-3.3492-9.0601 0-5.9041 3.1775-9.3607 3.199-3.478 8.6092-3.478 4.8521 0 7.6646 3.1345 2.834 3.1131 2.834 8.4804zm-3.9504-1.1594q-0.0429-3.2419-1.8249-5.1741-1.7605-1.9322-4.6803-1.9322-3.3063 0-5.303 1.8678-1.9752 1.8678-2.2758 5.26z"/>
  <path d="m521.53 629.45q-4.7877 0-6.6341 1.0949t-1.8464 3.7357q0 2.104 1.374 3.3492 1.3955 1.2238 3.7786 1.2238 3.2848 0 5.26-2.3187 1.9966-2.3402 1.9966-6.2047v-0.88024zm7.8793-1.6317v13.719h-3.9504v-3.6498q-1.3526 2.1899-3.3707 3.2419-2.0181 1.0305-4.938 1.0305-3.6927 0-5.8826-2.0611-2.1684-2.0825-2.1684-5.5606 0-4.0577 2.7051-6.1188 2.7266-2.0611 8.1154-2.0611h5.5391v-0.38645q0-2.7266-1.8034-4.208-1.782-1.5029-5.0238-1.5029-2.0611 0-4.0148 0.4938-1.9537 0.49379-3.7572 1.4814v-3.6498q2.1684-0.8373 4.208-1.2452 2.0396-0.42939 3.9718-0.42939 5.2171 0 7.7934 2.7052t2.5763 8.2013z"/>
  <path d="m556.27 622.1q1.4814-2.6622 3.5425-3.9289 2.0611-1.2667 4.8521-1.2667 3.7572 0 5.7968 2.6407 2.0396 2.6193 2.0396 7.4714v14.513h-3.9718v-14.385q0-3.4566-1.2238-5.1312-1.2238-1.6746-3.7357-1.6746-3.0701 0-4.8521 2.0396-1.782 2.0396-1.782 5.5606v13.59h-3.9718v-14.385q0-3.478-1.2238-5.1312-1.2238-1.6746-3.7786-1.6746-3.0272 0-4.8092 2.0611-1.782 2.0396-1.782 5.5391v13.59h-3.9718v-24.046h3.9718v3.7357q1.3526-2.2114 3.2419-3.2634t4.4871-1.052q2.6193 0 4.4442 1.3311 1.8464 1.3311 2.7266 3.8645z"/>
  <path d="m592.06 617.49h3.9504l4.938 18.764 4.9165-18.764h4.6589l4.938 18.764 4.9165-18.764h3.9504l-6.2905 24.046h-4.6589l-5.1741-19.709-5.1956 19.709h-4.6589z"/>
  <path d="m630.31 617.49h3.9504v24.046h-3.9504zm0-9.3607h3.9504v5.0024h-3.9504z"/>
  <path d="m642.53 608.13h3.9504v33.406h-3.9504z"/>
  <path d="m654.75 608.13h3.9504v33.406h-3.9504z"/>
  <path d="m698.2 629.53q0-4.3583-1.8034-6.8273-1.782-2.4905-4.9165-2.4905t-4.938 2.4905q-1.782 2.469-1.782 6.8273 0 4.3583 1.782 6.8487 1.8034 2.469 4.938 2.469t4.9165-2.469q1.8034-2.4904 1.8034-6.8487zm-13.44-8.3946q1.2452-2.147 3.1345-3.1775 1.9108-1.052 4.5515-1.052 4.3798 0 7.1064 3.478 2.7481 3.478 2.7481 9.146t-2.7481 9.146q-2.7266 3.478-7.1064 3.478-2.6407 0-4.5515-1.0305-1.8893-1.052-3.1345-3.199v3.6069h-3.9718v-33.406h3.9718z"/>
  <path d="m729.42 628.52v1.9322h-18.163q0.25763 4.0792 2.4475 6.2261 2.2114 2.1255 6.1402 2.1255 2.2758 0 4.4012-0.5582 2.1469-0.55821 4.251-1.6746v3.7357q-2.1255 0.90172-4.3583 1.374-2.2328 0.47233-4.53 0.47233-5.7538 0-9.1245-3.3492-3.3492-3.3492-3.3492-9.0601 0-5.9041 3.1775-9.3607 3.1989-3.478 8.6092-3.478 4.8521 0 7.6646 3.1345 2.834 3.1131 2.834 8.4804zm-3.9504-1.1594q-0.0429-3.2419-1.8249-5.1741-1.7605-1.9322-4.6803-1.9322-3.3063 0-5.303 1.8678-1.9752 1.8678-2.2758 5.26z"/>
  <path d="m751.72 629.23q0-4.2939-1.782-6.6555-1.7605-2.3616-4.9594-2.3616-3.1775 0-4.9594 2.3616-1.7605 2.3616-1.7605 6.6555 0 4.2724 1.7605 6.6341 1.782 2.3616 4.9594 2.3616 3.1989 0 4.9594-2.3616 1.782-2.3616 1.782-6.6341zm3.9504 9.3177q0 6.1403-2.7266 9.1245-2.7266 3.0057-8.3516 3.0057-2.0825 0-3.9289-0.32204-1.8464-0.30058-3.5854-0.94466v-3.843q1.739 0.94466 3.4351 1.3955 1.6961 0.45085 3.4566 0.45085 3.886 0 5.8182-2.0396 1.9322-2.0181 1.9322-6.1188v-1.9537q-1.2238 2.1255-3.1345 3.1775-1.9108 1.052-4.573 1.052-4.4227 0-7.1278-3.3707t-2.7052-8.9313q0-5.582 2.7052-8.9528t7.1278-3.3707q2.6622 0 4.573 1.052t3.1345 3.1775v-3.6498h3.9504z"/>
  <path d="m763.81 617.49h3.9504v24.046h-3.9504zm0-9.3607h3.9504v5.0024h-3.9504z"/>
  <path d="m796.02 627.02v14.513h-3.9504v-14.385q0-3.4136-1.3311-5.1097-1.3311-1.6961-3.9933-1.6961-3.199 0-5.0453 2.0396-1.8464 2.0396-1.8464 5.5606v13.59h-3.9718v-24.046h3.9718v3.7357q1.417-2.1684 3.3278-3.2419 1.9322-1.0735 4.4442-1.0735 4.1436 0 6.2691 2.5763 2.1255 2.5549 2.1255 7.5358z"/>
  <path d="m828.8 629.45q-4.7877 0-6.6341 1.0949t-1.8464 3.7357q0 2.104 1.374 3.3492 1.3955 1.2238 3.7786 1.2238 3.2848 0 5.26-2.3187 1.9967-2.3402 1.9967-6.2047v-0.88024zm7.8793-1.6317v13.719h-3.9504v-3.6498q-1.3526 2.1899-3.3707 3.2419-2.0181 1.0305-4.938 1.0305-3.6927 0-5.8826-2.0611-2.1684-2.0825-2.1684-5.5606 0-4.0577 2.7052-6.1188 2.7266-2.0611 8.1154-2.0611h5.5391v-0.38645q0-2.7266-1.8034-4.208-1.782-1.5029-5.0238-1.5029-2.0611 0-4.0148 0.4938-1.9537 0.49379-3.7572 1.4814v-3.6498q2.1684-0.8373 4.208-1.2452 2.0396-0.42939 3.9718-0.42939 5.2171 0 7.7934 2.7052 2.5763 2.7052 2.5763 8.2013z"/>
  <path d="m848.72 610.66v6.8273h8.1369v3.0701h-8.1369v13.053q0 2.9413 0.79437 3.7786 0.81584 0.83731 3.2848 0.83731h4.0577v3.3063h-4.0577q-4.573 0-6.312-1.6961-1.739-1.7176-1.739-6.2261v-13.053h-2.8984v-3.0701h2.8984v-6.8273z"/>
  <path d="m879.94 610.66v6.8273h8.1369v3.0701h-8.1369v13.053q0 2.9413 0.79437 3.7786 0.81583 0.83731 3.2848 0.83731h4.0577v3.3063h-4.0577q-4.573 0-6.312-1.6961-1.739-1.7176-1.739-6.2261v-13.053h-2.8984v-3.0701h2.8984v-6.8273z"/>
  <path d="m902.59 620.26q-3.1775 0-5.0238 2.4904-1.8464 2.469-1.8464 6.7844 0 4.3154 1.8249 6.8058 1.8464 2.469 5.0453 2.469 3.156 0 5.0024-2.4904 1.8464-2.4905 1.8464-6.7843 0-4.2724-1.8464-6.7629-1.8464-2.5119-5.0024-2.5119zm0-3.3492q5.1527 0 8.094 3.3492t2.9413 9.2748q0 5.9041-2.9413 9.2748-2.9413 3.3492-8.094 3.3492-5.1741 0-8.1154-3.3492-2.9198-3.3707-2.9198-9.2748 0-5.9256 2.9198-9.2748 2.9413-3.3492 8.1154-3.3492z"/>
  <path d="m936 621.14v-13.01h3.9504v33.406h-3.9504v-3.6069q-1.2452 2.147-3.156 3.199-1.8893 1.0305-4.5515 1.0305-4.3583 0-7.1064-3.478-2.7266-3.478-2.7266-9.146t2.7266-9.146q2.7481-3.478 7.1064-3.478 2.6622 0 4.5515 1.052 1.9108 1.0305 3.156 3.1775zm-13.461 8.3946q0 4.3583 1.782 6.8487 1.8034 2.469 4.938 2.469 3.1345 0 4.938-2.469 1.8034-2.4904 1.8034-6.8487 0-4.3583-1.8034-6.8273-1.8034-2.4905-4.938-2.4905-3.1345 0-4.938 2.4905-1.782 2.469-1.782 6.8273z"/>
  <path d="m959.01 629.45q-4.7877 0-6.634 1.0949t-1.8464 3.7357q0 2.104 1.374 3.3492 1.3955 1.2238 3.7786 1.2238 3.2848 0 5.26-2.3187 1.9967-2.3402 1.9967-6.2047v-0.88024zm7.8793-1.6317v13.719h-3.9504v-3.6498q-1.3526 2.1899-3.3707 3.2419-2.0181 1.0305-4.938 1.0305-3.6927 0-5.8826-2.0611-2.1684-2.0825-2.1684-5.5606 0-4.0577 2.7052-6.1188 2.7266-2.0611 8.1154-2.0611h5.5391v-0.38645q0-2.7266-1.8034-4.208-1.782-1.5029-5.0238-1.5029-2.0611 0-4.0148 0.4938-1.9537 0.49379-3.7572 1.4814v-3.6498q2.1684-0.8373 4.208-1.2452 2.0396-0.42939 3.9718-0.42939 5.2171 0 7.7934 2.7052t2.5763 8.2013z"/>
  <path d="m985.03 643.77q-1.6746 4.2939-3.2634 5.6035-1.5887 1.3096-4.251 1.3096h-3.156v-3.3063h2.3187q1.6317 0 2.5334-0.7729 0.90172-0.77289 1.9967-3.6498l0.70849-1.8034-9.7256-23.659h4.1865l7.5143 18.807 7.5143-18.807h4.1865z"/>
  <path d="m1004.8 609.48v11.916h-3.6498v-11.916z"/>
  <path d="m1028.5 618.2v3.7357q-1.6746-0.85878-3.478-1.2882-1.8035-0.42939-3.7357-0.42939-2.9413 0-4.4227 0.90172-1.4599 0.90171-1.4599 2.7052 0 1.374 1.052 2.1684 1.052 0.7729 4.2294 1.4814l1.3526 0.30057q4.208 0.90172 5.9685 2.5549 1.782 1.6317 1.782 4.573 0 3.3492-2.6622 5.303-2.6408 1.9537-7.2782 1.9537-1.9322 0-4.0362-0.38645-2.0826-0.36498-4.4013-1.1164v-4.0792q2.1899 1.1379 4.3154 1.7176 2.1255 0.55821 4.208 0.55821 2.791 0 4.2939-0.94466 1.5028-0.96612 1.5028-2.7051 0-1.6102-1.0949-2.469-1.0735-0.85878-4.7447-1.6532l-1.3741-0.32204q-3.6713-0.7729-5.3029-2.3616-1.6317-1.6102-1.6317-4.4012 0-3.3922 2.4046-5.2385 2.4045-1.8464 6.8272-1.8464 2.1899 0 4.1222 0.32204 1.9322 0.32204 3.5639 0.96613z"/>
  <path d="m1065.3 618.2v3.7357q-1.6746-0.85878-3.4781-1.2882-1.8034-0.42939-3.7357-0.42939-2.9413 0-4.4227 0.90172-1.4599 0.90171-1.4599 2.7052 0 1.374 1.052 2.1684 1.052 0.7729 4.2295 1.4814l1.3526 0.30057q4.208 0.90172 5.9685 2.5549 1.7819 1.6317 1.7819 4.573 0 3.3492-2.6622 5.303-2.6407 1.9537-7.2781 1.9537-1.9323 0-4.0363-0.38645-2.0825-0.36498-4.4012-1.1164v-4.0792q2.1899 1.1379 4.3154 1.7176 2.1254 0.55821 4.208 0.55821 2.791 0 4.2938-0.94466 1.5029-0.96612 1.5029-2.7051 0-1.6102-1.0949-2.469-1.0735-0.85878-4.7448-1.6532l-1.374-0.32204q-3.6713-0.7729-5.303-2.3616-1.6316-1.6102-1.6316-4.4012 0-3.3922 2.4045-5.2385 2.4046-1.8464 6.8273-1.8464 2.1899 0 4.1221 0.32204 1.9323 0.32204 3.564 0.96613z"/>
  <path d="m1090.2 618.41v3.6927q-1.6747-0.92318-3.3707-1.374-1.6747-0.47233-3.3922-0.47233-3.843 0-5.9685 2.4475-2.1255 2.426-2.1255 6.8273 0 4.4012 2.1255 6.8487 2.1255 2.426 5.9685 2.426 1.7175 0 3.3922-0.45086 1.696-0.47232 3.3707-1.3955v3.6498q-1.6532 0.7729-3.4352 1.1594-1.7605 0.38645-3.7571 0.38645-5.4318 0-8.6307-3.4136-3.199-3.4136-3.199-9.2104 0-5.8826 3.2204-9.2533 3.2419-3.3707 8.8669-3.3707 1.8249 0 3.564 0.38645 1.739 0.36498 3.3707 1.1164z"/>
  <path d="m1117.1 627.02v14.513h-3.9504v-14.385q0-3.4136-1.3311-5.1097-1.3311-1.6961-3.9933-1.6961-3.1989 0-5.0453 2.0396-1.8464 2.0396-1.8464 5.5606v13.59h-3.9718v-33.406h3.9718v13.096q1.417-2.1684 3.3278-3.2419 1.9322-1.0735 4.4441-1.0735 4.1436 0 6.2691 2.5763 2.1255 2.5549 2.1255 7.5358z"/>
  <path d="m1145.5 628.52v1.9322h-18.163q0.2577 4.0792 2.4476 6.2261 2.2113 2.1255 6.1402 2.1255 2.2758 0 4.4012-0.5582 2.147-0.55821 4.251-1.6746v3.7357q-2.1255 0.90172-4.3583 1.374-2.2328 0.47233-4.5301 0.47233-5.7538 0-9.1245-3.3492-3.3492-3.3492-3.3492-9.0601 0-5.9041 3.1775-9.3607 3.1989-3.478 8.6092-3.478 4.8521 0 7.6646 3.1345 2.834 3.1131 2.834 8.4804zm-3.9504-1.1594q-0.043-3.2419-1.8249-5.1741-1.7605-1.9322-4.6803-1.9322-3.3063 0-5.303 1.8678-1.9752 1.8678-2.2757 5.26z"/>
  <path d="m1167.8 621.14v-13.01h3.9504v33.406h-3.9504v-3.6069q-1.2452 2.147-3.156 3.199-1.8893 1.0305-4.5515 1.0305-4.3583 0-7.1064-3.478-2.7266-3.478-2.7266-9.146t2.7266-9.146q2.7481-3.478 7.1064-3.478 2.6622 0 4.5515 1.052 1.9108 1.0305 3.156 3.1775zm-13.461 8.3946q0 4.3583 1.782 6.8487 1.8034 2.469 4.9379 2.469 3.1346 0 4.938-2.469 1.8034-2.4904 1.8034-6.8487 0-4.3583-1.8034-6.8273-1.8034-2.4905-4.938-2.4905-3.1345 0-4.9379 2.4905-1.782 2.469-1.782 6.8273z"/>
  <path d="m1179.5 632.04v-14.556h3.9504v14.406q0 3.4136 1.3311 5.1312 1.3311 1.6961 3.9933 1.6961 3.199 0 5.0453-2.0396 1.8679-2.0396 1.8679-5.5606v-13.633h3.9504v24.046h-3.9504v-3.6927q-1.4385 2.1899-3.3492 3.2634-1.8894 1.052-4.4013 1.052-4.1436 0-6.2905-2.5763-2.147-2.5763-2.147-7.5358z"/>
  <path d="m1207.8 608.13h3.9503v33.406h-3.9503z"/>
  <path d="m1240.6 628.52v1.9322h-18.163q0.2576 4.0792 2.4475 6.2261 2.2114 2.1255 6.1403 2.1255 2.2757 0 4.4012-0.5582 2.147-0.55821 4.251-1.6746v3.7357q-2.1255 0.90172-4.3583 1.374-2.2329 0.47233-4.5301 0.47233-5.7538 0-9.1245-3.3492-3.3492-3.3492-3.3492-9.0601 0-5.9041 3.1774-9.3607 3.199-3.478 8.6093-3.478 4.8521 0 7.6646 3.1345 2.8339 3.1131 2.8339 8.4804zm-3.9503-1.1594q-0.043-3.2419-1.8249-5.1741-1.7605-1.9322-4.6804-1.9322-3.3063 0-5.3029 1.8678-1.9752 1.8678-2.2758 5.26z"/>
  <path d="m1262.9 621.14v-13.01h3.9504v33.406h-3.9504v-3.6069q-1.2452 2.147-3.156 3.199-1.8893 1.0305-4.5515 1.0305-4.3583 0-7.1064-3.478-2.7266-3.478-2.7266-9.146t2.7266-9.146q2.7481-3.478 7.1064-3.478 2.6622 0 4.5515 1.052 1.9108 1.0305 3.156 3.1775zm-13.461 8.3946q0 4.3583 1.7819 6.8487 1.8035 2.469 4.938 2.469t4.938-2.469q1.8034-2.4904 1.8034-6.8487 0-4.3583-1.8034-6.8273-1.8035-2.4905-4.938-2.4905t-4.938 2.4905q-1.7819 2.469-1.7819 6.8273z"/>
  <path d="m1304.3 618.2v3.7357q-1.6747-0.85878-3.4781-1.2882t-3.7357-0.42939q-2.9413 0-4.4227 0.90172-1.4599 0.90171-1.4599 2.7052 0 1.374 1.052 2.1684 1.052 0.7729 4.2295 1.4814l1.3526 0.30057q4.208 0.90172 5.9685 2.5549 1.7819 1.6317 1.7819 4.573 0 3.3492-2.6622 5.303-2.6407 1.9537-7.2781 1.9537-1.9323 0-4.0363-0.38645-2.0825-0.36498-4.4012-1.1164v-4.0792q2.1899 1.1379 4.3153 1.7176 2.1255 0.55821 4.2081 0.55821 2.791 0 4.2938-0.94466 1.5029-0.96612 1.5029-2.7051 0-1.6102-1.0949-2.469-1.0735-0.85878-4.7448-1.6532l-1.374-0.32204q-3.6713-0.7729-5.303-2.3616-1.6317-1.6102-1.6317-4.4012 0-3.3922 2.4046-5.2385t6.8273-1.8464q2.1899 0 4.1221 0.32204 1.9323 0.32204 3.564 0.96613z"/>
  <path d="m1315.8 610.66v6.8273h8.1369v3.0701h-8.1369v13.053q0 2.9413 0.7943 3.7786 0.8159 0.83731 3.2849 0.83731h4.0577v3.3063h-4.0577q-4.573 0-6.312-1.6961-1.7391-1.7176-1.7391-6.2261v-13.053h-2.8983v-3.0701h2.8983v-6.8273z"/>
  <path d="m1340 629.45q-4.7876 0-6.634 1.0949t-1.8464 3.7357q0 2.104 1.3741 3.3492 1.3955 1.2238 3.7786 1.2238 3.2848 0 5.26-2.3187 1.9967-2.3402 1.9967-6.2047v-0.88024zm7.8793-1.6317v13.719h-3.9503v-3.6498q-1.3526 2.1899-3.3707 3.2419-2.0182 1.0305-4.938 1.0305-3.6928 0-5.8826-2.0611-2.1685-2.0825-2.1685-5.5606 0-4.0577 2.7052-6.1188 2.7266-2.0611 8.1154-2.0611h5.5392v-0.38645q0-2.7266-1.8035-4.208-1.7819-1.5029-5.0238-1.5029-2.0611 0-4.0148 0.4938-1.9537 0.49379-3.7572 1.4814v-3.6498q2.1685-0.8373 4.208-1.2452 2.0396-0.42939 3.9719-0.42939 5.2171 0 7.7934 2.7052t2.5763 8.2013z"/>
  <path d="m1370 621.18q-0.6656-0.38645-1.4599-0.55821-0.7729-0.19322-1.7176-0.19322-3.3492 0-5.1527 2.1899-1.7819 2.1684-1.7819 6.2476v12.667h-3.9719v-24.046h3.9719v3.7357q1.2452-2.1899 3.2419-3.2419 1.9966-1.0735 4.8521-1.0735 0.4079 0 0.9017 0.0644 0.4938 0.0429 1.0949 0.15028z"/>
  <path d="m1378 610.66v6.8273h8.1369v3.0701h-8.1369v13.053q0 2.9413 0.7944 3.7786 0.8158 0.83731 3.2848 0.83731h4.0577v3.3063h-4.0577q-4.573 0-6.312-1.6961-1.739-1.7176-1.739-6.2261v-13.053h-2.8984v-3.0701h2.8984v-6.8273z"/>
  <path d="m1409.2 610.66v6.8273h8.1369v3.0701h-8.1369v13.053q0 2.9413 0.7943 3.7786 0.8159 0.83731 3.2849 0.83731h4.0577v3.3063h-4.0577q-4.573 0-6.312-1.6961-1.7391-1.7176-1.7391-6.2261v-13.053h-2.8983v-3.0701h2.8983v-6.8273z"/>
  <path d="m1422.6 617.49h3.9504v24.046h-3.9504zm0-9.3607h3.9504v5.0024h-3.9504z"/>
  <path d="m1453.5 622.1q1.4814-2.6622 3.5425-3.9289 2.0611-1.2667 4.8521-1.2667 3.7571 0 5.7967 2.6407 2.0396 2.6193 2.0396 7.4714v14.513h-3.9718v-14.385q0-3.4566-1.2238-5.1312-1.2237-1.6746-3.7356-1.6746-3.0702 0-4.8521 2.0396-1.782 2.0396-1.782 5.5606v13.59h-3.9718v-14.385q0-3.478-1.2238-5.1312-1.2238-1.6746-3.7786-1.6746-3.0272 0-4.8092 2.0611-1.7819 2.0396-1.7819 5.5391v13.59h-3.9719v-24.046h3.9719v3.7357q1.3525-2.2114 3.2418-3.2634 1.8894-1.052 4.4872-1.052 2.6192 0 4.4441 1.3311 1.8464 1.3311 2.7266 3.8645z"/>
  <path d="m1498.2 628.52v1.9322h-18.163q0.2576 4.0792 2.4475 6.2261 2.2114 2.1255 6.1403 2.1255 2.2757 0 4.4012-0.5582 2.1469-0.55821 4.251-1.6746v3.7357q-2.1255 0.90172-4.3583 1.374-2.2329 0.47233-4.5301 0.47233-5.7538 0-9.1245-3.3492-3.3492-3.3492-3.3492-9.0601 0-5.9041 3.1774-9.3607 3.199-3.478 8.6093-3.478 4.8521 0 7.6646 3.1345 2.8339 3.1131 2.8339 8.4804zm-3.9503-1.1594q-0.043-3.2419-1.8249-5.1741-1.7605-1.9322-4.6804-1.9322-3.3063 0-5.3029 1.8678-1.9752 1.8678-2.2758 5.26z"/>
  <path d="m1505.2 636.08h4.5301v5.4532h-4.5301z"/>
 </g>
 <g fill="#283982" stroke-width="1.4272" aria-label="Thank you for your patience.">
  <path d="m553.02 694.48h25.819v3.4752h-10.834v27.045h-4.1498v-27.045h-10.834z"/>
  <path d="m601.69 711.19v13.819h-3.7614v-13.696q0-3.2503-1.2674-4.8653-1.2674-1.6149-3.8023-1.6149-3.0459 0-4.804 1.942t-1.758 5.2946v12.94h-3.7818v-31.808h3.7818v12.47q1.3492-2.0647 3.1686-3.0868 1.8398-1.0221 4.2316-1.0221 3.9454 0 5.9692 2.4531 2.0238 2.4326 2.0238 7.1752z"/>
  <path d="m619.6 713.5q-4.5586 0-6.3167 1.0426t-1.758 3.557q0 2.0034 1.3083 3.189 1.3288 1.1652 3.5978 1.1652 3.1277 0 5.0084-2.2078 1.9011-2.2282 1.9011-5.9078v-0.83813zm7.5023-1.5536v13.063h-3.7614v-3.4752q-1.2879 2.0851-3.2094 3.0868-1.9216 0.98123-4.7017 0.98123-3.5161 0-5.6012-1.9625-2.0647-1.9829-2.0647-5.2946 0-3.8636 2.5757-5.8261 2.5962-1.9625 7.7272-1.9625h5.2741v-0.36796q0-2.5962-1.7172-4.0067-1.6967-1.431-4.7835-1.431-1.9625 0-3.8227 0.47017-1.8602 0.47018-3.5774 1.4105v-3.4752q2.0647-0.79725 4.0067-1.1857 1.942-0.40884 3.7818-0.40884 4.9675 0 7.4206 2.5757t2.4531 7.809z"/>
  <path d="m653.88 711.19v13.819h-3.7614v-13.696q0-3.2503-1.2674-4.8653-1.2674-1.6149-3.8023-1.6149-3.0459 0-4.804 1.942t-1.758 5.2946v12.94h-3.7818v-22.895h3.7818v3.557q1.3492-2.0647 3.1686-3.0868 1.8398-1.0221 4.2316-1.0221 3.9454 0 5.9692 2.4531 2.0238 2.4326 2.0238 7.1752z"/>
  <path d="m661.24 693.2h3.7818v18.786l11.223-9.8736h4.804l-12.143 10.712 12.654 12.184h-4.9062l-11.632-11.182v11.182h-3.7818z"/>
  <path d="m708.46 727.13q-1.5945 4.0885-3.1072 5.3354t-4.0476 1.247h-3.005v-3.1481h2.2078q1.5536 0 2.4122-0.73593 0.85858-0.73592 1.9011-3.4752l0.6746-1.7172-9.2604-22.527h3.9863l7.1548 17.907 7.1548-17.907h3.9862z"/>
  <path d="m732.59 704.75q-3.0255 0-4.7835 2.3713-1.758 2.3509-1.758 6.4598t1.7376 6.4802q1.758 2.3509 4.804 2.3509 3.005 0 4.7631-2.3713t1.758-6.4598q0-4.068-1.758-6.4393-1.758-2.3918-4.7631-2.3918zm0-3.189q4.9062 0 7.7068 3.189t2.8006 8.8311q0 5.6216-2.8006 8.8311-2.8006 3.189-7.7068 3.189-4.9266 0-7.7272-3.189-2.7802-3.2094-2.7802-8.8311 0-5.6421 2.7802-8.8311 2.8006-3.189 7.7272-3.189z"/>
  <path d="m748.94 715.97v-13.86h3.7614v13.717q0 3.2503 1.2674 4.8857 1.2674 1.615 3.8023 1.615 3.0459 0 4.804-1.942 1.7785-1.942 1.7785-5.2946v-12.981h3.7614v22.895h-3.7614v-3.5161q-1.3696 2.0851-3.189 3.1072-1.7989 1.0017-4.1907 1.0017-3.9454 0-5.9896-2.4531t-2.0442-7.1753z"/>
  <path d="m800.76 693.2v3.1277h-3.5978q-2.0238 0-2.821 0.81769-0.77681 0.81769-0.77681 2.9437v2.0238h6.194v2.9232h-6.194v19.972h-3.7818v-19.972h-3.5978v-2.9232h3.5978v-1.5945q0-3.8227 1.7785-5.5603 1.7785-1.758 5.6421-1.758z"/>
  <path d="m812.78 704.75q-3.0255 0-4.7835 2.3713-1.758 2.3509-1.758 6.4598t1.7376 6.4802q1.758 2.3509 4.804 2.3509 3.005 0 4.7631-2.3713 1.758-2.3713 1.758-6.4598 0-4.068-1.758-6.4393-1.758-2.3918-4.7631-2.3918zm0-3.189q4.9062 0 7.7068 3.189t2.8006 8.8311q0 5.6216-2.8006 8.8311-2.8006 3.189-7.7068 3.189-4.9266 0-7.7272-3.189-2.7802-3.2094-2.7802-8.8311 0-5.6421 2.7802-8.8311 2.8006-3.189 7.7272-3.189z"/>
  <path d="m842.79 705.63q-0.63371-0.36796-1.3901-0.5315-0.73592-0.18398-1.6354-0.18398-3.189 0-4.9062 2.0851-1.6967 2.0647-1.6967 5.9487v12.061h-3.7818v-22.895h3.7818v3.557q1.1857-2.0851 3.0868-3.0868 1.9011-1.0221 4.62-1.0221 0.38841 0 0.85858 0.0613 0.47017 0.0409 1.0426 0.1431z"/>
  <path d="m869.57 727.13q-1.5945 4.0885-3.1072 5.3354-1.5127 1.247-4.0476 1.247h-3.005v-3.1481h2.2078q1.5536 0 2.4122-0.73593 0.85858-0.73592 1.9011-3.4752l0.6746-1.7172-9.2604-22.527h3.9863l7.1548 17.907 7.1548-17.907h3.9863z"/>
  <path d="m893.69 704.75q-3.0255 0-4.7835 2.3713-1.758 2.3509-1.758 6.4598t1.7376 6.4802q1.758 2.3509 4.804 2.3509 3.005 0 4.7631-2.3713t1.758-6.4598q0-4.068-1.758-6.4393-1.758-2.3918-4.7631-2.3918zm0-3.189q4.9062 0 7.7068 3.189t2.8006 8.8311q0 5.6216-2.8006 8.8311-2.8006 3.189-7.7068 3.189-4.9266 0-7.7272-3.189-2.7802-3.2094-2.7802-8.8311 0-5.6421 2.7802-8.8311 2.8006-3.189 7.7272-3.189z"/>
  <path d="m910.05 715.97v-13.86h3.7614v13.717q0 3.2503 1.2674 4.8857 1.2674 1.615 3.8023 1.615 3.0459 0 4.8039-1.942 1.7785-1.942 1.7785-5.2946v-12.981h3.7614v22.895h-3.7614v-3.5161q-1.3696 2.0851-3.189 3.1072-1.7989 1.0017-4.1907 1.0017-3.9454 0-5.9896-2.4531-2.0442-2.4531-2.0442-7.1753z"/>
  <path d="m950.24 705.63q-0.63372-0.36796-1.3901-0.5315-0.73593-0.18398-1.6354-0.18398-3.189 0-4.9062 2.0851-1.6967 2.0647-1.6967 5.9487v12.061h-3.7818v-22.895h3.7818v3.557q1.1856-2.0851 3.0868-3.0868 1.9011-1.0221 4.62-1.0221 0.3884 0 0.85857 0.0613 0.47018 0.0409 1.0426 0.1431z"/>
  <path d="m971.13 721.57v12.143h-3.7818v-31.604h3.7818v3.4752q1.1857-2.0442 2.9846-3.0255 1.8194-1.0017 4.3338-1.0017 4.1702 0 6.7664 3.3116 2.6166 3.3117 2.6166 8.7084 0 5.3968-2.6166 8.7084-2.5962 3.3117-6.7664 3.3117-2.5144 0-4.3338-0.98123-1.7989-1.0017-2.9846-3.0459zm12.797-7.993q0-4.1498-1.7172-6.5007-1.6967-2.3713-4.6813-2.3713t-4.7017 2.3713q-1.6967 2.3509-1.6967 6.5007 0 4.1498 1.6967 6.5211 1.7172 2.3509 4.7017 2.3509t4.6813-2.3509q1.7172-2.3713 1.7172-6.5211z"/>
  <path d="m1004.5 713.5q-4.5586 0-6.3166 1.0426t-1.758 3.557q0 2.0034 1.3083 3.189 1.3288 1.1652 3.5979 1.1652 3.1276 0 5.0083-2.2078 1.9012-2.2282 1.9012-5.9078v-0.83813zm7.5024-1.5536v13.063h-3.7614v-3.4752q-1.2879 2.0851-3.2095 3.0868-1.9216 0.98123-4.7017 0.98123-3.5161 0-5.6012-1.9625-2.0647-1.9829-2.0647-5.2946 0-3.8636 2.5757-5.8261 2.5962-1.9625 7.7272-1.9625h5.2741v-0.36796q0-2.5962-1.7172-4.0067-1.6967-1.431-4.7835-1.431-1.9624 0-3.8227 0.47017-1.8603 0.47018-3.5774 1.4105v-3.4752q2.0647-0.79725 4.0067-1.1857 1.942-0.40884 3.7818-0.40884 4.9675 0 7.4206 2.5757t2.4531 7.809z"/>
  <path d="m1023.4 695.61v6.5007h7.7477v2.9232h-7.7477v12.429q0 2.8006 0.7564 3.5978 0.7768 0.79725 3.1276 0.79725h3.8637v3.1481h-3.8637q-4.3542 0-6.01-1.6149-1.6558-1.6354-1.6558-5.9283v-12.429h-2.7597v-2.9232h2.7597v-6.5007z"/>
  <path d="m1036.1 702.11h3.7614v22.895h-3.7614zm0-8.9129h3.7614v4.7631h-3.7614z"/>
  <path d="m1067.4 712.62v1.8398h-17.294q0.2453 3.884 2.3304 5.9283 2.1056 2.0238 5.8466 2.0238 2.1668 0 4.1906-0.5315 2.0443-0.5315 4.0476-1.5945v3.557q-2.0238 0.85858-4.1498 1.3083t-4.3133 0.44973q-5.4786 0-8.688-3.189-3.189-3.189-3.189-8.6267 0-5.6216 3.0255-8.9129 3.0459-3.3116 8.1973-3.3116 4.62 0 7.2979 2.9846 2.6984 2.9641 2.6984 8.0747zm-3.7614-1.1039q-0.041-3.0868-1.7376-4.9266-1.6762-1.8398-4.4564-1.8398-3.1481 0-5.0492 1.7785-1.8807 1.7785-2.1669 5.0084z"/>
  <path d="m1092.6 711.19v13.819h-3.7614v-13.696q0-3.2503-1.2674-4.8653-1.2675-1.6149-3.8023-1.6149-3.0459 0-4.804 1.942-1.758 1.942-1.758 5.2946v12.94h-3.7818v-22.895h3.7818v3.557q1.3492-2.0647 3.1686-3.0868 1.8398-1.0221 4.2315-1.0221 3.9454 0 5.9692 2.4531 2.0238 2.4326 2.0238 7.1752z"/>
  <path d="m1116.5 702.99v3.5161q-1.5945-0.87902-3.2094-1.3083-1.5945-0.44973-3.2299-0.44973-3.6592 0-5.683 2.3304-2.0238 2.31-2.0238 6.5007t2.0238 6.5211q2.0238 2.31 5.683 2.31 1.6354 0 3.2299-0.42928 1.6149-0.44974 3.2094-1.3288v3.4752q-1.5741 0.73592-3.2708 1.1039-1.6762 0.36796-3.5774 0.36796-5.1719 0-8.2178-3.2503t-3.0459-8.7698q0-5.6012 3.0663-8.8106 3.0868-3.2094 8.4427-3.2094 1.7376 0 3.3935 0.36796 1.6558 0.34752 3.2094 1.063z"/>
  <path d="m1142.7 712.62v1.8398h-17.294q0.2453 3.884 2.3304 5.9283 2.1056 2.0238 5.8465 2.0238 2.1669 0 4.1907-0.5315 2.0442-0.5315 4.0476-1.5945v3.557q-2.0238 0.85858-4.1498 1.3083t-4.3133 0.44973q-5.4786 0-8.688-3.189-3.189-3.189-3.189-8.6267 0-5.6216 3.0254-8.9129 3.0459-3.3116 8.1974-3.3116 4.62 0 7.2979 2.9846 2.6984 2.9641 2.6984 8.0747zm-3.7614-1.1039q-0.041-3.0868-1.7376-4.9266-1.6763-1.8398-4.4564-1.8398-3.1481 0-5.0493 1.7785-1.8807 1.7785-2.1669 5.0084z"/>
  <path d="m1149.4 719.81h4.3133v5.1924h-4.3133z"/>
 </g>
</svg>
