<svg version="1.1" viewBox="0 0 176.76 126.47" xmlns="http://www.w3.org/2000/svg">
 <g transform="matrix(1.3333 0 0 -1.3333 0 144)">
  <g>
   <path d="m61.906 48.912c0-2.8449-2.3004-5.1496-5.1489-5.1496h-49.753c-2.8461 0-5.1488 2.3047-5.1488 5.1496v52.222c0 2.844 2.3027 5.154 5.1488 5.154h49.753c2.8485 0 5.1489-2.31 5.1489-5.154v-52.222" fill="#25468d"/>
   <path d="m52.269 97.236v-44.076h-11.444v16.996h-17.988v-16.996h-11.444v44.076h11.444v-15.945h17.988v15.945h11.444" fill="#fff"/>
   <path d="m3.1996 49.412v51.002c0 2.415 2.2309 4.385 4.975 4.385h47.241c2.7465 0 4.9727-1.97 4.9727-4.385v-51.002c0-2.416-2.2262-4.3848-4.9727-4.3848h-47.241c-2.7441 0-4.975 1.9688-4.975 4.3848m17.532-36.268c0.0207 1.284 0.8926 2.3953 0.8926 2.3953 0.7504 0.7715 1.3078 2.7325 8.3695 3.9219 3.1278 0.5207 6.6645 0.5051 10.396 0.4817 5.909-0.0372 12.013-0.0723 18.034 1.8984 0.0996 0.032 0.2789 0.1062 0.2789 0.1062h-0.0047c6.1254 1.8782 12.669 6.175 18.996 10.361 3.7813 2.4941 7.3496 4.8496 10.58 6.5371 1.5566 0.7668 3.0418 1.3761 4.5242 1.8683 5.175 1.7051 10.916 1.661 16.468 1.6219 3.906-0.0234 7.604-0.0488 11.005 0.5274l0.172 0.0253c3.653 0.6114 11.265 1.8918 12.076 8.802-0.016-0.093 0.025 0.0449 0.025 0.0449l0.024 0.0879-4e-3 54.49h-5.045c-0.037-1.074-0.507-1.935-1.148-2.654-0.967-1.087-1.827-2.437-8.245-3.594-3.114-0.5553-6.655-0.4947-10.393-0.4764-5.909 0.0305-12.017 0.0742-18.037-1.9035-1.7707-0.5808-3.5508-1.3266-5.4278-2.2469-3.6046-1.8707-7.3086-4.3199-11.224-6.9058-3.1414-2.0703-6.3484-4.1781-9.4527-5.9485v17.829c0 4.183-3.6692 7.585-8.177 7.585h-47.241c-4.5125 0-8.1746-3.402-8.1746-7.585v-51.002c0-4.1875 3.6621-7.5937 8.1746-7.5937h7.9402v-28.674h4.6172" fill="#fff"/>
   <g fill="#a11834">
    <path d="m118.7 56.414c-8.354-1.3946-18.666 0.7804-27.95-2.259-1.7195-0.5742-3.3836-1.2828-4.998-2.0746-5.9981-3.1145-12.964-8.3703-19.698-12.314-1.6382-0.8457-3.2207-1.657-4.6847-2.4168-1.5571-0.7734-3.1559-1.4473-4.8215-2-0.0559-0.0187-0.1117-0.0449-0.1746-0.0637v-0.0086h-0.0024c-9.4062-3.091-20.078-0.9433-27.949-2.2609-3.0765-0.5184-9.039-1.4363-9.5781-6.0281v-10.673c0.6785 4.6477 7.582 6.0403 10.656 6.5578 8.3559 1.4063 18.664-0.7804 27.95 2.2704 0.0625 0.0136 0.1183 0.046 0.1832 0.0656 9.2183 2.739 20.286 12.104 29.191 16.727 1.6211 0.802 3.2761 1.511 5.0027 2.0735 9.4104 3.0945 20.088 0.9382 27.944 2.2675 3.079 0.5157 9.041 1.4364 9.583 6.0203v10.675c-0.681-4.6449-7.58-6.0371-10.654-6.5593"/>
    <path d="m118.7 76.872c-8.354-1.4035-18.666 0.7781-27.95-2.2656-1.7195-0.5668-3.3836-1.2688-4.998-2.0731-6.7039-3.4781-14.633-9.6359-22.073-13.642v-11.091c7.7469 3.9777 16.122 10.563 23.145 14.211 1.6211 0.7996 3.2761 1.4989 5.0027 2.068 9.4104 3.0977 20.088 0.9434 27.944 2.2613 3.079 0.5231 9.041 1.4387 9.583 6.0254v11.068c-0.681-4.6543-7.58-6.0484-10.654-6.5621"/>
    <path d="m118.7 96.946c-8.354-1.4078-18.666 0.7766-27.95-2.2676-1.7195-0.5648-3.3836-1.2711-4.998-2.0726-6.7039-3.4786-14.633-9.6387-22.073-13.638v-10.71c7.7469 3.9688 16.122 10.563 23.145 14.207 1.6211 0.8016 3.2761 1.5059 5.0027 2.0703 9.4104 3.0954 20.088 0.9458 27.944 2.2657 3.079 0.5136 9.041 1.4316 9.583 6.0226v10.677c-0.681-4.6467-7.58-6.0412-10.654-6.5549"/>
   </g>
  </g>
 </g>
</svg>
