<svg id="layer" version="1.1" viewBox="0 0 600 221.74" xmlns="http://www.w3.org/2000/svg">
 <style type="text/css">.st0{fill:#28346A;}
	.st1{fill:#FFFFFE;}
	.st2{fill:#8B2434;}</style>
 <g transform="translate(-20.2,-209.9)">
  <path class="st0" d="m82.5 371.4h519.5v-2.8h-519.5z"/>
  <path class="st0" d="m94.3 414.2h10.2l-2.2-13.2c0 0.1-8 13.2-8 13.2zm6.9-16.8h4l5.2 26.9h-4.1l-1.4-7h-12.5l-4.4 7h-3.8zm27.6 12c-0.6-1-1.7-1.9-3.7-1.9-5.1 0-6.4 6.2-6.7 7.5-0.7 3.3-0.7 7.1 3.6 7.1 5.5 0 6.8-6.1 7.1-7.5 0.6-2.7 0.3-4.2-0.3-5.2zm3.9-12h3.5l-5.1 23.8c-0.1 0.4-0.3 2-0.5 3h-3.5l0.6-3c-0.4 0.5-1 1.3-2.1 2-1.5 0.9-3.2 1.3-4.9 1.4-2.5 0-7.8-1.3-6-9.5 1.5-7.1 6.2-10.2 10.6-10.2 4 0 4.9 2.4 5.1 3.2zm5.2 8.2h3.9l2.8 14.8 9-14.8h3.9l-12.2 18.7h-3.5l-3.9-18.7m30.5 9.5c-1.4 0-6.7 0-7.5 3.8-0.3 1.2 0 3.2 3.2 3.2 1.7 0 3.3-0.7 4.4-2 1-1.3 1.3-2.3 1.9-4.9-0.7-0.1-1.4-0.1-2-0.1zm0.4 9.1c-0.1-0.9 0-1.9 0.3-2.8-2.3 3.1-4.9 3.4-6.5 3.4-4.3 0-6.1-2.4-5.4-5.5 0.3-1.5 1.3-3.9 4.4-5.5 2.3-1.1 5.2-1.2 6.7-1.2 0.9 0 1.5 0 2.5 0.1 0.5-2.3 0.7-3.3 0.2-4.1-0.5-0.9-2-1.2-3-1.2-3.5 0-4.2 2.4-4.4 3.2h-3.5c0.3-1 0.7-2.3 2-3.5 1.7-1.6 4.5-2 6.5-2 2.7 0 5.4 0.9 6 2.8 0.4 1.1 0.2 2 0 2.9l-2 8.9c-0.1 0.3-0.6 2.8-0.7 4.7 0.1-0.2-3.1-0.2-3.1-0.2zm13-16.5 0.4-2.2h3.5l-0.6 3c0.6-0.8 2.5-3.4 6.7-3.4 1.7 0 6.6 0.6 5.4 6.4l-2.7 12.7h-3.6l2.5-11.9c0.3-1.2 0.3-2.3-0.3-3.2-0.7-0.9-1.9-1.3-3-1.3-2.5 0-5.2 1.8-6.1 5.6l-2.3 10.7h-3.5l3.6-16.4m32.4 3.9c0.1-0.8 0.5-3.9-2.9-3.9-4.8 0-6 5.6-6.3 7-0.8 3.8-0.7 7.4 3.1 7.4 3 0 4.5-2.2 4.9-4h3.5c-1 3.6-4.3 6.7-9 6.7-1.3 0-4.1-0.3-5.6-2.4-0.9-1.3-1.5-3.3-0.7-7.1 1.6-7.8 6.9-10.1 10.6-10.1 1.2 0 4 0.3 5.2 2.3 1 1.6 0.8 3.1 0.7 4.2h-3.5m10.6-14.2h4.2l-0.8 3.8h-4.2zm-1.3 8.1h3.5l-4 18.7h-3.5z"/>
  <g transform="translate(62.905,58.735)">
   <path class="st0" d="m170.5 349 0.4-2.2h3.5l-0.6 3c0.6-0.8 2.5-3.4 6.7-3.4 1.7 0 6.6 0.6 5.4 6.4l-2.7 12.7h-3.6l2.5-11.9c0.3-1.2 0.3-2.3-0.3-3.2-0.7-0.8-1.9-1.3-3-1.3-2.5 0-5.2 1.8-6.1 5.6l-2.3 10.8h-3.4l3.5-16.5m31.7 11.7c1-1 1.7-2 2.4-5.4 0.5-2.3 0.3-3.7-0.4-4.6-0.7-1-2.1-1.6-3.7-1.6-4.4 0-6 4.5-6.5 6.8-0.6 2.9-0.6 6.6 3.7 6.6 2 0.1 3.4-0.7 4.5-1.8zm-9.5 6.3c-0.3 2.1 0.3 3.6 3.6 3.6 4.9 0 5.7-3.5 6.8-8.6-2.2 3.1-5.7 3.2-6.8 3.2-1.7 0-4.1-0.4-5.2-2.3-1.2-1.9-1.2-4.4-0.7-6.9 1.4-6.3 5.7-9.4 10.3-9.4 3.8 0 4.8 1.9 5.3 2.8l0.6-2.6h3.4l-0.8 3.4-2.5 11.7c-1 4.5-1.5 6.3-2.6 7.7-2.2 3-5.9 3.3-8.5 3.3-7.5 0-7-3.5-6.5-6-0.1 0.1 3.6 0.1 3.6 0.1z"/>
  </g>
  <path class="st0" d="m295.1 397.4-2.4 11.5h12.8l2.4-11.5h3.7l-5.7 26.9h-3.7l2.6-12.1h-12.8l-2.6 12.1h-3.7l5.7-26.9h3.7m31.8 15.7c0.4-1.8 0.8-5.5-3.5-5.5-2.3 0-5.3 1.4-6.3 5.5zm-10.4 2.4c-0.9 3.9 0.1 6.7 3.9 6.7 2.3 0 4.4-1.2 5.2-3.9h3.5c-0.3 0.9-0.8 2.5-2.4 3.9-1 0.9-3.2 2.5-7 2.5-5.9 0-7.9-3.6-6.7-9.6 0.8-3.7 2.2-6.7 5.6-8.8 2-1.3 4.3-1.4 5.4-1.4 8.4 0 6.6 7.4 5.9 10.4 0 0.2-13.4 0.2-13.4 0.2zm27.6-0.4c-1.4 0-6.7 0-7.6 3.8-0.3 1.2 0 3.2 3.2 3.2 1.7 0 3.3-0.7 4.4-2 1-1.3 1.3-2.3 1.9-4.9-0.6-0.1-1.2-0.1-1.9-0.1zm0.5 9.1c-0.1-0.9 0-1.8 0.3-2.8-2.3 3.1-4.9 3.4-6.5 3.4-4.3 0-6.1-2.4-5.4-5.5 0.3-1.5 1.3-3.9 4.4-5.5 2.3-1.1 5.2-1.2 6.7-1.2 0.9 0 1.4 0 2.5 0.1 0.5-2.3 0.7-3.3 0.2-4.1-0.5-0.9-2-1.2-3-1.2-3.5 0-4.2 2.4-4.4 3.2h-3.5c0.3-1 0.7-2.3 2-3.5 1.8-1.6 4.5-2 6.5-2 2.7 0 5.4 0.9 6 2.8 0.4 1.1 0.2 2 0 2.9l-2 8.9c-0.1 0.3-0.6 2.8-0.7 4.7 0-0.2-3.1-0.2-3.1-0.2zm15-26.8h3.5l-5.7 26.8h-3.4l5.6-26.8m5.7 8.1h3.3l0.8-3.9 3.7-1.1-1.1 5h4.2l-0.6 2.6h-4.2l-2.4 11.2c-0.2 0.9-0.5 2.5 2 2.5 0.7 0 1.4-0.1 1.7-0.2l-0.6 2.7c-1 0.2-2 0.2-2.9 0.2-3.2 0-4.5-0.9-3.9-4l2.6-12.5h-3.3l0.7-2.5m17-8.1h3.5l-2.3 10.9c1.6-2 4.1-3.1 6.7-3.1 2 0 4.7 0.7 5.2 3 0.2 0.7 0.3 1.6-0.3 4.4l-2.5 11.7h-3.6l2.3-11c0.4-1.7 1.1-5.3-2.9-5.3-2.6 0-4.2 1.6-4.9 2.5-0.8 1-1.2 2.8-1.4 3.9l-2.1 9.9h-3.5l5.8-26.9m32.8 0.1h4.2l-0.8 3.8h-4.2zm-1.4 8.1h3.5l-4 18.7h-3.5c0-0.1 4-18.7 4-18.7zm10 2.1 0.4-2.2h3.5l-0.6 3c0.6-0.8 2.5-3.4 6.7-3.4 1.7 0 6.6 0.6 5.4 6.4l-2.7 12.7h-3.6l2.5-11.9c0.3-1.2 0.3-2.3-0.3-3.2-0.7-0.9-1.9-1.3-3-1.3-2.5 0-5.2 1.8-6.1 5.6l-2.3 10.7h-3.5l3.6-16.4m34.7 6.5h10.2l-2.2-13.2zm6.9-16.8h4l5.2 26.9h-4.1l-1.4-7h-12.5l-4.4 7h-3.8zm16.2 10.7 0.5-2.5h3.5l-0.6 2.7c2.4-2.9 5-3.2 6.6-3.2 4.1 0 5 2.1 5.4 3.5 0.9-1 2.9-3.5 7-3.5 2.7 0 6.6 1.1 5.5 6.6l-2.7 12.5h-3.5l2.5-12c0.4-1.6 0.2-2.3 0-2.8-0.4-0.9-1.5-1.6-3.2-1.6-2.3 0-3.8 1.3-4.4 2-1.1 1.1-1.5 3.2-1.7 4l-2.2 10.4h-3.5l2.6-12.3c0.5-2.3-0.5-4.1-3.2-4.1-2.4 0-4 1.5-4.5 2-1 1.1-1.4 2.6-1.6 3.8l-2.3 10.6h-3.5l3.3-16.1m46.1 5c0.4-1.8 0.9-5.5-3.5-5.5-2.3 0-5.3 1.4-6.2 5.5zm-10.4 2.4c-0.9 3.9 0.1 6.7 3.9 6.7 2.3 0 4.4-1.2 5.2-3.9h3.5c-0.3 0.9-0.8 2.5-2.4 3.9-1 0.9-3.2 2.5-7 2.5-5.9 0-7.9-3.6-6.7-9.6 0.8-3.7 2.2-6.7 5.6-8.8 2-1.3 4.3-1.4 5.4-1.4 8.4 0 6.6 7.4 5.9 10.4h-13.4zm20.1-6.1c0.3-1.3 0.5-2.6 0.6-3.8h3.5l-0.7 3.6c1.2-2.6 3.6-3.5 5.2-3.7 0.8-0.1 1.6-0.1 2.5-0.1l-0.7 3.4c-0.2-0.1-0.4-0.1-0.6-0.2h-1c-4.1 0-5.6 2.5-6.3 5.6l-2.1 9.9h-3.5l3.1-14.7m16.5-11.9h4.2l-0.8 3.8h-4.2zm-1.4 8.1h3.5l-4 18.7h-3.5zm19.7 6c0.1-0.8 0.5-3.9-2.9-3.9-4.8 0-6 5.6-6.3 7-0.8 3.8-0.7 7.4 3 7.4 3 0 4.5-2.2 4.9-4h3.5c-1 3.6-4.3 6.7-9 6.7-1.3 0-4.1-0.3-5.6-2.4-0.9-1.3-1.5-3.3-0.7-7.1 1.6-7.8 6.9-10.1 10.6-10.1 1.2 0 4 0.3 5.2 2.3 1 1.6 0.8 3.1 0.7 4.2h-3.4m16.2 3.4c-1.4 0-6.7 0-7.6 3.8-0.3 1.2 0 3.2 3.2 3.2 1.8 0 3.3-0.7 4.4-2 1-1.3 1.3-2.3 1.9-4.9-0.6-0.1-1.2-0.1-1.9-0.1zm0.4 9.1c-0.1-0.9 0-1.9 0.3-2.8-2.3 3.1-4.9 3.4-6.5 3.4-4.3 0-6.1-2.4-5.4-5.5 0.3-1.5 1.3-3.9 4.4-5.5 2.3-1.1 5.2-1.2 6.7-1.2 0.8 0 1.7 0 2.5 0.1 0.5-2.3 0.7-3.3 0.2-4.1-0.5-0.9-2-1.2-3-1.2-3.5 0-4.2 2.4-4.4 3.2h-3.5c0.3-1 0.7-2.3 2-3.5 1.7-1.6 4.5-2 6.5-2 2.7 0 5.4 0.9 6 2.8 0.4 1.1 0.2 2 0 2.9l-2 8.9c-0.1 0.3-0.6 2.8-0.7 4.7 0.1-0.2-3.1-0.2-3.1-0.2z"/>
  <path class="st0" d="m235.2 256.5h8.6l11.1 30.6h-7l-2.6-7.5h-12.4l-2.7 7.5h-7l12-30.6zm9 19.2-4.8-15.1h-0.1l-5 15.1h9.9zm12.6-11.6h6v2.7h0.2c1.6-2 4.6-3.3 7.6-3.3 4.6 0 6.5 1.6 7.4 3.5 1.8-2.2 4.2-3.5 8.1-3.5 4.5 0 7.7 1.7 7.7 6.1v17.5h-6.4v-15.8c0-3-1.2-4.2-3.8-4.2s-5.1 1.5-5.1 4.5v15.5h-6.4v-15.8c0-3-1.3-4.2-3.9-4.2-2.5 0-5 1.5-5 4.5v15.5h-6.4v-23m46.8 12.1v1.3c0 3.1 0.5 7 5.3 7 4.6 0 5.1-3.8 5.1-5.1h6c0 5.1-4.3 8.3-11.2 8.3-5.2 0-11.7-1.1-11.7-11.8 0-6 1.8-12.5 11.8-12.5 8.9 0 11.2 3.9 11.2 10.3v2.4h-16.5zm10.3-3.2v-1.2c0-2.9-1.3-5.1-4.9-5.1-4.1 0-5.3 2.9-5.3 5.9v0.5c-0.1-0.1 10.2-0.1 10.2-0.1zm10.7-8.9h6.4v3.6h0.1c1.4-2.6 3.8-4.2 7.4-4.2 0.7 0 1.1 0.1 1.5 0.2v4.7c-0.9-0.2-1.8-0.2-2.7-0.3-2.9 0-6.4 0.9-6.4 5.2v13.8h-6.4v-23m18.1-3.3h6.4v-4.6h-6.4zm0 26.3h6.4v-23.1h-6.4zm33.3-8.4c-0.4 5.5-3 9-10.9 9-9.2 0-11.8-5-11.8-12.1s2.6-12.1 11.8-12.1c9.5-0.1 10.9 5.4 10.9 8.3h-6.4c0-2.1-0.8-4.9-4.5-4.8-4.6 0-5.4 3.6-5.4 8.7s0.8 8.7 5.4 8.7c3.5 0 4.8-2.1 4.8-5.6h6.1m24.7 3.5c0 0.9 0.7 1.6 1.7 1.6 0.4 0 0.8 0 1.1-0.1v3c-1 0.4-2.1 0.5-3.1 0.6-2.8 0-5.2-0.8-5.4-3h-0.1c-1.7 2.3-4.2 3.4-7.9 3.4-5.1 0-8.3-2.1-8.3-6.5 0-5.1 3.1-6.2 7.4-7.2l5-1c2.3-0.5 3.7-0.9 3.7-3s-1-3.4-4.4-3.4c-4.3 0-4.8 2.2-4.8 4.4h-6c0-4.9 2.8-7.6 11.2-7.6 5.6 0 10.1 1.6 10.1 5.7v13.1zm-6-7.3c-1.7 0.9-5.2 1.5-7.1 2.1-1.8 0.6-2.6 2-2.6 3.7 0 1.9 1.3 3.5 4 3.5 3.8 0 5.7-2.1 5.7-5.5zm11.6-10.9h6v2.7h0.2c1.6-2 4.6-3.3 8.2-3.3 4.8 0 7.9 1.6 7.9 6.3v17.4h-6.4v-15.8c0-3-1.2-4.2-4.4-4.2-2.6 0-5.1 1.5-5.1 4.5v15.5h-6.4v-23.1m44.7-7.6h6.7v12.3h12.4v-12.3h6.7v30.6h-6.7v-14.2h-12.4v14.2h-6.7v-30.6m40.9 7c9.3 0 11.9 5 11.9 12.1s-3 12.1-11.9 12.1c-8.8 0-11.8-5-11.8-12.1s2.6-12.1 11.8-12.1m0 20.8c4.7 0 5.5-2.8 5.5-8.7 0-5.1-0.8-8.7-5.5-8.7-4.6 0-5.4 3.6-5.4 8.7 0 5.9 0.8 8.7 5.4 8.7m29.6-13.5v-0.6c0-1.8-0.9-3.6-4.2-3.6-2.5 0-4.5 0.9-4.5 3 0 1.8 1.1 2.5 4.5 3.4l4.1 1c4.7 1.2 6.9 3 6.9 6.6 0 4.9-5 7-11.4 7-8 0-10.5-2.7-10.5-7.2v-0.9h5.7v0.7c0 2.7 1.3 4.1 5 4.1 3.5 0 5.2-1.3 5.2-3.4 0-1.7-1.2-2.8-3.5-3.4l-5.2-1.3c-4.8-1.2-6.8-3-6.8-6.6 0-4.3 4.3-6.3 10.9-6.3 8.1 0 9.9 3.4 9.9 6.3v1h-6.1m10.5-6.5h6v2.8h0.1c1.3-2.1 3.7-3.4 7.2-3.4 7.3 0 10.2 4.5 10.2 12.4 0 9.7-5.4 11.8-9.8 11.8-3.4 0-6-1.2-7.2-3.3h-0.1v10.2h-6.4zm11.5 20c3.7 0 5.3-2 5.3-8.4 0-5.2-1-8.5-5.4-8.5s-5.4 3.2-5.4 8.2c0 5.5 1 8.7 5.5 8.7zm15.1-23.3h6.4v-4.6h-6.4zm0 26.3h6.4v-23.1h-6.4zm9-23h4.4v-6.6h6.4v6.6h5.2v3.4h-5.2v13.7c0 1.8 0.7 2.5 2.9 2.5 0.9 0 1.7-0.1 2.3-0.1v3.4c-1.4 0.3-3.1 0.4-5.1 0.4-4.3 0-6.4-0.9-6.4-5.6v-14.3h-4.4l-0.1-3.4m40.4 18.2c0 0.9 0.7 1.6 1.6 1.6 0.4 0 0.8 0 1.1-0.1v3c-1 0.4-2.1 0.5-3.1 0.6-2.8 0-5.2-0.8-5.4-3h-0.1c-1.7 2.3-4.2 3.4-7.9 3.4-5.1 0-8.3-2.1-8.3-6.5 0-5.1 3.1-6.2 7.4-7.2l5-1c2.3-0.5 3.7-0.9 3.7-3s-1-3.4-4.4-3.4c-4.3 0-4.9 2.2-4.9 4.4h-6c0-4.9 2.8-7.6 11.2-7.6 5.6 0 10.1 1.6 10.1 5.7zm-6-7.3c-1.7 0.9-5.2 1.5-7.1 2.1-1.8 0.6-2.6 2-2.6 3.7 0 1.9 1.3 3.5 4 3.5 3.9 0 5.7-2.1 5.7-5.5zm11.9 12.1h6.4v-30.6h-6.4zm-378.6 19.2h8.6l11.1 30.6h-7l-2.6-7.5h-12.4l-2.7 7.5h-7l12-30.6zm9 19.2-4.8-15.1h-0.1l-5 15.1h9.9zm27.2-4.9v-0.6c0-1.8-0.9-3.6-4.2-3.6-2.5 0-4.6 0.8-4.6 3 0 1.8 1.1 2.5 4.5 3.4l4.1 1c4.7 1.2 6.9 3 6.9 6.6 0 4.9-5 7-11.4 7-8 0-10.5-2.7-10.5-7.2v-0.9h5.7v0.7c0 2.7 1.3 4.1 5 4.1 3.5 0 5.2-1.3 5.2-3.4 0-1.7-1.2-2.8-3.5-3.4l-5.2-1.3c-4.8-1.2-6.8-3-6.8-6.6 0-4.3 4.3-6.3 10.9-6.3 8.1 0 9.9 3.4 9.9 6.3v1h-6m24.3 0.2v-0.6c0-1.8-0.9-3.6-4.2-3.6-2.5 0-4.6 0.8-4.6 3 0 1.8 1.1 2.5 4.5 3.4l4.1 1c4.7 1.2 6.9 3 6.9 6.6 0 4.9-5 7-11.4 7-8 0-10.5-2.7-10.5-7.2v-0.9h5.7v0.7c0 2.7 1.3 4.1 5 4.1 3.5 0 5.2-1.3 5.2-3.4 0-1.7-1.2-2.8-3.5-3.4l-5.2-1.3c-4.8-1.2-6.8-3-6.8-6.6 0-4.3 4.3-6.3 10.9-6.3 8.1 0 9.9 3.4 9.9 6.3v1h-6m21.1-7.2c9.3 0 11.9 5 11.9 12.1 0 7.2-3 12.1-11.9 12.1-8.8 0-11.8-5-11.8-12.1s2.6-12.1 11.8-12.1m0 20.9c4.7 0 5.5-2.8 5.5-8.7 0-5.1-0.8-8.7-5.5-8.7-4.6 0-5.4 3.6-5.4 8.7-0.1 5.8 0.8 8.7 5.4 8.7m37.3-5.6c-0.4 5.5-3 9-10.9 9-9.2 0-11.8-5-11.8-12.1 0-7.2 2.6-12.1 11.8-12.1 9.5-0.1 10.9 5.4 10.9 8.3h-6.4c0-2.1-0.8-4.9-4.6-4.8-4.6 0-5.5 3.6-5.5 8.7s0.8 8.7 5.5 8.7c3.5 0 4.8-2.1 4.8-5.6h6.2m2.9-18h6.4v-4.6h-6.4zm0 26.3h6.4v-23h-6.4zm32.8-4.8c0 0.9 0.7 1.6 1.6 1.6 0.4 0 0.8-0.1 1.1-0.1v3c-1 0.4-2.1 0.5-3.1 0.6-2.8 0-5.2-0.8-5.4-3h-0.1c-1.7 2.3-4.2 3.4-7.9 3.4-5.1 0-8.3-2.1-8.3-6.5 0-5.1 3.1-6.2 7.4-7.2l5-1c2.3-0.5 3.7-0.9 3.7-3s-1-3.4-4.4-3.4c-4.3 0-4.8 2.2-4.8 4.4h-6c0-4.9 2.8-7.6 11.2-7.6 5.6 0 10.1 1.6 10.1 5.6zm-6-7.4c-1.7 0.9-5.2 1.5-7.1 2.1-1.8 0.6-2.6 2-2.6 3.7 0 1.9 1.3 3.5 4 3.5 3.8 0 5.7-2.1 5.7-5.5v-3.8zm8.7-10.9h4.4v-6.6h6.4v6.6h5.2v3.4h-5.2v13.8c0 1.8 0.7 2.4 2.9 2.4 1 0 1.7 0 2.3-0.1v3.4c-1.4 0.3-3.1 0.4-5.1 0.4-4.3 0-6.4-0.9-6.4-5.6v-14.3h-4.4l-0.1-3.4m19.8-3.2h6.4v-4.6h-6.4zm0 26.3h6.4v-23h-6.4zm22.5-23.7c9.3 0 11.9 5 11.9 12.1 0 7.2-3 12.1-11.9 12.1-8.8 0-11.8-5-11.8-12.1s2.6-12.1 11.8-12.1m0 20.9c4.7 0 5.5-2.8 5.5-8.7 0-5.1-0.8-8.7-5.5-8.7-4.6 0-5.4 3.6-5.4 8.7 0 5.8 0.8 8.7 5.4 8.7m15.9-20.3h6v2.7h0.2c1.6-2.1 4.6-3.3 8.2-3.3 4.9 0 7.9 1.6 7.9 6.3v17.4h-6.4v-15.8c0-3-1.2-4.2-4.4-4.2-2.6 0-5.1 1.5-5.1 4.5v15.5h-6.4v-23.1m34.5 4.4v-8.7h2.7l1.6 6 1.6-6h2.7v8.7h-1.7v-6.9l-1.9 6.9h-1.6l-1.9-6.9v6.9zm-5.4 0v-7.2h-2.7v-1.5h7v1.5h-2.6v7.2z"/>
  <path class="st0" d="m109.2 295.1c0 4.2-3.4 7.6-7.6 7.6h-73.8c-4.2 0-7.6-3.4-7.6-7.6v-77.5c0-4.2 3.4-7.6 7.6-7.7h73.8c4.2 0 7.6 3.4 7.6 7.6v77.6"/>
  <path class="st1" d="m94.9 223.3v65.4h-17v-25.2h-26.6v25.2h-17v-65.4h17v23.7h26.7v-23.7h16.9"/>
  <path class="st2" d="m193.4 283.9c-12.4 2.1-27.7-1.2-41.4 3.4-2.5 0.9-5 1.9-7.4 3.1-8.9 4.6-19.2 12.4-29.2 18.3-2.4 1.3-4.8 2.5-6.9 3.6-2.3 1.1-4.7 2.1-7.2 3-0.1 0-0.2 0.1-0.3 0.1-13.9 4.6-29.8 1.4-41.4 3.4-4.6 0.8-13.4 2.1-14.2 8.9v15.8c1-6.9 11.2-9 15.8-9.7 12.4-2.1 27.7 1.2 41.4-3.4 0.1 0 0.2-0.1 0.3-0.1 13.7-4.1 30.1-18 43.3-24.8 2.4-1.2 4.9-2.2 7.4-3.1 14-4.6 29.8-1.4 41.4-3.4 4.6-0.8 13.4-2.1 14.2-8.9v-15.8c-1 6.8-11.2 8.9-15.8 9.6m0-30.3c-12.4 2.1-27.7-1.2-41.4 3.4-2.6 0.8-5 1.9-7.4 3.1-9.9 5.2-21.7 14.3-32.7 20.3v16.5c11.5-5.9 23.9-15.7 34.3-21.1 2.4-1.2 4.9-2.2 7.4-3.1 14-4.6 29.8-1.4 41.4-3.4 4.6-0.8 13.4-2.1 14.2-8.9v-16.4c-1 6.7-11.2 8.8-15.8 9.6m0-29.8c-12.4 2.1-27.7-1.2-41.4 3.4-2.5 0.8-5 1.9-7.4 3.1-9.9 5.2-21.7 14.3-32.7 20.2v15.9c11.5-5.9 23.9-15.7 34.3-21.1 2.4-1.2 4.9-2.2 7.4-3.1 14-4.6 29.8-1.4 41.4-3.4 4.6-0.8 13.4-2.1 14.2-8.9v-15.9c-1 6.9-11.2 9-15.8 9.8"/>
  <path class="st0" d="m223.7 214c4.4 0 8.4 3.2 8.4 8.2s-4 8.2-8.4 8.2-8.4-3.2-8.4-8.2 4-8.2 8.4-8.2zm0 14.6c3.4 0 6.2-2.7 6.2-6.5 0-3.7-2.8-6.4-6.2-6.4s-6.2 2.7-6.2 6.4c0.1 3.8 2.8 6.5 6.2 6.5zm-3.2-11.1h3.5c2.3 0 3.6 0.7 3.6 2.7 0 1.7-1.1 2.3-2.4 2.5l2.5 4h-1.9l-2.2-3.9h-1.1v3.9h-1.8v-9.2zm1.8 3.9h1.6c1 0 1.8-0.2 1.8-1.3 0-1-1.1-1.1-1.9-1.1h-1.5z"/>
 </g>
</svg>
