<svg version="1.1" viewBox="0 0 214.96 48.973" xmlns="http://www.w3.org/2000/svg">
 <g transform="matrix(1.3333 0 0 -1.3333 0 48.973)">
  <g transform="scale(.1)">
   <g fill="#3d529b">
    <path d="m577.6 236.89h23.208l29.871-82.235h-18.907l-6.968 20.157h-33.231l-7.301-20.157h-18.925zm24.165-51.598-13.032 40.543h-0.332l-13.5-40.543h26.864"/>
    <path d="m635.77 216.63h16.211v-7.266h0.5c4.265 5.516 12.378 8.864 20.468 8.864 12.254 0 17.348-4.262 19.868-9.45 4.957 5.996 11.292 9.45 21.636 9.45 12.051 0 20.789-4.481 20.789-16.461v-47.11h-17.152v42.5c0 8.074-3.34 11.16-10.336 11.16-6.973 0-13.652-4.015-13.652-12.086v-41.574h-17.157v42.5c0 8.074-3.367 11.16-10.492 11.16-6.84 0-13.511-4.015-13.511-12.086v-41.574h-17.172v61.973"/>
    <path d="m761.6 184.05v-3.578c0-8.278 1.438-18.871 14.329-18.871 12.234 0 13.66 10.129 13.66 13.793h16.203c0-13.703-11.445-22.328-30.02-22.328-13.996 0-31.328 2.988-31.328 31.664 0 16.246 4.805 33.523 31.629 33.523 23.84 0 30.207-10.398 30.207-27.656v-6.547zm27.532 8.508v3.34c0 7.839-3.516 13.812-13.203 13.812-10.95 0-14.329-7.828-14.329-15.891v-1.261h27.532"/>
    <path d="m817.87 216.63h17.176v-9.688h0.305c3.828 6.907 10.175 11.286 19.882 11.286 1.883 0 3.016-0.204 4.129-0.438v-12.684c-1.277 0.227-4.285 0.692-7.175 0.692-7.774 0-17.141-2.527-17.141-14.051v-37.09h-17.176v61.973"/>
    <path d="m866.19 237.81h17.156v-12.438h-17.156zm0-21.18h17.156v-61.973h-17.156v61.973"/>
    <path d="m955.82 177.25c-1.113-14.867-8.097-24.183-29.238-24.183-24.785 0-31.797 13.359-31.797 32.582 0 19.222 7.012 32.582 31.797 32.582 25.594 0.238 29.395-14.493 29.395-22.231h-17.18c0 5.77-2.227 13.246-12.215 13.016-12.422 0-14.629-9.676-14.629-23.367 0-13.711 2.207-23.36 14.629-23.36 9.531-0.133 13.027 5.629 13.027 14.961h16.211"/>
    <path d="m1022.2 167.56c0-2.309 1.9-4.391 4.45-4.391 1.12 0 2.25 0.133 2.88 0.344v-8.043c-2.09-0.703-5.1-1.485-8.41-1.485-7.65 0-14.03 2.164-14.48 8.164h-0.33c-4.61-6.101-11.275-9.089-21.295-9.089-13.633 0-22.207 5.511-22.207 17.402 0 13.808 8.231 16.672 19.824 19.437l13.36 2.653c6.188 1.261 9.988 2.543 9.988 7.953 0 5.629-2.68 9.199-11.758 9.199-11.433 0-13.015-5.871-13.015-11.855h-16.211c0 13.128 7.48 20.398 30.039 20.398 15.095 0 27.165-4.266 27.165-15.223zm-16.22 19.804c-4.44-2.531-13.953-4.023-19.051-5.742-4.922-1.754-6.984-5.434-6.984-10.039 0-5.164 3.488-9.32 10.637-9.32 10.318 0 15.398 5.648 15.398 14.742v10.359"/>
    <path d="m1037.2 216.63h16.21v-7.266h0.5c4.25 5.516 12.38 8.864 21.91 8.864 13.02 0 21.3-4.262 21.3-16.813v-46.758h-17.16v42.5c0 8.074-3.34 11.16-11.92 11.16-6.99 0-13.67-4.015-13.67-12.086v-41.574h-17.17v61.973"/>
    <path d="m1157.3 236.89h18.12v-32.95h33.37v32.95h18.12v-82.235h-18.12v38.235h-33.37v-38.235h-18.12v82.235"/>
    <path d="m1267.2 218.25c24.98 0 31.96-13.383 31.96-32.605 0-19.223-8.12-32.582-31.96-32.582-23.68 0-31.77 13.359-31.77 32.582 0 19.222 7 32.605 31.77 32.605m0-55.984c12.55 0 14.78 7.605 14.78 23.379 0 13.691-2.23 23.367-14.78 23.367-12.37 0-14.6-9.676-14.6-23.367 0-15.774 2.23-23.379 14.6-23.379"/>
    <path d="m1346.7 198.55v1.586c0 4.968-2.38 9.57-11.29 9.57-6.82 0-12.22-2.301-12.22-8.051 0-4.836 3.04-6.816 12.08-9.101l10.96-2.785c12.72-3.094 18.59-8.043 18.59-17.836 0-13.235-13.36-18.871-30.66-18.871-21.62 0-28.14 7.253-28.14 19.222v2.32h15.27v-1.98c0-7.133 3.47-11.059 13.32-11.059 9.41 0 13.97 3.461 13.97 9.094 0 4.602-3.32 7.617-9.34 9.11l-14.02 3.574c-12.83 3.226-18.24 7.941-18.24 17.847 0 11.625 11.59 17.036 29.26 17.036 21.75 0 26.66-9.215 26.66-16.922v-2.754h-16.2"/>
    <path d="m1375 216.63h16.24v-7.617h0.3c3.49 5.539 9.83 9.215 19.23 9.215 19.55 0 27.49-12.09 27.49-33.391 0-26.023-14.64-31.773-26.4-31.773-9.22 0-16.2 3.32-19.37 8.851h-0.3v-27.531h-17.19zm30.84-53.695c9.86 0 14.3 5.324 14.3 22.484 0 14.059-2.56 22.898-14.46 22.898-11.77 0-14.44-8.738-14.44-21.968 0-14.856 2.51-23.414 14.6-23.414"/>
    <path d="m1446.5 237.81h17.16v-12.438h-17.16zm0-21.18h17.16v-61.973h-17.16v61.973"/>
    <path d="m1470.8 216.63h11.77v17.617h17.19v-17.617h13.95v-9.223h-13.95v-36.957c0-4.824 1.9-6.586 7.77-6.586 2.52 0 4.61 0.145 6.18 0.371v-9.207c-3.66-0.707-8.42-1.039-13.82-1.039-11.59 0-17.32 2.289-17.32 14.965v38.453h-11.77v9.223"/>
    <path d="m1579.3 167.56c0-2.309 1.92-4.391 4.43-4.391 1.14 0 2.23 0.133 2.89 0.344v-8.043c-2.06-0.703-5.1-1.485-8.4-1.485-7.64 0-14.02 2.164-14.48 8.164h-0.33c-4.61-6.101-11.27-9.089-21.28-9.089-13.67 0-22.28 5.511-22.28 17.402 0 13.808 8.27 16.672 19.86 19.437l13.36 2.653c6.19 1.261 10.03 2.543 10.03 7.953 0 5.629-2.72 9.199-11.74 9.199-11.46 0-13.03-5.871-13.03-11.855h-16.22c0 13.128 7.44 20.398 30.03 20.398 15.08 0 27.16-4.266 27.16-15.223zm-16.2 19.804c-4.46-2.531-13.98-4.023-19.07-5.742-4.93-1.754-6.99-5.434-6.99-10.039 0-5.164 3.47-9.32 10.63-9.32 10.35 0 15.43 5.648 15.43 14.742v10.359"/>
    <path d="m1595.1 236.89h17.16v-82.235h-17.16v82.235"/>
    <path d="m577.6 103.17h23.208l29.863-82.211h-18.899l-7.007 20.145h-33.215l-7.309-20.145h-18.894zm24.165-51.606-13.032 40.547h-0.332l-13.5-40.547h26.864"/>
    <path d="m675 64.805v1.6016c0 4.9609-2.395 9.5703-11.277 9.5703-6.836 0-12.239-2.2891-12.239-8.0664 0-4.8243 3.043-6.7696 12.09-9.0821l10.961-2.7734c12.711-3.0938 18.594-8.0469 18.594-17.832 0-13.262-13.34-18.887-30.652-18.887-21.622 0-28.137 7.2461-28.137 19.219v2.3125h15.262v-1.9727c0-7.1367 3.488-11.043 13.336-11.043 9.371 0 13.988 3.4375 13.988 9.1015 0 4.6094-3.352 7.5977-9.391 9.0821l-13.965 3.5625c-12.902 3.2343-18.277 7.9414-18.277 17.852 0 11.641 11.582 17.051 29.223 17.051 21.777 0 26.707-9.2109 26.707-16.922v-2.7734h-16.223"/>
    <path d="m740.19 64.805v1.6016c0 4.9609-2.402 9.5703-11.308 9.5703-6.828 0-12.25-2.2891-12.25-8.0664 0-4.8243 3.051-6.7696 12.101-9.0821l10.95-2.7734c12.734-3.0938 18.613-8.0469 18.613-17.832 0-13.262-13.34-18.887-30.703-18.887-21.571 0-28.102 7.2461-28.102 19.219v2.3125h15.266v-1.9727c0-7.1367 3.472-11.043 13.344-11.043 9.363 0 13.964 3.4375 13.964 9.1015 0 4.6094-3.339 7.5977-9.367 9.0821l-13.984 3.5625c-12.875 3.2343-18.285 7.9414-18.285 17.852 0 11.641 11.617 17.051 29.254 17.051 21.777 0 26.699-9.2109 26.699-16.922v-2.7734h-16.192"/>
    <path d="m796.88 84.5c24.953 0 31.965-13.359 31.965-32.586 0-19.238-8.125-32.578-31.965-32.578-23.641 0-31.758 13.34-31.758 32.578 0 19.226 6.984 32.586 31.758 32.586m0-55.965c12.551 0 14.816 7.5976 14.816 23.379 0 13.73-2.265 23.375-14.816 23.375-12.391 0-14.617-9.6446-14.617-23.375 0-15.781 2.226-23.379 14.617-23.379"/>
    <path d="m897.16 43.516c-1.113-14.855-8.117-24.18-29.23-24.18-24.793 0-31.778 13.34-31.778 32.578 0 19.226 6.985 32.586 31.778 32.586 25.597 0.25 29.406-14.492 29.406-22.227h-17.16c0 5.7774-2.235 13.23-12.246 13.016-12.411 0-14.657-9.6446-14.657-23.375 0-13.691 2.246-23.379 14.657-23.379 9.543-0.0977 13.039 5.664 13.039 14.98h16.191"/>
    <path d="m905.09 104.1h17.187v-12.454h-17.187zm0-21.204h17.187v-61.938h-17.187v61.938"/>
    <path d="m993.16 33.848c0-2.3047 1.875-4.3946 4.422-4.3946 1.113 0 2.227 0.1367 2.858 0.3516v-8.0469c-2.057-0.6953-5.053-1.5039-8.424-1.5039-7.606 0-13.973 2.1875-14.422 8.1719h-0.352c-4.609-6.1133-11.289-9.0899-21.269-9.0899-13.653 0-22.266 5.5079-22.266 17.383 0 13.808 8.281 16.699 19.863 19.453l13.36 2.6562c6.191 1.2891 10 2.5391 10 7.9297 0 5.6641-2.688 9.2188-11.77 9.2188-11.414 0-13.008-5.875-13.008-11.867h-16.238c0 13.156 7.488 20.371 30.039 20.371 15.125 0 27.207-4.2266 27.207-15.176zm-16.23 19.805c-4.434-2.5195-13.985-4.0546-19.055-5.7617-4.941-1.7383-6.98-5.4101-6.98-10.02 0-5.1953 3.484-9.3359 10.625-9.3359 10.332 0 15.41 5.664 15.41 14.746v10.371"/>
    <path d="m1000.4 82.894h11.78v17.618h17.16v-17.618h13.99v-9.2265h-13.99v-36.949c0-4.8243 1.9-6.5547 7.78-6.5547 2.57 0 4.61 0.1093 6.21 0.3437v-9.2187c-3.64-0.6836-8.42-1.0274-13.82-1.0274-11.63 0-17.33 2.2852-17.33 14.973v38.434h-11.78v9.2265"/>
    <path d="m1053.7 104.1h17.14v-12.454h-17.14zm0-21.204h17.14v-61.938h-17.14v61.938"/>
    <path d="m1114.1 84.5c24.94 0 31.91-13.359 31.91-32.586 0-19.238-8.07-32.578-31.91-32.578-23.71 0-31.8 13.34-31.8 32.578 0 19.226 6.97 32.586 31.8 32.586m0-55.965c12.54 0 14.76 7.5976 14.76 23.379 0 13.73-2.22 23.375-14.76 23.375-12.41 0-14.63-9.6446-14.63-23.375 0-15.781 2.22-23.379 14.63-23.379"/>
    <path d="m1156.7 82.894h16.2v-7.2617h0.47c4.29 5.5469 12.4 8.8672 21.92 8.8672 13.04 0 21.28-4.2461 21.28-16.805v-46.738h-17.15v42.48c0 8.0547-3.32 11.156-11.92 11.156-6.99 0-13.65-4.0274-13.65-12.055v-41.582h-17.15v61.938"/>
    <path d="m239.72 138.5c0-11.008-8.906-19.934-19.938-19.934h-192.66c-11.02 0-19.934 8.926-19.934 19.934v202.22c0 11.019 8.9141 19.965 19.934 19.965h192.66c11.032 0 19.938-8.946 19.938-19.965v-202.22"/>
   </g>
   <path d="m202.4 325.63v-170.67h-44.324v65.809h-69.64v-65.809h-44.316v170.67h44.316v-61.742h69.64v61.742h44.324" fill="#fff"/>
   <path d="m80.277 0c0.0821 4.9805 3.461 9.2773 3.461 9.2773 2.9023 2.9883 5.0547 10.586 32.407 15.195 12.109 2.0117 25.796 1.9531 40.261 1.8554 22.871-0.1367 46.52-0.2734 69.824 7.3516 0.391 0.1289 1.083 0.4219 1.083 0.4219h-0.016c23.715 7.2656 49.055 23.906 73.558 40.121 14.641 9.6484 28.458 18.773 40.969 25.309 6.031 2.9687 11.774 5.3277 17.516 7.2347 20.039 6.597 42.277 6.433 63.765 6.281 15.137-0.094 29.446-0.195 42.618 2.039l0.668 0.094c14.14 2.367 43.625 7.328 46.769 34.086-0.062-0.36 0.094 0.175 0.094 0.175l0.09 0.344-0.02 211h-19.535c-0.141-4.152-1.957-7.492-4.441-10.277-3.743-4.215-7.075-9.438-31.926-13.914-12.063-2.157-25.774-1.926-40.242-1.848-22.895 0.117-46.532 0.285-69.856-7.367-6.855-2.258-13.746-5.141-21.011-8.711-13.965-7.238-28.305-16.731-43.465-26.738-12.16-8.024-24.586-16.172-36.598-23.039v69.043c0 16.203-14.215 29.375-31.664 29.375h-182.93c-17.48 0-31.656-13.172-31.656-29.375v-197.49c0-16.218 14.176-29.402 31.656-29.402h30.738v-111.04zm-67.891 140.44v197.49c0 9.351 8.6406 16.98 19.27 16.98h182.93c10.633 0 19.254-7.629 19.254-16.98v-197.49c0-9.359-8.621-16.98-19.254-16.98h-182.93c-10.629 0-19.27 7.621-19.27 16.98" fill="#fff"/>
   <g fill="#a4435a">
    <path d="m459.63 167.56c-32.348-5.403-72.281 3.019-108.23-8.742-6.656-2.227-13.101-4.969-19.355-8.043-23.223-12.051-50.199-32.407-76.281-47.676-6.34-3.2737-12.465-6.4182-18.133-9.3557-6.031-3-12.227-5.6094-18.668-7.7539-0.215-0.0703-0.445-0.1758-0.68-0.2461v-0.0313h-8e-3c-36.422-11.969-77.757-3.6484-108.23-8.75-11.914-2.0117-35.008-5.5664-37.09-23.344v-41.328c2.6289 17.996 29.359 23.387 41.262 25.391 32.359 5.4492 72.269-3.0274 108.23 8.789 0.246 0.0586 0.461 0.1836 0.711 0.254 35.695 10.605 78.559 46.875 113.03 64.781 6.286 3.098 12.696 5.844 19.375 8.016 36.442 11.992 77.789 3.644 108.21 8.785 11.926 2 35.016 5.566 37.11 23.316v41.336c-2.629-17.988-29.352-23.379-41.254-25.398"/>
    <path d="m459.63 246.77c-32.348-5.441-72.281 3.012-108.23-8.781-6.656-2.187-13.101-4.906-19.355-8.012-25.957-13.48-56.656-37.324-85.477-52.835v-42.946c30.008 15.399 62.434 40.903 89.621 55.024 6.286 3.101 12.696 5.812 19.375 8.019 36.442 11.985 77.789 3.653 108.21 8.754 11.926 2.027 35.016 5.567 37.11 23.336v42.852c-2.629-18.028-29.352-23.43-41.254-25.411"/>
    <path d="m459.63 324.51c-32.348-5.457-72.281 3.008-108.23-8.785-6.656-2.184-13.101-4.926-19.355-8.028-25.957-13.461-56.656-37.316-85.477-52.808v-41.469c30.008 15.367 62.434 40.902 89.621 55.016 6.286 3.097 12.696 5.828 19.375 8.015 36.442 11.989 77.789 3.656 108.21 8.774 11.926 1.988 35.016 5.543 37.11 23.316v41.348c-2.629-17.996-29.352-23.395-41.254-25.379"/>
   </g>
   <path d="m1248.4 40.449h4.44c2.82 0 4.92 0.418 4.92 3.4766 0 2.7031-2.88 3.125-5.16 3.125h-4.2zm-4.98 10.496h9.49c6.28 0 9.83-1.9805 9.83-7.4414 0-4.6094-2.88-6.4141-6.6-6.707l6.72-10.977h-5.22l-6.12 10.73h-3.12v-10.73h-4.98zm8.94-30.281c9.3 0 16.91 7.4297 16.91 17.684 0 10.195-7.61 17.578-16.91 17.578-9.42 0-16.91-7.3828-16.91-17.578 0-10.254 7.49-17.684 16.91-17.684zm0 40.059c12.18 0 23.03-8.7618 23.03-22.375 0-13.672-10.85-22.48-23.03-22.48-12.17 0-23.03 8.8086-23.03 22.48 0 13.613 10.86 22.375 23.03 22.375" fill="#3d529b"/>
  </g>
 </g>
</svg>
