<svg version="1" xmlns="http://www.w3.org/2000/svg" width="944" height="944" viewBox="0 0 708.000000 708.000000"><path d="M34.4 119.8C26.1 122.7 20 128.7 18 136c-1.5 5.4-1.3 279.1.2 284.2 1.6 5.6 7.8 12.1 14 14.9l5.3 2.4H170c132.3 0 132.5 0 137-2.1 6.3-2.9 10.5-6.7 12.9-11.7 2.1-4.3 2.1-4.6 2.1-146.1 0-138.3 0-141.8-1.9-145.5-2.3-4.5-7.7-9.4-12.9-11.9-3.5-1.6-12.4-1.7-135.7-1.9-123.8-.2-132.3-.1-137.1 1.5zm87.4 81.4l.2 42.8h96l.2-42.8.3-42.7h60l.3 117.7.2 117.8h-61v-91h-96v91H61V158l30.3.2 30.2.3.3 42.7zM688.6 132.1c-4.3 9.7-18.3 19-35.6 23.8-20.1 5.5-28.4 6.3-79.5 7.1-58.6 1-70.9 2.5-95.2 11.6-19.7 7.3-35.1 16.1-78.1 44.2-27.8 18.3-42.6 27.6-53.4 33.6l-6.8 3.8v28.4c0 15.6.2 28.4.5 28.4 2.5 0 31.4-17.7 65.7-40.2 51.7-33.8 68.9-42.8 94.6-49.3 19.5-4.9 27.7-5.6 79.2-6.5 42-.7 50.1-1.1 60.5-2.9 22.5-3.9 32.9-7.7 41.2-15.4 8.4-7.8 8.8-9 9.1-35.2.2-12.7.2-25.9 0-29.4l-.3-6.4-1.9 4.4zM689.1 238.5c-3.1 8.8-16 18.2-32.1 23.4-18.9 6.2-37.1 8.1-77.4 8.1-83.4.1-102.5 5.7-169.6 49.8-29.2 19.2-46.9 30.5-58.7 37.2l-11.3 6.5v29.2c0 16.1.3 29.3.7 29.3 2.8 0 35.3-19.7 62.8-38 50.2-33.5 71.3-44.5 97.4-51.1 19.8-5 31.4-6 83.6-6.9 36.7-.7 50-1.2 56.5-2.5 23-4.3 34.5-8.8 42.2-16.7 7.5-7.7 7.9-10.1 7.6-43.9-.3-25.8-.4-28-1.7-24.4zM688.6 348.8c-4.1 9-15.7 17.2-32.1 22.5-20 6.5-32.4 7.7-88 8.7-53.3.9-61.7 1.8-83.9 9.1-22.4 7.3-36.2 14.9-82.3 45.1-43.2 28.3-63.5 40-84.8 49.1-30 12.8-42.2 14.6-104.5 15.7-49.4.8-59.4 1.6-77.5 6-9.7 2.4-20.8 7.6-25.7 11.9-2 1.8-4.8 5.5-6.2 8.3l-2.6 5.2v57.1l2.1-4.2c4.8-9.8 19.3-18.9 37.9-23.7 19.1-5 27.5-5.7 78-6.6 56.9-1 65.6-2 90.5-10.1 23.6-7.7 45.8-20 96-52.9 45.3-29.7 61.1-38.6 81.5-45.8 23.6-8.2 40.3-10.1 94.5-10.7 42.6-.5 51.9-1.1 68-4.5 17.2-3.6 28.2-8.6 34.5-15.8 6.6-7.5 7.1-10.1 6.8-41.2l-.3-27.4-1.9 4.2z"/></svg>